<?xml version="1.0" standalone="no"?>
  <!DOCTYPE svg PUBLIC "-//W3C//DTD SVG 1.1//EN" "http://www.w3.org/Graphics/SVG/1.1/DTD/svg11.dtd" >
  <svg>
  <metadata>
  Created by font-carrier
  </metadata>
  <defs>
  <font id="FiraSansExtraCondensed-Bold" horiz-adv-x="1460" vert-adv-y="1460" >
    <font-face
      
      font-family="Fira Sans Extra Condensed"
      
      font-weight="400"
      
      font-stretch="normal"
      
      units-per-em="1000"
      
      ascent="935"
      
      descent="-265"
      
    />
      <missing-glyph />

      

      
      <glyph glyph-name="uni41" unicode="&#x41;" d="M356 0L328 152L174 152L147 0L-9 0L159 693L347 693L515 0L356 0M195 265L308 265L251 578L195 265Z"  horiz-adv-x="506" vert-adv-y="1000"  />

      
      <glyph glyph-name="unic1" unicode="&#xc1;" d="M356 0L328 152L174 152L147 0L-9 0L159 693L347 693L515 0L356 0M195 265L308 265L251 578L195 265M316 945L373 836L170 751L132 825L316 945Z"  horiz-adv-x="506" vert-adv-y="1000"  />

      
      <glyph glyph-name="uni0102" unicode="&#x0102;" d="M356 0L328 152L174 152L147 0L-9 0L159 693L347 693L515 0L356 0M195 265L308 265L251 578L195 265M254 752Q186 752 149 794.50Q112 837 106 909L185 925Q201 857 254 857Q281 857 298 874.50Q315 892 321 925L401 909Q395 837 358 794.50Q321 752 254 752Z"  horiz-adv-x="506" vert-adv-y="1000"  />

      
      <glyph glyph-name="uni1EAE" unicode="&#x1EAE;" d="M356 0L328 152L174 152L147 0L-9 0L159 693L347 693L515 0L356 0M195 265L308 265L251 578L195 265M253 737Q185 737 148 779.50Q111 822 105 894L184 910Q200 842 253 842Q280 842 297 859.50Q314 877 320 910L400 894Q394 822 357 779.50Q320 737 253 737M319 1121L407 1045L263 901L204 949L319 1121Z"  horiz-adv-x="506" vert-adv-y="1000"  />

      
      <glyph glyph-name="uni1EB6" unicode="&#x1EB6;" d="M356 0L328 152L174 152L147 0L-9 0L159 693L347 693L515 0L356 0M195 265L308 265L251 578L195 265M254 752Q186 752 149 794.50Q112 837 106 909L185 925Q201 857 254 857Q281 857 298 874.50Q315 892 321 925L401 909Q395 837 358 794.50Q321 752 254 752M253-235Q214-235 190.50-210.50Q167-186 167-148Q167-111 191-86.50Q215-62 253-62Q291-62 315-86.50Q339-111 339-148Q339-186 315-210.50Q291-235 253-235Z"  horiz-adv-x="506" vert-adv-y="1000"  />

      
      <glyph glyph-name="uni1EB0" unicode="&#x1EB0;" d="M356 0L328 152L174 152L147 0L-9 0L159 693L347 693L515 0L356 0M195 265L308 265L251 578L195 265M254 737Q186 737 149 779.50Q112 822 106 894L185 910Q201 842 254 842Q281 842 298 859.50Q315 877 321 910L401 894Q395 822 358 779.50Q321 737 254 737M195 1121L311 949L252 901L107 1045L195 1121Z"  horiz-adv-x="506" vert-adv-y="1000"  />

      
      <glyph glyph-name="uni1EB2" unicode="&#x1EB2;" d="M356 0L328 152L174 152L147 0L-9 0L159 693L347 693L515 0L356 0M195 265L308 265L251 578L195 265M254 737Q186 737 149 779.50Q112 822 106 894L185 910Q201 842 254 842Q281 842 298 859.50Q315 877 321 910L401 894Q395 822 358 779.50Q321 737 254 737M210 988Q242 990 255 998Q268 1006 268 1026Q268 1042 259.50 1050Q251 1058 237 1058Q223 1058 212 1055Q201 1052 187 1045L164 1109Q204 1134 258 1134Q309 1134 337 1106.50Q365 1079 365 1034Q365 996 347 972.50Q329 949 295 942L295 899L210 899L210 988Z"  horiz-adv-x="506" vert-adv-y="1000"  />

      
      <glyph glyph-name="uni1EB4" unicode="&#x1EB4;" d="M356 0L328 152L174 152L147 0L-9 0L159 693L347 693L515 0L356 0M195 265L308 265L251 578L195 265M252 737Q184 737 147 779.50Q110 822 104 894L183 910Q199 842 252 842Q279 842 296 859.50Q313 877 319 910L399 894Q393 822 356 779.50Q319 737 252 737M302 943Q283 943 269 949Q255 955 239 966Q216 981 204 981Q191 981 182 972Q173 963 161 942L91 973Q108 1020 136.50 1049Q165 1078 202 1078Q221 1078 234 1072Q247 1066 265 1055Q286 1039 301 1039Q314 1039 322.50 1048Q331 1057 342 1077L413 1047Q397 999 368 971Q339 943 302 943Z"  horiz-adv-x="506" vert-adv-y="1000"  />

      
      <glyph glyph-name="uni01CD" unicode="&#x01CD;" d="M356 0L328 152L174 152L147 0L-9 0L159 693L347 693L515 0L356 0M195 265L308 265L251 578L195 265M364 936L416 881L298 750L208 750L90 881L142 936L253 852L364 936Z"  horiz-adv-x="506" vert-adv-y="1000"  />

      
      <glyph glyph-name="unic2" unicode="&#xc2;" d="M356 0L328 152L174 152L147 0L-9 0L159 693L347 693L515 0L356 0M195 265L308 265L251 578L195 265M142 760L90 814L208 945L298 945L416 814L364 760L253 843L142 760Z"  horiz-adv-x="506" vert-adv-y="1000"  />

      
      <glyph glyph-name="uni1EA4" unicode="&#x1EA4;" d="M356 0L328 152L174 152L147 0L-9 0L159 693L347 693L515 0L356 0M195 265L308 265L251 578L195 265M142 726L90 780L208 911L298 911L416 780L364 726L253 809L142 726M453 1086L541 1010L397 866L338 914L453 1086Z"  horiz-adv-x="506" vert-adv-y="1000"  />

      
      <glyph glyph-name="uni1EAC" unicode="&#x1EAC;" d="M356 0L328 152L174 152L147 0L-9 0L159 693L347 693L515 0L356 0M195 265L308 265L251 578L195 265M142 760L90 814L208 945L298 945L416 814L364 760L253 843L142 760M253-235Q214-235 190.50-210.50Q167-186 167-148Q167-111 191-86.50Q215-62 253-62Q291-62 315-86.50Q339-111 339-148Q339-186 315-210.50Q291-235 253-235Z"  horiz-adv-x="506" vert-adv-y="1000"  />

      
      <glyph glyph-name="uni1EA6" unicode="&#x1EA6;" d="M356 0L328 152L174 152L147 0L-9 0L159 693L347 693L515 0L356 0M195 265L308 265L251 578L195 265M141 726L89 780L207 911L297 911L415 780L363 726L252 809L141 726M53 1086L169 914L110 866L-35 1010L53 1086Z"  horiz-adv-x="506" vert-adv-y="1000"  />

      
      <glyph glyph-name="uni1EA8" unicode="&#x1EA8;" d="M356 0L328 152L174 152L147 0L-9 0L159 693L347 693L515 0L356 0M195 265L308 265L251 578L195 265M142 726L90 780L208 911L298 911L416 780L364 726L253 809L142 726M359 942Q391 944 404 952Q417 960 417 980Q417 996 408.50 1004Q400 1012 386 1012Q372 1012 361 1009Q350 1006 336 999L313 1063Q353 1088 407 1088Q458 1088 486 1060.50Q514 1033 514 988Q514 950 496 926.50Q478 903 444 896L444 853L359 853L359 942Z"  horiz-adv-x="506" vert-adv-y="1000"  />

      
      <glyph glyph-name="uni1EAA" unicode="&#x1EAA;" d="M356 0L328 152L174 152L147 0L-9 0L159 693L347 693L515 0L356 0M195 265L308 265L251 578L195 265M141 726L89 780L207 911L297 911L415 780L363 726L252 809L141 726M302 944Q283 944 269 950Q255 956 239 967Q216 982 204 982Q191 982 182 973Q173 964 161 943L91 974Q108 1021 136.50 1050Q165 1079 202 1079Q221 1079 234 1073Q247 1067 265 1056Q286 1040 301 1040Q314 1040 322.50 1049Q331 1058 342 1078L413 1048Q397 1000 368 972Q339 944 302 944Z"  horiz-adv-x="506" vert-adv-y="1000"  />

      
      <glyph glyph-name="uni0200" unicode="&#x0200;" d="M356 0L328 152L174 152L147 0L-9 0L159 693L347 693L515 0L356 0M195 265L308 265L251 578L195 265M141 981L222 787L152 752L47 931L141 981M292 981L367 787L295 757L197 934L292 981Z"  horiz-adv-x="506" vert-adv-y="1000"  />

      
      <glyph glyph-name="unic4" unicode="&#xc4;" d="M356 0L328 152L174 152L147 0L-9 0L159 693L347 693L515 0L356 0M195 265L308 265L251 578L195 265M160 921Q192 921 213 899Q234 877 234 845Q234 812 213.50 790.50Q193 769 160 769Q128 769 106.50 791Q85 813 85 845Q85 877 106.50 899Q128 921 160 921M356 921Q388 921 409 899Q430 877 430 845Q430 812 409.50 790.50Q389 769 356 769Q325 769 303.50 791Q282 813 282 845Q282 877 303.50 899Q325 921 356 921Z"  horiz-adv-x="506" vert-adv-y="1000"  />

      
      <glyph glyph-name="uni01DE" unicode="&#x01DE;" d="M356 0L328 152L174 152L147 0L-9 0L159 693L347 693L515 0L356 0M195 265L308 265L251 578L195 265M156 898Q188 898 209 876Q230 854 230 822Q230 789 209.50 767.50Q189 746 156 746Q124 746 102.50 768Q81 790 81 822Q81 854 102.50 876Q124 898 156 898M352 898Q384 898 405 876Q426 854 426 822Q426 789 405.50 767.50Q385 746 352 746Q321 746 299.50 768Q278 790 278 822Q278 854 299.50 876Q321 898 352 898M384 943L124 943L124 1045L384 1045L384 943Z"  horiz-adv-x="506" vert-adv-y="1000"  />

      
      <glyph glyph-name="uni0226" unicode="&#x0226;" d="M356 0L328 152L174 152L147 0L-9 0L159 693L347 693L515 0L356 0M195 265L308 265L251 578L195 265M252 933Q291 933 314.50 908.50Q338 884 338 846Q338 809 314 784.50Q290 760 252 760Q214 760 190 784.50Q166 809 166 846Q166 884 190 908.50Q214 933 252 933Z"  horiz-adv-x="506" vert-adv-y="1000"  />

      
      <glyph glyph-name="uni1EA0" unicode="&#x1EA0;" d="M356 0L328 152L174 152L147 0L-9 0L159 693L347 693L515 0L356 0M195 265L308 265L251 578L195 265M253-235Q214-235 190.50-210.50Q167-186 167-148Q167-111 191-86.50Q215-62 253-62Q291-62 315-86.50Q339-111 339-148Q339-186 315-210.50Q291-235 253-235Z"  horiz-adv-x="506" vert-adv-y="1000"  />

      
      <glyph glyph-name="uni01E0" unicode="&#x01E0;" d="M356 0L328 152L174 152L147 0L-9 0L159 693L347 693L515 0L356 0M195 265L308 265L251 578L195 265M252 910Q291 910 314.50 885.50Q338 861 338 823Q338 786 314 761.50Q290 737 252 737Q214 737 190 761.50Q166 786 166 823Q166 861 190 885.50Q214 910 252 910M383 943L123 943L123 1045L383 1045L383 943Z"  horiz-adv-x="506" vert-adv-y="1000"  />

      
      <glyph glyph-name="unic0" unicode="&#xc0;" d="M356 0L328 152L174 152L147 0L-9 0L159 693L347 693L515 0L356 0M195 265L308 265L251 578L195 265M188 944L372 825L334 751L131 835L188 944Z"  horiz-adv-x="506" vert-adv-y="1000"  />

      
      <glyph glyph-name="uni1EA2" unicode="&#x1EA2;" d="M356 0L328 152L174 152L147 0L-9 0L159 693L347 693L515 0L356 0M195 265L308 265L251 578L195 265M210 853Q242 855 255 863Q268 871 268 891Q268 907 259.50 915Q251 923 237 923Q223 923 212 920Q201 917 187 910L164 974Q204 999 258 999Q309 999 337 971.50Q365 944 365 899Q365 861 347 837.50Q329 814 295 807L295 764L210 764L210 853Z"  horiz-adv-x="506" vert-adv-y="1000"  />

      
      <glyph glyph-name="uni0202" unicode="&#x0202;" d="M356 0L328 152L174 152L147 0L-9 0L159 693L347 693L515 0L356 0M195 265L308 265L251 578L195 265M254 948Q322 948 359 903.50Q396 859 401 780L321 765Q307 845 254 845Q201 845 185 765L106 780Q111 859 148.50 903.50Q186 948 254 948Z"  horiz-adv-x="506" vert-adv-y="1000"  />

      
      <glyph glyph-name="uni2C6D" unicode="&#x2C6D;" d="M525 155Q525 130 532.50 116.50Q540 103 559 95L516-16Q470-8 441.50 8Q413 24 395 50Q342-16 254-16Q150-16 89 72.50Q28 161 28 335Q28 457 57 541.50Q86 626 136 668Q186 710 250 710Q330 710 382 648L392 693L525 693L525 155M284 96Q333 96 368 137L368 552Q350 573 331 584Q312 595 286 595Q238 595 214.50 537.50Q191 480 191 335Q191 241 201.50 188.50Q212 136 232 116Q252 96 284 96Z"  horiz-adv-x="571" vert-adv-y="1000"  />

      
      <glyph glyph-name="uni0100" unicode="&#x0100;" d="M356 0L328 152L174 152L147 0L-9 0L159 693L347 693L515 0L356 0M195 265L308 265L251 578L195 265M383 784L123 784L123 886L383 886L383 784Z"  horiz-adv-x="506" vert-adv-y="1000"  />

      
      <glyph glyph-name="uni0104" unicode="&#x0104;" d="M432 0Q377-26 357-51Q337-76 337-104Q337-150 381-150Q404-150 429-143L420-236Q391-244 362-244Q304-244 267.50-214Q231-184 231-130Q231-78 262.50-41Q294-4 351 25L328 152L174 152L147 0L-9 0L159 693L347 693L515 0L432 0M195 265L308 265L251 578L195 265Z"  horiz-adv-x="506" vert-adv-y="1000"  />

      
      <glyph glyph-name="unic5" unicode="&#xc5;" d="M356 0L328 152L174 152L147 0L-9 0L159 693L347 693L515 0L356 0M195 265L308 265L251 578L195 265M254 990Q310 990 343 954.50Q376 919 376 862Q376 804 343 768Q310 732 254 732Q197 732 164.50 768Q132 804 132 862Q132 919 164.50 954.50Q197 990 254 990M254 915Q219 915 219 862Q219 833 228 820.50Q237 808 254 808Q290 808 290 862Q290 915 254 915Z"  horiz-adv-x="506" vert-adv-y="1000"  />

      
      <glyph glyph-name="uni01FA" unicode="&#x01FA;" d="M356 0L328 152L174 152L147 0L-9 0L159 693L347 693L515 0L356 0M195 265L308 265L251 578L195 265M251 978Q307 978 340 942.50Q373 907 373 850Q373 792 340 756Q307 720 251 720Q194 720 161.50 756Q129 792 129 850Q129 907 161.50 942.50Q194 978 251 978M251 903Q216 903 216 850Q216 821 225 808.50Q234 796 251 796Q287 796 287 850Q287 903 251 903M315 1180L372 1071L169 986L131 1060L315 1180Z"  horiz-adv-x="506" vert-adv-y="1000"  />

      
      <glyph glyph-name="uni023A" unicode="&#x023A;" d="M375 0L344 152L252 152L203-74L153-63L200 152L159 152L128 0L-9 0L159 693L317 693L330 755L381 744L359 643L515 0L375 0M181 258L222 258L273 493L251 601L181 258M275 258L322 258L299 368L275 258Z"  horiz-adv-x="506" vert-adv-y="1000"  />

      
      <glyph glyph-name="unic3" unicode="&#xc3;" d="M356 0L328 152L174 152L147 0L-9 0L159 693L347 693L515 0L356 0M195 265L308 265L251 578L195 265M304 768Q285 768 271.50 774.50Q258 781 241 792Q220 808 206 808Q193 808 184 798.50Q175 789 163 767L93 800Q109 850 138 880.50Q167 911 204 911Q222 911 235 905Q248 899 267 887Q278 878 286 874Q294 870 303 870Q316 870 324.50 879.50Q333 889 344 910L415 878Q399 827 370 797.50Q341 768 304 768Z"  horiz-adv-x="506" vert-adv-y="1000"  />

      
      <glyph glyph-name="unic6" unicode="&#xc6;" d="M494 114L685 114L685 0L362 0L344 152L185 152L146 0L-20 0L202 693L655 693L639 581L430 581L454 406L648 406L648 295L469 295L494 114M214 266L331 266L294 578L214 266Z"  horiz-adv-x="703" vert-adv-y="1000"  />

      
      <glyph glyph-name="uni01FC" unicode="&#x01FC;" d="M494 114L685 114L685 0L362 0L344 152L185 152L146 0L-20 0L202 693L655 693L639 581L430 581L454 406L648 406L648 295L469 295L494 114M214 266L331 266L294 578L214 266M464 945L521 836L318 751L280 825L464 945Z"  horiz-adv-x="703" vert-adv-y="1000"  />

      
      <glyph glyph-name="uni01E2" unicode="&#x01E2;" d="M494 114L685 114L685 0L362 0L344 152L185 152L146 0L-20 0L202 693L655 693L639 581L430 581L454 406L648 406L648 295L469 295L494 114M214 266L331 266L294 578L214 266M531 784L271 784L271 886L531 886L531 784Z"  horiz-adv-x="703" vert-adv-y="1000"  />

      
      <glyph glyph-name="uni42" unicode="&#x42;" d="M358 367Q422 352 460 313.50Q498 275 498 201Q498 97 428 48.50Q358 0 237 0L46 0L46 693L215 693Q338 693 406 648.50Q474 604 474 516Q474 457 442 419.50Q410 382 358 367M203 582L203 414L233 414Q278 414 297 436Q316 458 316 501Q316 541 295.50 561.50Q275 582 230 582L203 582M239 114Q288 114 313 136.50Q338 159 338 210Q338 260 315 284.50Q292 309 242 309L203 309L203 114L239 114Z"  horiz-adv-x="513" vert-adv-y="1000"  />

      
      <glyph glyph-name="uni1E02" unicode="&#x1E02;" d="M358 367Q422 352 460 313.50Q498 275 498 201Q498 97 428 48.50Q358 0 237 0L46 0L46 693L215 693Q338 693 406 648.50Q474 604 474 516Q474 457 442 419.50Q410 382 358 367M203 582L203 414L233 414Q278 414 297 436Q316 458 316 501Q316 541 295.50 561.50Q275 582 230 582L203 582M239 114Q288 114 313 136.50Q338 159 338 210Q338 260 315 284.50Q292 309 242 309L203 309L203 114L239 114M244 933Q283 933 306.50 908.50Q330 884 330 846Q330 809 306 784.50Q282 760 244 760Q206 760 182 784.50Q158 809 158 846Q158 884 182 908.50Q206 933 244 933Z"  horiz-adv-x="513" vert-adv-y="1000"  />

      
      <glyph glyph-name="uni1E04" unicode="&#x1E04;" d="M358 367Q422 352 460 313.50Q498 275 498 201Q498 97 428 48.50Q358 0 237 0L46 0L46 693L215 693Q338 693 406 648.50Q474 604 474 516Q474 457 442 419.50Q410 382 358 367M203 582L203 414L233 414Q278 414 297 436Q316 458 316 501Q316 541 295.50 561.50Q275 582 230 582L203 582M239 114Q288 114 313 136.50Q338 159 338 210Q338 260 315 284.50Q292 309 242 309L203 309L203 114L239 114M260-235Q221-235 197.50-210.50Q174-186 174-148Q174-111 198-86.50Q222-62 260-62Q298-62 322-86.50Q346-111 346-148Q346-186 322-210.50Q298-235 260-235Z"  horiz-adv-x="513" vert-adv-y="1000"  />

      
      <glyph glyph-name="uniA7B4" unicode="&#xA7B4;" d="M358 367Q422 352 460 314Q498 276 498 203Q498 134 466.50 88Q435 42 385 21Q335 0 277 0Q235 0 203 7L203-210L46-210L46 693L218 693Q341 693 407.50 648Q474 603 474 515Q474 457 442 419.50Q410 382 358 367M248 114Q338 114 338 215Q338 265 318 287Q298 309 255 309L240 309L248 414L255 414Q316 414 316 498Q316 541 296 561.50Q276 582 232 582L203 582L203 117Q224 114 248 114Z"  horiz-adv-x="513" vert-adv-y="1000"  />

      
      <glyph glyph-name="uni0181" unicode="&#x0181;" d="M489 367Q553 352 591 313.50Q629 275 629 201Q629 97 559 48.50Q489 0 368 0L177 0L177 581L159 581Q121 581 121 539Q121 506 139 470L43 428Q24 456 13.50 486Q3 516 3 554Q3 618 45 655.50Q87 693 166 693L346 693Q469 693 537 648.50Q605 604 605 516Q605 457 573 419.50Q541 382 489 367M334 582L334 414L364 414Q409 414 428 436Q447 458 447 501Q447 541 426.50 561.50Q406 582 361 582L334 582M370 114Q419 114 444 136.50Q469 159 469 210Q469 260 446 284.50Q423 309 373 309L334 309L334 114L370 114Z"  horiz-adv-x="644" vert-adv-y="1000"  />

      
      <glyph glyph-name="uni0243" unicode="&#x0243;" d="M370 367Q434 352 472 313.50Q510 275 510 201Q510 97 440 48.50Q370 0 249 0L58 0L58 176L14 176L14 252L58 252L58 693L227 693Q350 693 418 648.50Q486 604 486 516Q486 457 454 419.50Q422 382 370 367M215 582L215 414L245 414Q290 414 309 436Q328 458 328 501Q328 541 307.50 561.50Q287 582 242 582L215 582M251 114Q300 114 325 136.50Q350 159 350 210Q350 260 327 284.50Q304 309 254 309L215 309L215 252L291 252L291 176L215 176L215 114L251 114Z"  horiz-adv-x="525" vert-adv-y="1000"  />

      
      <glyph glyph-name="uni0182" unicode="&#x0182;" d="M254 444Q369 444 429 390Q489 336 489 228Q489 113 426 56.50Q363 0 247 0L46 0L46 693L420 693L405 574L203 574L203 444L254 444M240 114Q286 114 305.50 140.50Q325 167 325 227Q325 282 305 308.50Q285 335 238 335L203 335L203 114L240 114Z"  horiz-adv-x="501" vert-adv-y="1000"  />

      
      <glyph glyph-name="uni43" unicode="&#x43;" d="M293 710Q348 710 392.50 691Q437 672 476 634L403 548Q378 570 354.50 581.50Q331 593 304 593Q249 593 220 536.50Q191 480 191 348Q191 219 220.50 162Q250 105 305 105Q335 105 357 117Q379 129 411 155L482 71Q446 32 398 7.50Q350-17 291-17Q171-17 99.50 75Q28 167 28 348Q28 467 61.50 548Q95 629 155 669.50Q215 710 293 710Z"  horiz-adv-x="484" vert-adv-y="1000"  />

      
      <glyph glyph-name="uni0106" unicode="&#x0106;" d="M293 710Q348 710 392.50 691Q437 672 476 634L403 548Q378 570 354.50 581.50Q331 593 304 593Q249 593 220 536.50Q191 480 191 348Q191 219 220.50 162Q250 105 305 105Q335 105 357 117Q379 129 411 155L482 71Q446 32 398 7.50Q350-17 291-17Q171-17 99.50 75Q28 167 28 348Q28 467 61.50 548Q95 629 155 669.50Q215 710 293 710M363 945L420 836L217 751L179 825L363 945Z"  horiz-adv-x="484" vert-adv-y="1000"  />

      
      <glyph glyph-name="uni010C" unicode="&#x010C;" d="M293 710Q348 710 392.50 691Q437 672 476 634L403 548Q378 570 354.50 581.50Q331 593 304 593Q249 593 220 536.50Q191 480 191 348Q191 219 220.50 162Q250 105 305 105Q335 105 357 117Q379 129 411 155L482 71Q446 32 398 7.50Q350-17 291-17Q171-17 99.50 75Q28 167 28 348Q28 467 61.50 548Q95 629 155 669.50Q215 710 293 710M411 936L463 881L345 750L255 750L137 881L189 936L300 852L411 936Z"  horiz-adv-x="484" vert-adv-y="1000"  />

      
      <glyph glyph-name="unic7" unicode="&#xc7;" d="M482 71Q453 38 413 15Q373-8 325-15L325-53Q412-67 412-148Q412-198 378-228.50Q344-259 283-259Q225-259 184-230L218-164Q244-177 272-177Q307-177 307-146Q307-127 289-119Q271-111 231-111L241-13Q142 6 85 97Q28 188 28 348Q28 467 61.50 548Q95 629 155 669.50Q215 710 293 710Q348 710 392.50 691Q437 672 476 634L403 548Q378 570 354.50 581.50Q331 593 304 593Q249 593 220 536.50Q191 480 191 348Q191 219 220.50 162Q250 105 305 105Q335 105 357 117Q379 129 411 155L482 71Z"  horiz-adv-x="484" vert-adv-y="1000"  />

      
      <glyph glyph-name="uni0108" unicode="&#x0108;" d="M293 710Q348 710 392.50 691Q437 672 476 634L403 548Q378 570 354.50 581.50Q331 593 304 593Q249 593 220 536.50Q191 480 191 348Q191 219 220.50 162Q250 105 305 105Q335 105 357 117Q379 129 411 155L482 71Q446 32 398 7.50Q350-17 291-17Q171-17 99.50 75Q28 167 28 348Q28 467 61.50 548Q95 629 155 669.50Q215 710 293 710M189 760L137 814L255 945L345 945L463 814L411 760L300 843L189 760Z"  horiz-adv-x="484" vert-adv-y="1000"  />

      
      <glyph glyph-name="uni010A" unicode="&#x010A;" d="M293 710Q348 710 392.50 691Q437 672 476 634L403 548Q378 570 354.50 581.50Q331 593 304 593Q249 593 220 536.50Q191 480 191 348Q191 219 220.50 162Q250 105 305 105Q335 105 357 117Q379 129 411 155L482 71Q446 32 398 7.50Q350-17 291-17Q171-17 99.50 75Q28 167 28 348Q28 467 61.50 548Q95 629 155 669.50Q215 710 293 710M299 933Q338 933 361.50 908.50Q385 884 385 846Q385 809 361 784.50Q337 760 299 760Q261 760 237 784.50Q213 809 213 846Q213 884 237 908.50Q261 933 299 933Z"  horiz-adv-x="484" vert-adv-y="1000"  />

      
      <glyph glyph-name="uniA7B3" unicode="&#xA7B3;" d="M332 297L489-158L322-158L237 192L156-158L-7-158L143 291L4 693L171 693L239 390L313 693L475 693L332 297Z"  horiz-adv-x="482" vert-adv-y="1000"  />

      
      <glyph glyph-name="uni0187" unicode="&#x0187;" d="M490 851Q553 851 608 814L566 724Q550 732 539 735.50Q528 739 514 739Q494 739 485 727.50Q476 716 476 688L476 634L407 553Q380 573 355.50 583Q331 593 304 593Q249 593 220 536.50Q191 480 191 348Q191 219 220.50 162Q250 105 305 105Q335 105 357 117Q379 129 411 155L482 71Q446 32 398 7.50Q350-17 291-17Q171-17 99.50 75Q28 167 28 348Q28 465 61.50 547Q95 629 151 669.50Q207 710 276 710Q313 710 346 695L346 702Q346 772 385 811.50Q424 851 490 851Z"  horiz-adv-x="484" vert-adv-y="1000"  />

      
      <glyph glyph-name="uni023B" unicode="&#x023B;" d="M482 71Q446 32 398 7.50Q350-17 291-17Q260-17 233-11L219-74L166-63L181 7Q109 42 68.50 128Q28 214 28 348Q28 467 61.50 548Q95 629 155 669.50Q215 710 293 710Q314 710 334 707L344 755L396 744L385 694Q430 677 476 634L403 548Q378 569 360 579L260 116Q279 105 305 105Q335 105 357 117Q379 129 411 155L482 71M191 348Q191 228 217 170L309 593L304 593Q249 593 220 536.50Q191 480 191 348Z"  horiz-adv-x="484" vert-adv-y="1000"  />

      
      <glyph glyph-name="uni44" unicode="&#x44;" d="M221 693Q311 693 375.50 666.50Q440 640 480.50 564.50Q521 489 521 350Q521 155 442.50 77.50Q364 0 232 0L46 0L46 693L221 693M203 580L203 114L241 114Q281 114 306.50 134.50Q332 155 346 206.50Q360 258 360 350Q360 443 345.50 493Q331 543 305.50 561.50Q280 580 241 580L203 580Z"  horiz-adv-x="549" vert-adv-y="1000"  />

      
      <glyph glyph-name="uni01F1" unicode="&#x01F1;" d="M221 693Q311 693 375.50 666.50Q440 640 480.50 564.50Q521 489 521 350Q521 155 442.50 77.50Q364 0 232 0L46 0L46 693L221 693M203 580L203 114L241 114Q281 114 306.50 134.50Q332 155 346 206.50Q360 258 360 350Q360 443 345.50 493Q331 543 305.50 561.50Q280 580 241 580L203 580M956 693L956 574L705 126L961 126L946 0L534 0L534 117L784 571L558 571L558 693L956 693Z"  horiz-adv-x="974" vert-adv-y="1000"  />

      
      <glyph glyph-name="uni01C4" unicode="&#x01C4;" d="M221 693Q311 693 375.50 666.50Q440 640 480.50 564.50Q521 489 521 350Q521 155 442.50 77.50Q364 0 232 0L46 0L46 693L221 693M203 580L203 114L241 114Q281 114 306.50 134.50Q332 155 346 206.50Q360 258 360 350Q360 443 345.50 493Q331 543 305.50 561.50Q280 580 241 580L203 580M956 693L956 574L705 126L961 126L946 0L534 0L534 117L784 571L558 571L558 693L956 693M863 936L915 881L797 750L707 750L589 881L641 936L752 852L863 936Z"  horiz-adv-x="974" vert-adv-y="1000"  />

      
      <glyph glyph-name="uni0189" unicode="&#x0189;" d="M238 693Q328 693 392.50 666.50Q457 640 497.50 564.50Q538 489 538 350Q538 155 459.50 77.50Q381 0 249 0L63 0L63 305L14 305L14 401L63 401L63 693L238 693M258 114Q298 114 323.50 134.50Q349 155 363 206.50Q377 258 377 350Q377 443 362.50 493Q348 543 322.50 561.50Q297 580 258 580L220 580L220 401L305 401L305 305L220 305L220 114L258 114Z"  horiz-adv-x="566" vert-adv-y="1000"  />

      
      <glyph glyph-name="unid0" unicode="&#xd0;" d="M238 693Q328 693 392.50 666.50Q457 640 497.50 564.50Q538 489 538 350Q538 155 459.50 77.50Q381 0 249 0L63 0L63 305L14 305L14 401L63 401L63 693L238 693M258 114Q298 114 323.50 134.50Q349 155 363 206.50Q377 258 377 350Q377 443 362.50 493Q348 543 322.50 561.50Q297 580 258 580L220 580L220 401L305 401L305 305L220 305L220 114L258 114Z"  horiz-adv-x="566" vert-adv-y="1000"  />

      
      <glyph glyph-name="uni010E" unicode="&#x010E;" d="M221 693Q311 693 375.50 666.50Q440 640 480.50 564.50Q521 489 521 350Q521 155 442.50 77.50Q364 0 232 0L46 0L46 693L221 693M203 580L203 114L241 114Q281 114 306.50 134.50Q332 155 346 206.50Q360 258 360 350Q360 443 345.50 493Q331 543 305.50 561.50Q280 580 241 580L203 580M356 936L408 881L290 750L200 750L82 881L134 936L245 852L356 936Z"  horiz-adv-x="549" vert-adv-y="1000"  />

      
      <glyph glyph-name="uni1E12" unicode="&#x1E12;" d="M221 693Q311 693 375.50 666.50Q440 640 480.50 564.50Q521 489 521 350Q521 155 442.50 77.50Q364 0 232 0L46 0L46 693L221 693M203 580L203 114L241 114Q281 114 306.50 134.50Q332 155 346 206.50Q360 258 360 350Q360 443 345.50 493Q331 543 305.50 561.50Q280 580 241 580L203 580M145-257L93-203L211-64L301-64L419-203L367-257L256-166L145-257Z"  horiz-adv-x="549" vert-adv-y="1000"  />

      
      <glyph glyph-name="uni0110" unicode="&#x0110;" d="M238 693Q328 693 392.50 666.50Q457 640 497.50 564.50Q538 489 538 350Q538 155 459.50 77.50Q381 0 249 0L63 0L63 305L14 305L14 401L63 401L63 693L238 693M258 114Q298 114 323.50 134.50Q349 155 363 206.50Q377 258 377 350Q377 443 362.50 493Q348 543 322.50 561.50Q297 580 258 580L220 580L220 401L305 401L305 305L220 305L220 114L258 114Z"  horiz-adv-x="566" vert-adv-y="1000"  />

      
      <glyph glyph-name="uni1E0A" unicode="&#x1E0A;" d="M221 693Q311 693 375.50 666.50Q440 640 480.50 564.50Q521 489 521 350Q521 155 442.50 77.50Q364 0 232 0L46 0L46 693L221 693M203 580L203 114L241 114Q281 114 306.50 134.50Q332 155 346 206.50Q360 258 360 350Q360 443 345.50 493Q331 543 305.50 561.50Q280 580 241 580L203 580M244 933Q283 933 306.50 908.50Q330 884 330 846Q330 809 306 784.50Q282 760 244 760Q206 760 182 784.50Q158 809 158 846Q158 884 182 908.50Q206 933 244 933Z"  horiz-adv-x="549" vert-adv-y="1000"  />

      
      <glyph glyph-name="uni1E0C" unicode="&#x1E0C;" d="M221 693Q311 693 375.50 666.50Q440 640 480.50 564.50Q521 489 521 350Q521 155 442.50 77.50Q364 0 232 0L46 0L46 693L221 693M203 580L203 114L241 114Q281 114 306.50 134.50Q332 155 346 206.50Q360 258 360 350Q360 443 345.50 493Q331 543 305.50 561.50Q280 580 241 580L203 580M258-235Q219-235 195.50-210.50Q172-186 172-148Q172-111 196-86.50Q220-62 258-62Q296-62 320-86.50Q344-111 344-148Q344-186 320-210.50Q296-235 258-235Z"  horiz-adv-x="549" vert-adv-y="1000"  />

      
      <glyph glyph-name="uni018A" unicode="&#x018A;" d="M352 693Q442 693 506.50 666.50Q571 640 611.50 564.50Q652 489 652 350Q652 155 573.50 77.50Q495 0 363 0L177 0L177 581L159 581Q121 581 121 539Q121 506 139 470L43 428Q24 456 13.50 486Q3 516 3 554Q3 618 45 655.50Q87 693 166 693L352 693M372 114Q412 114 437.50 134.50Q463 155 477 206.50Q491 258 491 350Q491 443 476.50 493Q462 543 436.50 561.50Q411 580 372 580L334 580L334 114L372 114Z"  horiz-adv-x="680" vert-adv-y="1000"  />

      
      <glyph glyph-name="uni1E0E" unicode="&#x1E0E;" d="M221 693Q311 693 375.50 666.50Q440 640 480.50 564.50Q521 489 521 350Q521 155 442.50 77.50Q364 0 232 0L46 0L46 693L221 693M203 580L203 114L241 114Q281 114 306.50 134.50Q332 155 346 206.50Q360 258 360 350Q360 443 345.50 493Q331 543 305.50 561.50Q280 580 241 580L203 580M389-187L129-187L129-85L389-85L389-187Z"  horiz-adv-x="549" vert-adv-y="1000"  />

      
      <glyph glyph-name="uni018B" unicode="&#x018B;" d="M455 0L260 0Q13 0 13 223Q13 331 74.50 387.50Q136 444 253 444L298 444L298 574L87 574L87 693L455 693L455 0M298 114L298 335L270 335Q219 335 197.50 308.50Q176 282 176 223Q176 164 197 139Q218 114 267 114L298 114Z"  horiz-adv-x="501" vert-adv-y="1000"  />

      
      <glyph glyph-name="uni01F2" unicode="&#x01F2;" d="M221 693Q311 693 375.50 666.50Q440 640 480.50 564.50Q521 489 521 350Q521 155 442.50 77.50Q364 0 232 0L46 0L46 693L221 693M203 580L203 114L241 114Q281 114 306.50 134.50Q332 155 346 206.50Q360 258 360 350Q360 443 345.50 493Q331 543 305.50 561.50Q280 580 241 580L203 580M910 531L910 424L712 115L914 115L902 0L548 0L548 107L746 417L565 417L565 531L910 531Z"  horiz-adv-x="924" vert-adv-y="1000"  />

      
      <glyph glyph-name="uni01C5" unicode="&#x01C5;" d="M221 693Q311 693 375.50 666.50Q440 640 480.50 564.50Q521 489 521 350Q521 155 442.50 77.50Q364 0 232 0L46 0L46 693L221 693M203 580L203 114L241 114Q281 114 306.50 134.50Q332 155 346 206.50Q360 258 360 350Q360 443 345.50 493Q331 543 305.50 561.50Q280 580 241 580L203 580M910 531L910 424L712 115L914 115L902 0L548 0L548 107L746 417L565 417L565 531L910 531M848 807L900 752L782 613L692 613L574 752L626 807L737 714L848 807Z"  horiz-adv-x="924" vert-adv-y="1000"  />

      
      <glyph glyph-name="uni45" unicode="&#x45;" d="M412 693L396 581L203 581L203 407L373 407L373 297L203 297L203 114L409 114L409 0L46 0L46 693L412 693Z"  horiz-adv-x="432" vert-adv-y="1000"  />

      
      <glyph glyph-name="unic9" unicode="&#xc9;" d="M412 693L396 581L203 581L203 407L373 407L373 297L203 297L203 114L409 114L409 0L46 0L46 693L412 693M293 945L350 836L147 751L109 825L293 945Z"  horiz-adv-x="432" vert-adv-y="1000"  />

      
      <glyph glyph-name="uni0114" unicode="&#x0114;" d="M412 693L396 581L203 581L203 407L373 407L373 297L203 297L203 114L409 114L409 0L46 0L46 693L412 693M231 752Q163 752 126 794.50Q89 837 83 909L162 925Q178 857 231 857Q258 857 275 874.50Q292 892 298 925L378 909Q372 837 335 794.50Q298 752 231 752Z"  horiz-adv-x="432" vert-adv-y="1000"  />

      
      <glyph glyph-name="uni011A" unicode="&#x011A;" d="M412 693L396 581L203 581L203 407L373 407L373 297L203 297L203 114L409 114L409 0L46 0L46 693L412 693M341 936L393 881L275 750L185 750L67 881L119 936L230 852L341 936Z"  horiz-adv-x="432" vert-adv-y="1000"  />

      
      <glyph glyph-name="uni0228" unicode="&#x0228;" d="M203 114L409 114L409 0L265 0L265-53Q352-67 352-148Q352-198 318-228.50Q284-259 223-259Q165-259 124-230L158-164Q184-177 212-177Q247-177 247-146Q247-127 229-119Q211-111 171-111L182 0L46 0L46 693L412 693L396 581L203 581L203 407L373 407L373 297L203 297L203 114Z"  horiz-adv-x="432" vert-adv-y="1000"  />

      
      <glyph glyph-name="unica" unicode="&#xca;" d="M412 693L396 581L203 581L203 407L373 407L373 297L203 297L203 114L409 114L409 0L46 0L46 693L412 693M119 760L67 814L185 945L275 945L393 814L341 760L230 843L119 760Z"  horiz-adv-x="432" vert-adv-y="1000"  />

      
      <glyph glyph-name="uni1EBE" unicode="&#x1EBE;" d="M412 693L396 581L203 581L203 407L373 407L373 297L203 297L203 114L409 114L409 0L46 0L46 693L412 693M119 726L67 780L185 911L275 911L393 780L341 726L230 809L119 726M430 1086L518 1010L374 866L315 914L430 1086Z"  horiz-adv-x="432" vert-adv-y="1000"  />

      
      <glyph glyph-name="uni1EC6" unicode="&#x1EC6;" d="M412 693L396 581L203 581L203 407L373 407L373 297L203 297L203 114L409 114L409 0L46 0L46 693L412 693M119 760L67 814L185 945L275 945L393 814L341 760L230 843L119 760M227-235Q188-235 164.50-210.50Q141-186 141-148Q141-111 165-86.50Q189-62 227-62Q265-62 289-86.50Q313-111 313-148Q313-186 289-210.50Q265-235 227-235Z"  horiz-adv-x="432" vert-adv-y="1000"  />

      
      <glyph glyph-name="uni1EC0" unicode="&#x1EC0;" d="M412 693L396 581L203 581L203 407L373 407L373 297L203 297L203 114L409 114L409 0L46 0L46 693L412 693M118 726L66 780L184 911L274 911L392 780L340 726L229 809L118 726M30 1086L146 914L87 866L-58 1010L30 1086Z"  horiz-adv-x="432" vert-adv-y="1000"  />

      
      <glyph glyph-name="uni1EC2" unicode="&#x1EC2;" d="M412 693L396 581L203 581L203 407L373 407L373 297L203 297L203 114L409 114L409 0L46 0L46 693L412 693M119 726L67 780L185 911L275 911L393 780L341 726L230 809L119 726M336 942Q368 944 381 952Q394 960 394 980Q394 996 385.50 1004Q377 1012 363 1012Q349 1012 338 1009Q327 1006 313 999L290 1063Q330 1088 384 1088Q435 1088 463 1060.50Q491 1033 491 988Q491 950 473 926.50Q455 903 421 896L421 853L336 853L336 942Z"  horiz-adv-x="432" vert-adv-y="1000"  />

      
      <glyph glyph-name="uni1EC4" unicode="&#x1EC4;" d="M412 693L396 581L203 581L203 407L373 407L373 297L203 297L203 114L409 114L409 0L46 0L46 693L412 693M118 726L66 780L184 911L274 911L392 780L340 726L229 809L118 726M279 944Q260 944 246 950Q232 956 216 967Q193 982 181 982Q168 982 159 973Q150 964 138 943L68 974Q85 1021 113.50 1050Q142 1079 179 1079Q198 1079 211 1073Q224 1067 242 1056Q263 1040 278 1040Q291 1040 299.50 1049Q308 1058 319 1078L390 1048Q374 1000 345 972Q316 944 279 944Z"  horiz-adv-x="432" vert-adv-y="1000"  />

      
      <glyph glyph-name="uni0204" unicode="&#x0204;" d="M412 693L396 581L203 581L203 407L373 407L373 297L203 297L203 114L409 114L409 0L46 0L46 693L412 693M118 981L199 787L129 752L24 931L118 981M269 981L344 787L272 757L174 934L269 981Z"  horiz-adv-x="432" vert-adv-y="1000"  />

      
      <glyph glyph-name="unicb" unicode="&#xcb;" d="M412 693L396 581L203 581L203 407L373 407L373 297L203 297L203 114L409 114L409 0L46 0L46 693L412 693M137 921Q169 921 190 899Q211 877 211 845Q211 812 190.50 790.50Q170 769 137 769Q105 769 83.50 791Q62 813 62 845Q62 877 83.50 899Q105 921 137 921M333 921Q365 921 386 899Q407 877 407 845Q407 812 386.50 790.50Q366 769 333 769Q302 769 280.50 791Q259 813 259 845Q259 877 280.50 899Q302 921 333 921Z"  horiz-adv-x="432" vert-adv-y="1000"  />

      
      <glyph glyph-name="uni0116" unicode="&#x0116;" d="M412 693L396 581L203 581L203 407L373 407L373 297L203 297L203 114L409 114L409 0L46 0L46 693L412 693M229 933Q268 933 291.50 908.50Q315 884 315 846Q315 809 291 784.50Q267 760 229 760Q191 760 167 784.50Q143 809 143 846Q143 884 167 908.50Q191 933 229 933Z"  horiz-adv-x="432" vert-adv-y="1000"  />

      
      <glyph glyph-name="uni1EB8" unicode="&#x1EB8;" d="M412 693L396 581L203 581L203 407L373 407L373 297L203 297L203 114L409 114L409 0L46 0L46 693L412 693M227-235Q188-235 164.50-210.50Q141-186 141-148Q141-111 165-86.50Q189-62 227-62Q265-62 289-86.50Q313-111 313-148Q313-186 289-210.50Q265-235 227-235Z"  horiz-adv-x="432" vert-adv-y="1000"  />

      
      <glyph glyph-name="unic8" unicode="&#xc8;" d="M412 693L396 581L203 581L203 407L373 407L373 297L203 297L203 114L409 114L409 0L46 0L46 693L412 693M165 944L349 825L311 751L108 835L165 944Z"  horiz-adv-x="432" vert-adv-y="1000"  />

      
      <glyph glyph-name="uni1EBA" unicode="&#x1EBA;" d="M412 693L396 581L203 581L203 407L373 407L373 297L203 297L203 114L409 114L409 0L46 0L46 693L412 693M187 853Q219 855 232 863Q245 871 245 891Q245 907 236.50 915Q228 923 214 923Q200 923 189 920Q178 917 164 910L141 974Q181 999 235 999Q286 999 314 971.50Q342 944 342 899Q342 861 324 837.50Q306 814 272 807L272 764L187 764L187 853Z"  horiz-adv-x="432" vert-adv-y="1000"  />

      
      <glyph glyph-name="uni0206" unicode="&#x0206;" d="M412 693L396 581L203 581L203 407L373 407L373 297L203 297L203 114L409 114L409 0L46 0L46 693L412 693M231 948Q299 948 336 903.50Q373 859 378 780L298 765Q284 845 231 845Q178 845 162 765L83 780Q88 859 125.50 903.50Q163 948 231 948Z"  horiz-adv-x="432" vert-adv-y="1000"  />

      
      <glyph glyph-name="uni0112" unicode="&#x0112;" d="M412 693L396 581L203 581L203 407L373 407L373 297L203 297L203 114L409 114L409 0L46 0L46 693L412 693M360 784L100 784L100 886L360 886L360 784Z"  horiz-adv-x="432" vert-adv-y="1000"  />

      
      <glyph glyph-name="uni0118" unicode="&#x0118;" d="M203 114L409 114L409 0L377 0Q322-26 302-51Q282-76 282-104Q282-150 326-150Q349-150 374-143L365-236Q336-244 307-244Q249-244 212.50-214Q176-184 176-130Q176-52 253 0L46 0L46 693L412 693L396 581L203 581L203 407L373 407L373 297L203 297L203 114Z"  horiz-adv-x="432" vert-adv-y="1000"  />

      
      <glyph glyph-name="uni0190" unicode="&#x0190;" d="M242 710Q301 710 348.50 687Q396 664 437 619L366 542Q310 596 262 596Q226 596 209 572.50Q192 549 192 511Q192 468 213 445Q234 422 275 422L333 422L315 308L272 308Q179 308 179 205Q179 152 201 126Q223 100 264 100Q295 100 320.50 114Q346 128 375 157L456 80Q417 32 366.50 8Q316-16 247-16Q179-16 126.50 9.50Q74 35 44.50 82.50Q15 130 15 195Q15 272 54 315Q93 358 165 368Q97 383 64.50 424Q32 465 32 527Q32 579 58.50 621Q85 663 133 686.50Q181 710 242 710Z"  horiz-adv-x="451" vert-adv-y="1000"  />

      
      <glyph glyph-name="uni018E" unicode="&#x018E;" d="M27 693L386 693L386 0L23 0L23 114L228 114L228 297L59 297L59 407L228 407L228 581L27 581L27 693Z"  horiz-adv-x="432" vert-adv-y="1000"  />

      
      <glyph glyph-name="uni01A9" unicode="&#x01A9;" d="M401 693L401 579L169 579L311 374L311 309L165 117L401 117L401 0L11 0L11 114L177 340L11 579L11 693L401 693Z"  horiz-adv-x="413" vert-adv-y="1000"  />

      
      <glyph glyph-name="uni0246" unicode="&#x0246;" d="M296 297L260 114L409 114L409 0L237 0L222-74L170-63L183 0L46 0L46 693L322 693L335 755L386 745L376 693L412 693L396 581L353 581L318 407L373 407L373 297L296 297M203 581L203 407L265 407L300 581L203 581M203 114L206 114L243 297L203 297L203 114Z"  horiz-adv-x="432" vert-adv-y="1000"  />

      
      <glyph glyph-name="uni1EBC" unicode="&#x1EBC;" d="M412 693L396 581L203 581L203 407L373 407L373 297L203 297L203 114L409 114L409 0L46 0L46 693L412 693M281 768Q262 768 248.50 774.50Q235 781 218 792Q197 808 183 808Q170 808 161 798.50Q152 789 140 767L70 800Q86 850 115 880.50Q144 911 181 911Q199 911 212 905Q225 899 244 887Q255 878 263 874Q271 870 280 870Q293 870 301.50 879.50Q310 889 321 910L392 878Q376 827 347 797.50Q318 768 281 768Z"  horiz-adv-x="432" vert-adv-y="1000"  />

      
      <glyph glyph-name="uni01B7" unicode="&#x01B7;" d="M257 401Q348 396 394.50 346Q441 296 441 204Q441 140 413.50 90.50Q386 41 333 12.50Q280-16 207-16Q136-16 86 9.50Q36 35 0 85L83 156Q111 126 136 113Q161 100 194 100Q235 100 257.50 128.50Q280 157 280 211Q280 264 256 287Q232 310 182 310L103 310L103 399L251 579L36 579L36 693L409 693L409 582L257 401Z"  horiz-adv-x="454" vert-adv-y="1000"  />

      
      <glyph glyph-name="uni01EE" unicode="&#x01EE;" d="M257 401Q348 396 394.50 346Q441 296 441 204Q441 140 413.50 90.50Q386 41 333 12.50Q280-16 207-16Q136-16 86 9.50Q36 35 0 85L83 156Q111 126 136 113Q161 100 194 100Q235 100 257.50 128.50Q280 157 280 211Q280 264 256 287Q232 310 182 310L103 310L103 399L251 579L36 579L36 693L409 693L409 582L257 401M333 936L385 881L267 750L177 750L59 881L111 936L222 852L333 936Z"  horiz-adv-x="454" vert-adv-y="1000"  />

      
      <glyph glyph-name="uni01B8" unicode="&#x01B8;" d="M454 85Q378-16 246-16Q173-16 120.50 12Q68 40 40.50 89.50Q13 139 13 202Q13 388 198 401L45 582L45 693L418 693L418 579L203 579L351 399L351 310L272 310Q222 310 198 285.50Q174 261 174 206Q174 153 195.50 126.50Q217 100 258 100Q291 100 316 113Q341 126 371 156L454 85Z"  horiz-adv-x="454" vert-adv-y="1000"  />

      
      <glyph glyph-name="uni46" unicode="&#x46;" d="M46 0L46 693L400 693L384 581L203 581L203 391L362 391L362 278L203 278L203 0L46 0Z"  horiz-adv-x="404" vert-adv-y="1000"  />

      
      <glyph glyph-name="uni1E1E" unicode="&#x1E1E;" d="M46 0L46 693L400 693L384 581L203 581L203 391L362 391L362 278L203 278L203 0L46 0M231 933Q270 933 293.50 908.50Q317 884 317 846Q317 809 293 784.50Q269 760 231 760Q193 760 169 784.50Q145 809 145 846Q145 884 169 908.50Q193 933 231 933Z"  horiz-adv-x="404" vert-adv-y="1000"  />

      
      <glyph glyph-name="uni0191" unicode="&#x0191;" d="M203 581L203 391L362 391L362 278L203 278L203 1L204 1L204-48Q204-133 155.50-177Q107-221 26-221Q-48-221-101-179L-49-90Q-34-99-22-102.50Q-10-106 6-106Q47-106 47-57L47 0L46 0L46 693L400 693L384 581L203 581Z"  horiz-adv-x="404" vert-adv-y="1000"  />

      
      <glyph glyph-name="uni47" unicode="&#x47;" d="M311 710Q424 710 508 626L433 547Q402 573 376.50 584.50Q351 596 318 596Q254 596 222 541Q190 486 190 347Q190 249 201 195Q212 141 234 120Q256 99 292 99Q329 99 361 120L361 286L295 286L280 397L509 397L509 55Q464 22 407 3Q350-16 295-16Q158-16 93 72Q28 160 28 347Q28 468 64.50 549.50Q101 631 165 670.50Q229 710 311 710Z"  horiz-adv-x="545" vert-adv-y="1000"  />

      
      <glyph glyph-name="uni01F4" unicode="&#x01F4;" d="M311 710Q424 710 508 626L433 547Q402 573 376.50 584.50Q351 596 318 596Q254 596 222 541Q190 486 190 347Q190 249 201 195Q212 141 234 120Q256 99 292 99Q329 99 361 120L361 286L295 286L280 397L509 397L509 55Q464 22 407 3Q350-16 295-16Q158-16 93 72Q28 160 28 347Q28 468 64.50 549.50Q101 631 165 670.50Q229 710 311 710M358 945L415 836L212 751L174 825L358 945Z"  horiz-adv-x="545" vert-adv-y="1000"  />

      
      <glyph glyph-name="uni0194" unicode="&#x0194;" d="M324 90Q354 33 367-10Q380-53 380-99Q380-221 247-221Q113-221 113-99Q113-60 126-17.50Q139 25 170 90L-9 693L148 693L246 189L344 693L497 693L324 90M270-90Q270-71 265-51Q260-31 247 7Q224-57 224-91Q224-122 247-122Q270-122 270-90Z"  horiz-adv-x="488" vert-adv-y="1000"  />

      
      <glyph glyph-name="uni011E" unicode="&#x011E;" d="M311 710Q424 710 508 626L433 547Q402 573 376.50 584.50Q351 596 318 596Q254 596 222 541Q190 486 190 347Q190 249 201 195Q212 141 234 120Q256 99 292 99Q329 99 361 120L361 286L295 286L280 397L509 397L509 55Q464 22 407 3Q350-16 295-16Q158-16 93 72Q28 160 28 347Q28 468 64.50 549.50Q101 631 165 670.50Q229 710 311 710M296 752Q228 752 191 794.50Q154 837 148 909L227 925Q243 857 296 857Q323 857 340 874.50Q357 892 363 925L443 909Q437 837 400 794.50Q363 752 296 752Z"  horiz-adv-x="545" vert-adv-y="1000"  />

      
      <glyph glyph-name="uni01E6" unicode="&#x01E6;" d="M311 710Q424 710 508 626L433 547Q402 573 376.50 584.50Q351 596 318 596Q254 596 222 541Q190 486 190 347Q190 249 201 195Q212 141 234 120Q256 99 292 99Q329 99 361 120L361 286L295 286L280 397L509 397L509 55Q464 22 407 3Q350-16 295-16Q158-16 93 72Q28 160 28 347Q28 468 64.50 549.50Q101 631 165 670.50Q229 710 311 710M406 936L458 881L340 750L250 750L132 881L184 936L295 852L406 936Z"  horiz-adv-x="545" vert-adv-y="1000"  />

      
      <glyph glyph-name="uni011C" unicode="&#x011C;" d="M311 710Q424 710 508 626L433 547Q402 573 376.50 584.50Q351 596 318 596Q254 596 222 541Q190 486 190 347Q190 249 201 195Q212 141 234 120Q256 99 292 99Q329 99 361 120L361 286L295 286L280 397L509 397L509 55Q464 22 407 3Q350-16 295-16Q158-16 93 72Q28 160 28 347Q28 468 64.50 549.50Q101 631 165 670.50Q229 710 311 710M184 760L132 814L250 945L340 945L458 814L406 760L295 843L184 760Z"  horiz-adv-x="545" vert-adv-y="1000"  />

      
      <glyph glyph-name="uni0122" unicode="&#x0122;" d="M311 710Q424 710 508 626L433 547Q402 573 376.50 584.50Q351 596 318 596Q254 596 222 541Q190 486 190 347Q190 249 201 195Q212 141 234 120Q256 99 292 99Q329 99 361 120L361 286L295 286L280 397L509 397L509 55Q464 22 407 3Q350-16 295-16Q158-16 93 72Q28 160 28 347Q28 468 64.50 549.50Q101 631 165 670.50Q229 710 311 710M294-69Q326-69 346-90Q366-111 366-144Q366-161 361.50-177.50Q357-194 344-227L304-322L231-322L257-206Q221-184 221-144Q221-112 241.50-90.50Q262-69 294-69Z"  horiz-adv-x="545" vert-adv-y="1000"  />

      
      <glyph glyph-name="uni0120" unicode="&#x0120;" d="M311 710Q424 710 508 626L433 547Q402 573 376.50 584.50Q351 596 318 596Q254 596 222 541Q190 486 190 347Q190 249 201 195Q212 141 234 120Q256 99 292 99Q329 99 361 120L361 286L295 286L280 397L509 397L509 55Q464 22 407 3Q350-16 295-16Q158-16 93 72Q28 160 28 347Q28 468 64.50 549.50Q101 631 165 670.50Q229 710 311 710M294 933Q333 933 356.50 908.50Q380 884 380 846Q380 809 356 784.50Q332 760 294 760Q256 760 232 784.50Q208 809 208 846Q208 884 232 908.50Q256 933 294 933Z"  horiz-adv-x="545" vert-adv-y="1000"  />

      
      <glyph glyph-name="uni0193" unicode="&#x0193;" d="M522 851Q585 851 641 814L599 724Q582 732 571 735.50Q560 739 547 739Q526 739 517 727Q508 715 508 688L508 626L439 553Q406 576 378.50 586Q351 596 318 596Q254 596 222 541Q190 486 190 347Q190 249 201 195Q212 141 234 120Q256 99 292 99Q329 99 361 120L361 286L295 286L280 397L509 397L509 55Q464 22 407 3Q350-16 295-16Q158-16 93 72Q28 160 28 347Q28 468 64 549.50Q100 631 161 670.50Q222 710 297 710Q341 710 379 694L379 702Q379 772 417.50 811.50Q456 851 522 851Z"  horiz-adv-x="516" vert-adv-y="1000"  />

      
      <glyph glyph-name="uni0241" unicode="&#x0241;" d="M118 329L157 343Q208 362 229.50 393.50Q251 425 251 485Q251 536 231.50 566Q212 596 177 596Q151 596 127.50 583.50Q104 571 73 544L-1 618Q82 710 197 710Q297 710 355 650Q413 590 413 490Q413 405 384.50 362Q356 319 297 293L274 283L274 0L117 0L118 329Z"  horiz-adv-x="425" vert-adv-y="1000"  />

      
      <glyph glyph-name="uni01E4" unicode="&#x01E4;" d="M567 176L509 176L509 55Q463 21 407 2.50Q351-16 293-16Q158-16 93 73Q28 162 28 347Q28 465 64.50 546.50Q101 628 164.50 668.50Q228 709 310 709Q427 709 508 625L431 544Q401 571 376 583Q351 595 319 595Q256 595 223 537.50Q190 480 190 347Q190 251 201 197.50Q212 144 235 121.50Q258 99 295 99Q338 99 375 123L375 176L294 176L294 261L375 261L375 314L293 314L280 411L509 411L509 261L567 261L567 176Z"  horiz-adv-x="561" vert-adv-y="1000"  />

      
      <glyph glyph-name="uni021C" unicode="&#x021C;" d="M195 710Q256 710 302.50 686Q349 662 374.50 619.50Q400 577 400 523Q400 457 366 415Q332 373 257 358Q338 349 377 310Q416 271 416 195Q416 89 329.50 8.50Q243-72 57-112L45 4Q127 31 172.50 59.50Q218 88 236 121.50Q254 155 254 201Q254 251 230 274.50Q206 298 155 298L99 298L116 412L158 412Q240 412 240 506Q240 548 224 572Q208 596 173 596Q128 596 64 542L-6 619Q77 710 195 710Z"  horiz-adv-x="431" vert-adv-y="1000"  />

      
      <glyph glyph-name="uni48" unicode="&#x48;" d="M348 0L348 299L203 299L203 0L46 0L46 693L203 693L203 422L348 422L348 693L505 693L505 0L348 0Z"  horiz-adv-x="551" vert-adv-y="1000"  />

      
      <glyph glyph-name="uni0126" unicode="&#x0126;" d="M552 590L552 501L511 501L511 0L354 0L354 299L209 299L209 0L52 0L52 501L10 501L10 590L52 590L52 693L209 693L209 590L354 590L354 693L511 693L511 590L552 590M354 422L354 501L209 501L209 422L354 422Z"  horiz-adv-x="562" vert-adv-y="1000"  />

      
      <glyph glyph-name="uni021E" unicode="&#x021E;" d="M348 0L348 299L203 299L203 0L46 0L46 693L203 693L203 422L348 422L348 693L505 693L505 0L348 0M387 936L439 881L321 750L231 750L113 881L165 936L276 852L387 936Z"  horiz-adv-x="551" vert-adv-y="1000"  />

      
      <glyph glyph-name="uni0124" unicode="&#x0124;" d="M348 0L348 299L203 299L203 0L46 0L46 693L203 693L203 422L348 422L348 693L505 693L505 0L348 0M165 760L113 814L231 945L321 945L439 814L387 760L276 843L165 760Z"  horiz-adv-x="551" vert-adv-y="1000"  />

      
      <glyph glyph-name="uni1E24" unicode="&#x1E24;" d="M348 0L348 299L203 299L203 0L46 0L46 693L203 693L203 422L348 422L348 693L505 693L505 0L348 0M276-235Q237-235 213.50-210.50Q190-186 190-148Q190-111 214-86.50Q238-62 276-62Q314-62 338-86.50Q362-111 362-148Q362-186 338-210.50Q314-235 276-235Z"  horiz-adv-x="551" vert-adv-y="1000"  />

      
      <glyph glyph-name="uniA7AA" unicode="&#xA7AA;" d="M636 693L636 0L479 0L479 299L334 299L334 0L177 0L177 581L159 581Q121 581 121 539Q121 506 139 470L43 428Q24 456 13.50 486Q3 516 3 554Q3 618 45 655.50Q87 693 166 693L334 693L334 422L479 422L479 693L636 693Z"  horiz-adv-x="682" vert-adv-y="1000"  />

      
      <glyph glyph-name="uniA78D" unicode="&#xA78D;" d="M471 693L471 0L314 0L314 256Q287 230 257.50 217.50Q228 205 189 205Q111 205 63 258Q15 311 15 407L15 693L169 693L169 420Q169 365 186 343.50Q203 322 236 322Q284 322 314 360L314 693L471 693Z"  horiz-adv-x="518" vert-adv-y="1000"  />

      
      <glyph glyph-name="uni01F6" unicode="&#x01F6;" d="M730 531Q754 369 754 255Q754 110 691 47Q628-16 533-16Q451-16 399.50 29Q348 74 348 159L348 299L203 299L203 0L46 0L46 693L203 693L203 422L348 422L348 693L505 693L505 156Q505 123 514.50 109Q524 95 544 95Q572 95 587.50 130.50Q603 166 603 261Q603 378 583 531L730 531Z"  horiz-adv-x="785" vert-adv-y="1000"  />

      
      <glyph glyph-name="uni49" unicode="&#x49;" d="M203 693L203 0L46 0L46 693L203 693Z"  horiz-adv-x="250" vert-adv-y="1000"  />

      
      <glyph glyph-name="uni0132" unicode="&#x0132;" d="M203 693L203 0L46 0L46 693L203 693M473 104Q473 24 446-29Q419-82 377-112.50Q335-143 276-166L235-56Q271-38 288-17.50Q305 3 310.50 31.50Q316 60 316 110L316 693L473 693L473 104Z"  horiz-adv-x="517" vert-adv-y="1000"  />

      
      <glyph glyph-name="unicd" unicode="&#xcd;" d="M203 693L203 0L46 0L46 693L203 693M188 945L245 836L42 751L4 825L188 945Z"  horiz-adv-x="250" vert-adv-y="1000"  />

      
      <glyph glyph-name="uni012C" unicode="&#x012C;" d="M203 693L203 0L46 0L46 693L203 693M126 752Q58 752 21 794.50Q-16 837-22 909L57 925Q73 857 126 857Q153 857 170 874.50Q187 892 193 925L273 909Q267 837 230 794.50Q193 752 126 752Z"  horiz-adv-x="250" vert-adv-y="1000"  />

      
      <glyph glyph-name="uni01CF" unicode="&#x01CF;" d="M203 693L203 0L46 0L46 693L203 693M236 936L288 881L170 750L80 750L-38 881L14 936L125 852L236 936Z"  horiz-adv-x="250" vert-adv-y="1000"  />

      
      <glyph glyph-name="unice" unicode="&#xce;" d="M203 693L203 0L46 0L46 693L203 693M14 760L-38 814L80 945L170 945L288 814L236 760L125 843L14 760Z"  horiz-adv-x="250" vert-adv-y="1000"  />

      
      <glyph glyph-name="uni0208" unicode="&#x0208;" d="M203 693L203 0L46 0L46 693L203 693M13 981L94 787L24 752L-81 931L13 981M164 981L239 787L167 757L69 934L164 981Z"  horiz-adv-x="250" vert-adv-y="1000"  />

      
      <glyph glyph-name="unicf" unicode="&#xcf;" d="M203 693L203 0L46 0L46 693L203 693M32 921Q64 921 85 899Q106 877 106 845Q106 812 85.50 790.50Q65 769 32 769Q0 769-21.50 791Q-43 813-43 845Q-43 877-21.50 899Q0 921 32 921M228 921Q260 921 281 899Q302 877 302 845Q302 812 281.50 790.50Q261 769 228 769Q197 769 175.50 791Q154 813 154 845Q154 877 175.50 899Q197 921 228 921Z"  horiz-adv-x="250" vert-adv-y="1000"  />

      
      <glyph glyph-name="uni1E2E" unicode="&#x1E2E;" d="M203 693L203 0L46 0L46 693L203 693M188 1088L276 1012L132 868L73 916L188 1088M20 900Q53 900 73.50 878.50Q94 857 94 824Q94 791 73.50 769.50Q53 748 20 748Q-12 748-33.50 770Q-55 792-55 824Q-55 856-33.50 878Q-12 900 20 900M230 900Q263 900 283.50 878.50Q304 857 304 824Q304 791 283.50 769.50Q263 748 230 748Q198 748 176.50 770Q155 792 155 824Q155 856 176.50 878Q198 900 230 900Z"  horiz-adv-x="250" vert-adv-y="1000"  />

      
      <glyph glyph-name="uni0130" unicode="&#x0130;" d="M203 693L203 0L46 0L46 693L203 693M124 933Q163 933 186.50 908.50Q210 884 210 846Q210 809 186 784.50Q162 760 124 760Q86 760 62 784.50Q38 809 38 846Q38 884 62 908.50Q86 933 124 933Z"  horiz-adv-x="250" vert-adv-y="1000"  />

      
      <glyph glyph-name="uni1ECA" unicode="&#x1ECA;" d="M203 693L203 0L46 0L46 693L203 693M125-235Q86-235 62.50-210.50Q39-186 39-148Q39-111 63-86.50Q87-62 125-62Q163-62 187-86.50Q211-111 211-148Q211-186 187-210.50Q163-235 125-235Z"  horiz-adv-x="250" vert-adv-y="1000"  />

      
      <glyph glyph-name="unicc" unicode="&#xcc;" d="M203 693L203 0L46 0L46 693L203 693M60 944L244 825L206 751L3 835L60 944Z"  horiz-adv-x="250" vert-adv-y="1000"  />

      
      <glyph glyph-name="uni1EC8" unicode="&#x1EC8;" d="M203 693L203 0L46 0L46 693L203 693M82 853Q114 855 127 863Q140 871 140 891Q140 907 131.50 915Q123 923 109 923Q95 923 84 920Q73 917 59 910L36 974Q76 999 130 999Q181 999 209 971.50Q237 944 237 899Q237 861 219 837.50Q201 814 167 807L167 764L82 764L82 853Z"  horiz-adv-x="250" vert-adv-y="1000"  />

      
      <glyph glyph-name="uni020A" unicode="&#x020A;" d="M203 693L203 0L46 0L46 693L203 693M126 948Q194 948 231 903.50Q268 859 273 780L193 765Q179 845 126 845Q73 845 57 765L-22 780Q-17 859 20.50 903.50Q58 948 126 948Z"  horiz-adv-x="250" vert-adv-y="1000"  />

      
      <glyph glyph-name="uni012A" unicode="&#x012A;" d="M203 693L203 0L46 0L46 693L203 693M255 784L-5 784L-5 886L255 886L255 784Z"  horiz-adv-x="250" vert-adv-y="1000"  />

      
      <glyph glyph-name="uni012E" unicode="&#x012E;" d="M203 693L203 0L166 0Q111-26 91-51Q71-76 71-104Q71-150 115-150Q138-150 163-143L154-236Q125-244 96-244Q38-244 1.50-214Q-35-184-35-130Q-35-50 46 3L46 693L203 693Z"  horiz-adv-x="250" vert-adv-y="1000"  />

      
      <glyph glyph-name="uni0196" unicode="&#x0196;" d="M341 25Q288-17 214-17Q133-17 84.50 27Q36 71 36 156L36 693L193 693L193 147Q193 98 234 98Q250 98 262 101.50Q274 105 289 114L341 25Z"  horiz-adv-x="334" vert-adv-y="1000"  />

      
      <glyph glyph-name="uni0197" unicode="&#x0197;" d="M277 418L277 302L218 302L218 0L61 0L61 302L4 302L4 418L61 418L61 693L218 693L218 418L277 418Z"  horiz-adv-x="281" vert-adv-y="1000"  />

      
      <glyph glyph-name="uni0128" unicode="&#x0128;" d="M203 693L203 0L46 0L46 693L203 693M176 768Q157 768 143.50 774.50Q130 781 113 792Q92 808 78 808Q65 808 56 798.50Q47 789 35 767L-35 800Q-19 850 10 880.50Q39 911 76 911Q94 911 107 905Q120 899 139 887Q150 878 158 874Q166 870 175 870Q188 870 196.50 879.50Q205 889 216 910L287 878Q271 827 242 797.50Q213 768 176 768Z"  horiz-adv-x="250" vert-adv-y="1000"  />

      
      <glyph glyph-name="uni4a" unicode="&#x4a;" d="M223 104Q223 24 196-29Q169-82 127-112.50Q85-143 26-166L-15-56Q21-38 38-17.50Q55 3 60.50 31.50Q66 60 66 110L66 693L223 693L223 104Z"  horiz-adv-x="267" vert-adv-y="1000"  />

      
      <glyph glyph-name="uni0134" unicode="&#x0134;" d="M223 104Q223 24 196-29Q169-82 127-112.50Q85-143 26-166L-15-56Q21-38 38-17.50Q55 3 60.50 31.50Q66 60 66 110L66 693L223 693L223 104M34 760L-18 814L100 945L190 945L308 814L256 760L145 843L34 760Z"  horiz-adv-x="267" vert-adv-y="1000"  />

      
      <glyph glyph-name="uniA7B2" unicode="&#xA7B2;" d="M316-107Q285-89 252-77Q237-147 189-184Q141-221 61-221Q-1-221-35.50-190Q-70-159-70-104Q-70-46-32.50-13.50Q5 19 73 19Q87 19 103 17L103 693L260 693L260 1L260-2Q308-19 348-45L316-107M53-142Q80-142 91.50-123.50Q103-105 103-65L103-53Q96-51 73-51Q43-51 30-63Q17-75 17-99Q17-142 53-142Z"  horiz-adv-x="308" vert-adv-y="1000"  />

      
      <glyph glyph-name="uni0248" unicode="&#x0248;" d="M282 284L223 284L223 104Q223 24 196-29Q169-82 127-112.50Q85-143 26-166L-15-56Q21-38 38-17.50Q55 3 60.50 31.50Q66 60 66 110L66 284L9 284L9 402L66 402L66 693L223 693L223 402L282 402L282 284Z"  horiz-adv-x="285" vert-adv-y="1000"  />

      
      <glyph glyph-name="uni4b" unicode="&#x4b;" d="M203 693L203 0L46 0L46 693L203 693M537 693L365 381L552 0L381 0L208 370L382 693L537 693Z"  horiz-adv-x="540" vert-adv-y="1000"  />

      
      <glyph glyph-name="uni01E8" unicode="&#x01E8;" d="M203 693L203 0L46 0L46 693L203 693M537 693L365 381L552 0L381 0L208 370L382 693L537 693M386 936L438 881L320 750L230 750L112 881L164 936L275 852L386 936Z"  horiz-adv-x="540" vert-adv-y="1000"  />

      
      <glyph glyph-name="uni0136" unicode="&#x0136;" d="M203 693L203 0L46 0L46 693L203 693M537 693L365 381L552 0L381 0L208 370L382 693L537 693M274-69Q306-69 326-90Q346-111 346-144Q346-161 341.50-177.50Q337-194 324-227L284-322L211-322L237-206Q201-184 201-144Q201-112 221.50-90.50Q242-69 274-69Z"  horiz-adv-x="540" vert-adv-y="1000"  />

      
      <glyph glyph-name="uni0198" unicode="&#x0198;" d="M208 370L298 577Q327 648 361 679Q395 710 456 710Q513 710 563 674L523 587Q512 593 503.50 596Q495 599 484 599Q467 599 457 588.50Q447 578 435 552L361 381L552 0L381 0L208 370M203 693L203 0L46 0L46 693L203 693Z"  horiz-adv-x="550" vert-adv-y="1000"  />

      
      <glyph glyph-name="uni4c" unicode="&#x4c;" d="M203 693L203 124L421 124L405 0L46 0L46 693L203 693Z"  horiz-adv-x="426" vert-adv-y="1000"  />

      
      <glyph glyph-name="uni01C7" unicode="&#x01C7;" d="M203 693L203 124L421 124L405 0L46 0L46 693L203 693M626 104Q626 24 599-29Q572-82 530-112.50Q488-143 429-166L388-56Q424-38 441-17.50Q458 3 463.50 31.50Q469 60 469 110L469 693L626 693L626 104Z"  horiz-adv-x="670" vert-adv-y="1000"  />

      
      <glyph glyph-name="uni0139" unicode="&#x0139;" d="M203 693L203 124L421 124L405 0L46 0L46 693L203 693M188 945L245 836L42 751L4 825L188 945Z"  horiz-adv-x="426" vert-adv-y="1000"  />

      
      <glyph glyph-name="uni023D" unicode="&#x023D;" d="M218 124L436 124L420 0L61 0L61 304L4 304L4 422L61 422L61 693L218 693L218 422L277 422L277 304L218 304L218 124Z"  horiz-adv-x="441" vert-adv-y="1000"  />

      
      <glyph glyph-name="uniA7AD" unicode="&#xA7AD;" d="M518 124L502 0L143 0L143 253Q72 255 37 289Q2 323 2 381Q2 436 32.50 466.50Q63 497 111 497Q127 497 143 493L143 693L300 693L300 344Q339 345 395 357L409 275Q363 262 300 257L300 124L518 124M98 383Q98 341 143 341L143 415Q137 417 125 417Q98 417 98 383Z"  horiz-adv-x="523" vert-adv-y="1000"  />

      
      <glyph glyph-name="uni013D" unicode="&#x013D;" d="M203 693L203 124L421 124L405 0L46 0L46 693L203 693M317 480L363 692L254 709L234 493L317 480Z"  horiz-adv-x="426" vert-adv-y="1000"  />

      
      <glyph glyph-name="uni1E3C" unicode="&#x1E3C;" d="M203 693L203 124L421 124L405 0L46 0L46 693L203 693M113-257L61-203L179-64L269-64L387-203L335-257L224-166L113-257Z"  horiz-adv-x="426" vert-adv-y="1000"  />

      
      <glyph glyph-name="uni013B" unicode="&#x013B;" d="M203 693L203 124L421 124L405 0L46 0L46 693L203 693M226-69Q258-69 278-90Q298-111 298-144Q298-161 293.50-177.50Q289-194 276-227L236-322L163-322L189-206Q153-184 153-144Q153-112 173.50-90.50Q194-69 226-69Z"  horiz-adv-x="426" vert-adv-y="1000"  />

      
      <glyph glyph-name="uni013F" unicode="&#x013F;" d="M203 693L203 124L421 124L405 0L46 0L46 693L203 693M333 484Q372 484 395.50 459.50Q419 435 419 397Q419 360 395 335.50Q371 311 333 311Q295 311 271 335.50Q247 360 247 397Q247 435 271 459.50Q295 484 333 484Z"  horiz-adv-x="426" vert-adv-y="1000"  />

      
      <glyph glyph-name="uni1E36" unicode="&#x1E36;" d="M203 693L203 124L421 124L405 0L46 0L46 693L203 693M226-235Q187-235 163.50-210.50Q140-186 140-148Q140-111 164-86.50Q188-62 226-62Q264-62 288-86.50Q312-111 312-148Q312-186 288-210.50Q264-235 226-235Z"  horiz-adv-x="426" vert-adv-y="1000"  />

      
      <glyph glyph-name="uni01C8" unicode="&#x01C8;" d="M203 693L203 124L421 124L405 0L46 0L46 693L203 693M607 38Q607-66 557.50-123Q508-180 416-220L365-111Q397-92 415.50-75Q434-58 445-31.50Q456-5 456 36L456 531L607 531L607 38M530 807Q569 807 592.50 782.50Q616 758 616 720Q616 683 592 658.50Q568 634 530 634Q492 634 468 658.50Q444 683 444 720Q444 758 468 782.50Q492 807 530 807Z"  horiz-adv-x="651" vert-adv-y="1000"  />

      
      <glyph glyph-name="uni0141" unicode="&#x0141;" d="M244 124L462 124L446 0L87 0L87 227L51 201L2 285L81 343L87 347L87 693L244 693L244 459L333 522L382 439L244 340L244 124Z"  horiz-adv-x="466" vert-adv-y="1000"  />

      
      <glyph glyph-name="uni4d" unicode="&#x4d;" d="M640 0L492 0L486 275Q483 370 483 460Q483 523 484 553L407 74L260 74L179 554Q181 498 181 398Q181 317 180 273L174 0L27 0L69 693L263 693L336 219L402 693L599 693L640 0Z"  horiz-adv-x="667" vert-adv-y="1000"  />

      
      <glyph glyph-name="uni1E3E" unicode="&#x1E3E;" d="M640 0L492 0L486 275Q483 370 483 460Q483 523 484 553L407 74L260 74L179 554Q181 498 181 398Q181 317 180 273L174 0L27 0L69 693L263 693L336 219L402 693L599 693L640 0M396 945L453 836L250 751L212 825L396 945Z"  horiz-adv-x="667" vert-adv-y="1000"  />

      
      <glyph glyph-name="uni1E40" unicode="&#x1E40;" d="M640 0L492 0L486 275Q483 370 483 460Q483 523 484 553L407 74L260 74L179 554Q181 498 181 398Q181 317 180 273L174 0L27 0L69 693L263 693L336 219L402 693L599 693L640 0M332 933Q371 933 394.50 908.50Q418 884 418 846Q418 809 394 784.50Q370 760 332 760Q294 760 270 784.50Q246 809 246 846Q246 884 270 908.50Q294 933 332 933Z"  horiz-adv-x="667" vert-adv-y="1000"  />

      
      <glyph glyph-name="uni019C" unicode="&#x019C;" d="M706 693L706 0L568 0L558 60Q530 20 499 2Q468-16 430-16Q388-16 357 7Q326 30 310 70Q278 25 246.50 4.50Q215-16 175-16Q111-16 73.50 33.50Q36 83 36 158L36 693L193 693L193 165Q193 101 231 101Q264 101 293 158L293 693L449 693L449 165Q449 136 459 118.50Q469 101 486 101Q504 101 519 115.50Q534 130 549 162L549 693L706 693Z"  horiz-adv-x="752" vert-adv-y="1000"  />

      
      <glyph glyph-name="uni4e" unicode="&#x4e;" d="M501 0L307 0L161 549Q171 462 176 403.50Q181 345 181 262L181 0L46 0L46 693L240 693L386 144Q365 282 365 403L365 693L501 693L501 0Z"  horiz-adv-x="547" vert-adv-y="1000"  />

      
      <glyph glyph-name="uni01CA" unicode="&#x01CA;" d="M501 0L307 0L161 549Q171 462 176 403.50Q181 345 181 262L181 0L46 0L46 693L240 693L386 144Q365 282 365 403L365 693L501 693L501 0M770 104Q770 24 743-29Q716-82 674-112.50Q632-143 573-166L532-56Q568-38 585-17.50Q602 3 607.50 31.50Q613 60 613 110L613 693L770 693L770 104Z"  horiz-adv-x="814" vert-adv-y="1000"  />

      
      <glyph glyph-name="uni0143" unicode="&#x0143;" d="M501 0L307 0L161 549Q171 462 176 403.50Q181 345 181 262L181 0L46 0L46 693L240 693L386 144Q365 282 365 403L365 693L501 693L501 0M338 945L395 836L192 751L154 825L338 945Z"  horiz-adv-x="547" vert-adv-y="1000"  />

      
      <glyph glyph-name="uni0147" unicode="&#x0147;" d="M501 0L307 0L161 549Q171 462 176 403.50Q181 345 181 262L181 0L46 0L46 693L240 693L386 144Q365 282 365 403L365 693L501 693L501 0M386 936L438 881L320 750L230 750L112 881L164 936L275 852L386 936Z"  horiz-adv-x="547" vert-adv-y="1000"  />

      
      <glyph glyph-name="uni1E4A" unicode="&#x1E4A;" d="M501 0L307 0L161 549Q171 462 176 403.50Q181 345 181 262L181 0L46 0L46 693L240 693L386 144Q365 282 365 403L365 693L501 693L501 0M161-257L109-203L227-64L317-64L435-203L383-257L272-166L161-257Z"  horiz-adv-x="547" vert-adv-y="1000"  />

      
      <glyph glyph-name="uni0145" unicode="&#x0145;" d="M501 0L307 0L161 549Q171 462 176 403.50Q181 345 181 262L181 0L46 0L46 693L240 693L386 144Q365 282 365 403L365 693L501 693L501 0M274-69Q306-69 326-90Q346-111 346-144Q346-161 341.50-177.50Q337-194 324-227L284-322L211-322L237-206Q201-184 201-144Q201-112 221.50-90.50Q242-69 274-69Z"  horiz-adv-x="547" vert-adv-y="1000"  />

      
      <glyph glyph-name="uni1E44" unicode="&#x1E44;" d="M501 0L307 0L161 549Q171 462 176 403.50Q181 345 181 262L181 0L46 0L46 693L240 693L386 144Q365 282 365 403L365 693L501 693L501 0M274 933Q313 933 336.50 908.50Q360 884 360 846Q360 809 336 784.50Q312 760 274 760Q236 760 212 784.50Q188 809 188 846Q188 884 212 908.50Q236 933 274 933Z"  horiz-adv-x="547" vert-adv-y="1000"  />

      
      <glyph glyph-name="uni1E46" unicode="&#x1E46;" d="M501 0L307 0L161 549Q171 462 176 403.50Q181 345 181 262L181 0L46 0L46 693L240 693L386 144Q365 282 365 403L365 693L501 693L501 0M274-235Q235-235 211.50-210.50Q188-186 188-148Q188-111 212-86.50Q236-62 274-62Q312-62 336-86.50Q360-111 360-148Q360-186 336-210.50Q312-235 274-235Z"  horiz-adv-x="547" vert-adv-y="1000"  />

      
      <glyph glyph-name="uni01F8" unicode="&#x01F8;" d="M501 0L307 0L161 549Q171 462 176 403.50Q181 345 181 262L181 0L46 0L46 693L240 693L386 144Q365 282 365 403L365 693L501 693L501 0M210 944L394 825L356 751L153 835L210 944Z"  horiz-adv-x="547" vert-adv-y="1000"  />

      
      <glyph glyph-name="uni014A" unicode="&#x014A;" d="M501 693L501-48Q501-133 452.50-177Q404-221 323-221Q249-221 196-179L248-90Q263-99 275-102.50Q287-106 303-106Q344-106 344-57L344 0L307 0L161 549Q171 462 176 403.50Q181 345 181 262L181 0L46 0L46 693L240 693L386 144Q365 282 365 403L365 693L501 693Z"  horiz-adv-x="547" vert-adv-y="1000"  />

      
      <glyph glyph-name="uni019D" unicode="&#x019D;" d="M501 693L501 0L307 0L161 549Q171 462 176 403.50Q181 345 181 262L181-48Q181-132 136-176.50Q91-221 18-221Q-52-221-103-179L-51-98Q-34-107-22.50-111Q-11-115 4-115Q46-115 46-59L46 693L240 693L386 144Q365 282 365 403L365 693L501 693Z"  horiz-adv-x="547" vert-adv-y="1000"  />

      
      <glyph glyph-name="uni01CB" unicode="&#x01CB;" d="M501 0L307 0L161 549Q171 462 176 403.50Q181 345 181 262L181 0L46 0L46 693L240 693L386 144Q365 282 365 403L365 693L501 693L501 0M743 38Q743-66 693.50-123Q644-180 552-220L501-111Q533-92 551.50-75Q570-58 581-31.50Q592-5 592 36L592 531L743 531L743 38M666 807Q705 807 728.50 782.50Q752 758 752 720Q752 683 728 658.50Q704 634 666 634Q628 634 604 658.50Q580 683 580 720Q580 758 604 782.50Q628 807 666 807Z"  horiz-adv-x="787" vert-adv-y="1000"  />

      
      <glyph glyph-name="uni0220" unicode="&#x0220;" d="M351 710Q423 710 460.50 663Q498 616 498 536L498-210L341-210L341 511Q341 556 330 574.50Q319 593 294 593Q269 593 248.50 577.50Q228 562 203 531L203 0L46 0L46 693L184 693L194 633Q229 672 266.50 691Q304 710 351 710Z"  horiz-adv-x="539" vert-adv-y="1000"  />

      
      <glyph glyph-name="unid1" unicode="&#xd1;" d="M501 0L307 0L161 549Q171 462 176 403.50Q181 345 181 262L181 0L46 0L46 693L240 693L386 144Q365 282 365 403L365 693L501 693L501 0M326 768Q307 768 293.50 774.50Q280 781 263 792Q242 808 228 808Q215 808 206 798.50Q197 789 185 767L115 800Q131 850 160 880.50Q189 911 226 911Q244 911 257 905Q270 899 289 887Q300 878 308 874Q316 870 325 870Q338 870 346.50 879.50Q355 889 366 910L437 878Q421 827 392 797.50Q363 768 326 768Z"  horiz-adv-x="547" vert-adv-y="1000"  />

      
      <glyph glyph-name="uni4f" unicode="&#x4f;" d="M290 710Q418 710 485.50 619.50Q553 529 553 347Q553 167 485 75Q417-17 290-17Q163-17 95.50 73.50Q28 164 28 347Q28 527 95.50 618.50Q163 710 290 710M290 595Q238 595 214.50 538.50Q191 482 191 347Q191 253 201.50 199Q212 145 233.50 121.50Q255 98 290 98Q326 98 347.50 121Q369 144 379.50 198.50Q390 253 390 347Q390 483 366.50 539Q343 595 290 595Z"  horiz-adv-x="581" vert-adv-y="1000"  />

      
      <glyph glyph-name="uni0222" unicode="&#x0222;" d="M408 398Q520 353 520 217Q520 151 490 98Q460 45 404.50 14.50Q349-16 274-16Q199-16 143.50 14Q88 44 58 96.50Q28 149 28 216Q28 282 56.50 327.50Q85 373 139 396Q59 438 59 521L59 693L216 693L216 509Q216 446 274 446Q305 446 318 464Q331 482 331 509L331 693L489 693L489 521Q489 481 468 449.50Q447 418 408 398M274 99Q316 99 336.50 127Q357 155 357 219Q357 335 274 335Q191 335 191 218Q191 155 211.50 127Q232 99 274 99Z"  horiz-adv-x="548" vert-adv-y="1000"  />

      
      <glyph glyph-name="unid3" unicode="&#xd3;" d="M290 710Q418 710 485.50 619.50Q553 529 553 347Q553 167 485 75Q417-17 290-17Q163-17 95.50 73.50Q28 164 28 347Q28 527 95.50 618.50Q163 710 290 710M290 595Q238 595 214.50 538.50Q191 482 191 347Q191 253 201.50 199Q212 145 233.50 121.50Q255 98 290 98Q326 98 347.50 121Q369 144 379.50 198.50Q390 253 390 347Q390 483 366.50 539Q343 595 290 595M353 945L410 836L207 751L169 825L353 945Z"  horiz-adv-x="581" vert-adv-y="1000"  />

      
      <glyph glyph-name="uni014E" unicode="&#x014E;" d="M290 710Q418 710 485.50 619.50Q553 529 553 347Q553 167 485 75Q417-17 290-17Q163-17 95.50 73.50Q28 164 28 347Q28 527 95.50 618.50Q163 710 290 710M290 595Q238 595 214.50 538.50Q191 482 191 347Q191 253 201.50 199Q212 145 233.50 121.50Q255 98 290 98Q326 98 347.50 121Q369 144 379.50 198.50Q390 253 390 347Q390 483 366.50 539Q343 595 290 595M291 752Q223 752 186 794.50Q149 837 143 909L222 925Q238 857 291 857Q318 857 335 874.50Q352 892 358 925L438 909Q432 837 395 794.50Q358 752 291 752Z"  horiz-adv-x="581" vert-adv-y="1000"  />

      
      <glyph glyph-name="uni01D1" unicode="&#x01D1;" d="M290 710Q418 710 485.50 619.50Q553 529 553 347Q553 167 485 75Q417-17 290-17Q163-17 95.50 73.50Q28 164 28 347Q28 527 95.50 618.50Q163 710 290 710M290 595Q238 595 214.50 538.50Q191 482 191 347Q191 253 201.50 199Q212 145 233.50 121.50Q255 98 290 98Q326 98 347.50 121Q369 144 379.50 198.50Q390 253 390 347Q390 483 366.50 539Q343 595 290 595M401 936L453 881L335 750L245 750L127 881L179 936L290 852L401 936Z"  horiz-adv-x="581" vert-adv-y="1000"  />

      
      <glyph glyph-name="uni019F" unicode="&#x019F;" d="M290 710Q418 710 485.50 619.50Q553 529 553 347Q553 167 485 75Q417-17 290-17Q163-17 95.50 73.50Q28 164 28 347Q28 527 95.50 618.50Q163 710 290 710M290 595Q240 595 214.50 549.50Q189 504 185 396L396 396Q392 504 366.50 549.50Q341 595 290 595M290 98Q343 98 368 144.50Q393 191 396 306L185 306Q188 191 213 144.50Q238 98 290 98Z"  horiz-adv-x="581" vert-adv-y="1000"  />

      
      <glyph glyph-name="unid4" unicode="&#xd4;" d="M290 710Q418 710 485.50 619.50Q553 529 553 347Q553 167 485 75Q417-17 290-17Q163-17 95.50 73.50Q28 164 28 347Q28 527 95.50 618.50Q163 710 290 710M290 595Q238 595 214.50 538.50Q191 482 191 347Q191 253 201.50 199Q212 145 233.50 121.50Q255 98 290 98Q326 98 347.50 121Q369 144 379.50 198.50Q390 253 390 347Q390 483 366.50 539Q343 595 290 595M179 760L127 814L245 945L335 945L453 814L401 760L290 843L179 760Z"  horiz-adv-x="581" vert-adv-y="1000"  />

      
      <glyph glyph-name="uni1ED0" unicode="&#x1ED0;" d="M290 710Q418 710 485.50 619.50Q553 529 553 347Q553 167 485 75Q417-17 290-17Q163-17 95.50 73.50Q28 164 28 347Q28 527 95.50 618.50Q163 710 290 710M290 595Q238 595 214.50 538.50Q191 482 191 347Q191 253 201.50 199Q212 145 233.50 121.50Q255 98 290 98Q326 98 347.50 121Q369 144 379.50 198.50Q390 253 390 347Q390 483 366.50 539Q343 595 290 595M179 726L127 780L245 911L335 911L453 780L401 726L290 809L179 726M490 1086L578 1010L434 866L375 914L490 1086Z"  horiz-adv-x="581" vert-adv-y="1000"  />

      
      <glyph glyph-name="uni1ED8" unicode="&#x1ED8;" d="M290 710Q418 710 485.50 619.50Q553 529 553 347Q553 167 485 75Q417-17 290-17Q163-17 95.50 73.50Q28 164 28 347Q28 527 95.50 618.50Q163 710 290 710M290 595Q238 595 214.50 538.50Q191 482 191 347Q191 253 201.50 199Q212 145 233.50 121.50Q255 98 290 98Q326 98 347.50 121Q369 144 379.50 198.50Q390 253 390 347Q390 483 366.50 539Q343 595 290 595M179 760L127 814L245 945L335 945L453 814L401 760L290 843L179 760M290-235Q251-235 227.50-210.50Q204-186 204-148Q204-111 228-86.50Q252-62 290-62Q328-62 352-86.50Q376-111 376-148Q376-186 352-210.50Q328-235 290-235Z"  horiz-adv-x="581" vert-adv-y="1000"  />

      
      <glyph glyph-name="uni1ED2" unicode="&#x1ED2;" d="M290 710Q418 710 485.50 619.50Q553 529 553 347Q553 167 485 75Q417-17 290-17Q163-17 95.50 73.50Q28 164 28 347Q28 527 95.50 618.50Q163 710 290 710M290 595Q238 595 214.50 538.50Q191 482 191 347Q191 253 201.50 199Q212 145 233.50 121.50Q255 98 290 98Q326 98 347.50 121Q369 144 379.50 198.50Q390 253 390 347Q390 483 366.50 539Q343 595 290 595M178 726L126 780L244 911L334 911L452 780L400 726L289 809L178 726M90 1086L206 914L147 866L2 1010L90 1086Z"  horiz-adv-x="581" vert-adv-y="1000"  />

      
      <glyph glyph-name="uni1ED4" unicode="&#x1ED4;" d="M290 710Q418 710 485.50 619.50Q553 529 553 347Q553 167 485 75Q417-17 290-17Q163-17 95.50 73.50Q28 164 28 347Q28 527 95.50 618.50Q163 710 290 710M290 595Q238 595 214.50 538.50Q191 482 191 347Q191 253 201.50 199Q212 145 233.50 121.50Q255 98 290 98Q326 98 347.50 121Q369 144 379.50 198.50Q390 253 390 347Q390 483 366.50 539Q343 595 290 595M179 726L127 780L245 911L335 911L453 780L401 726L290 809L179 726M396 942Q428 944 441 952Q454 960 454 980Q454 996 445.50 1004Q437 1012 423 1012Q409 1012 398 1009Q387 1006 373 999L350 1063Q390 1088 444 1088Q495 1088 523 1060.50Q551 1033 551 988Q551 950 533 926.50Q515 903 481 896L481 853L396 853L396 942Z"  horiz-adv-x="581" vert-adv-y="1000"  />

      
      <glyph glyph-name="uni1ED6" unicode="&#x1ED6;" d="M290 710Q418 710 485.50 619.50Q553 529 553 347Q553 167 485 75Q417-17 290-17Q163-17 95.50 73.50Q28 164 28 347Q28 527 95.50 618.50Q163 710 290 710M290 595Q238 595 214.50 538.50Q191 482 191 347Q191 253 201.50 199Q212 145 233.50 121.50Q255 98 290 98Q326 98 347.50 121Q369 144 379.50 198.50Q390 253 390 347Q390 483 366.50 539Q343 595 290 595M178 726L126 780L244 911L334 911L452 780L400 726L289 809L178 726M339 944Q320 944 306 950Q292 956 276 967Q253 982 241 982Q228 982 219 973Q210 964 198 943L128 974Q145 1021 173.50 1050Q202 1079 239 1079Q258 1079 271 1073Q284 1067 302 1056Q323 1040 338 1040Q351 1040 359.50 1049Q368 1058 379 1078L450 1048Q434 1000 405 972Q376 944 339 944Z"  horiz-adv-x="581" vert-adv-y="1000"  />

      
      <glyph glyph-name="uni020C" unicode="&#x020C;" d="M290 710Q418 710 485.50 619.50Q553 529 553 347Q553 167 485 75Q417-17 290-17Q163-17 95.50 73.50Q28 164 28 347Q28 527 95.50 618.50Q163 710 290 710M290 595Q238 595 214.50 538.50Q191 482 191 347Q191 253 201.50 199Q212 145 233.50 121.50Q255 98 290 98Q326 98 347.50 121Q369 144 379.50 198.50Q390 253 390 347Q390 483 366.50 539Q343 595 290 595M178 981L259 787L189 752L84 931L178 981M329 981L404 787L332 757L234 934L329 981Z"  horiz-adv-x="581" vert-adv-y="1000"  />

      
      <glyph glyph-name="unid6" unicode="&#xd6;" d="M290 710Q418 710 485.50 619.50Q553 529 553 347Q553 167 485 75Q417-17 290-17Q163-17 95.50 73.50Q28 164 28 347Q28 527 95.50 618.50Q163 710 290 710M290 595Q238 595 214.50 538.50Q191 482 191 347Q191 253 201.50 199Q212 145 233.50 121.50Q255 98 290 98Q326 98 347.50 121Q369 144 379.50 198.50Q390 253 390 347Q390 483 366.50 539Q343 595 290 595M197 921Q229 921 250 899Q271 877 271 845Q271 812 250.50 790.50Q230 769 197 769Q165 769 143.50 791Q122 813 122 845Q122 877 143.50 899Q165 921 197 921M393 921Q425 921 446 899Q467 877 467 845Q467 812 446.50 790.50Q426 769 393 769Q362 769 340.50 791Q319 813 319 845Q319 877 340.50 899Q362 921 393 921Z"  horiz-adv-x="581" vert-adv-y="1000"  />

      
      <glyph glyph-name="uni022A" unicode="&#x022A;" d="M290 710Q418 710 485.50 619.50Q553 529 553 347Q553 167 485 75Q417-17 290-17Q163-17 95.50 73.50Q28 164 28 347Q28 527 95.50 618.50Q163 710 290 710M290 595Q238 595 214.50 538.50Q191 482 191 347Q191 253 201.50 199Q212 145 233.50 121.50Q255 98 290 98Q326 98 347.50 121Q369 144 379.50 198.50Q390 253 390 347Q390 483 366.50 539Q343 595 290 595M193 898Q225 898 246 876Q267 854 267 822Q267 789 246.50 767.50Q226 746 193 746Q161 746 139.50 768Q118 790 118 822Q118 854 139.50 876Q161 898 193 898M389 898Q421 898 442 876Q463 854 463 822Q463 789 442.50 767.50Q422 746 389 746Q358 746 336.50 768Q315 790 315 822Q315 854 336.50 876Q358 898 389 898M421 943L161 943L161 1045L421 1045L421 943Z"  horiz-adv-x="581" vert-adv-y="1000"  />

      
      <glyph glyph-name="uni022E" unicode="&#x022E;" d="M290 710Q418 710 485.50 619.50Q553 529 553 347Q553 167 485 75Q417-17 290-17Q163-17 95.50 73.50Q28 164 28 347Q28 527 95.50 618.50Q163 710 290 710M290 595Q238 595 214.50 538.50Q191 482 191 347Q191 253 201.50 199Q212 145 233.50 121.50Q255 98 290 98Q326 98 347.50 121Q369 144 379.50 198.50Q390 253 390 347Q390 483 366.50 539Q343 595 290 595M289 933Q328 933 351.50 908.50Q375 884 375 846Q375 809 351 784.50Q327 760 289 760Q251 760 227 784.50Q203 809 203 846Q203 884 227 908.50Q251 933 289 933Z"  horiz-adv-x="581" vert-adv-y="1000"  />

      
      <glyph glyph-name="uni0230" unicode="&#x0230;" d="M290 710Q418 710 485.50 619.50Q553 529 553 347Q553 167 485 75Q417-17 290-17Q163-17 95.50 73.50Q28 164 28 347Q28 527 95.50 618.50Q163 710 290 710M290 595Q238 595 214.50 538.50Q191 482 191 347Q191 253 201.50 199Q212 145 233.50 121.50Q255 98 290 98Q326 98 347.50 121Q369 144 379.50 198.50Q390 253 390 347Q390 483 366.50 539Q343 595 290 595M289 910Q328 910 351.50 885.50Q375 861 375 823Q375 786 351 761.50Q327 737 289 737Q251 737 227 761.50Q203 786 203 823Q203 861 227 885.50Q251 910 289 910M420 943L160 943L160 1045L420 1045L420 943Z"  horiz-adv-x="581" vert-adv-y="1000"  />

      
      <glyph glyph-name="uni1ECC" unicode="&#x1ECC;" d="M290 710Q418 710 485.50 619.50Q553 529 553 347Q553 167 485 75Q417-17 290-17Q163-17 95.50 73.50Q28 164 28 347Q28 527 95.50 618.50Q163 710 290 710M290 595Q238 595 214.50 538.50Q191 482 191 347Q191 253 201.50 199Q212 145 233.50 121.50Q255 98 290 98Q326 98 347.50 121Q369 144 379.50 198.50Q390 253 390 347Q390 483 366.50 539Q343 595 290 595M290-235Q251-235 227.50-210.50Q204-186 204-148Q204-111 228-86.50Q252-62 290-62Q328-62 352-86.50Q376-111 376-148Q376-186 352-210.50Q328-235 290-235Z"  horiz-adv-x="581" vert-adv-y="1000"  />

      
      <glyph glyph-name="unid2" unicode="&#xd2;" d="M290 710Q418 710 485.50 619.50Q553 529 553 347Q553 167 485 75Q417-17 290-17Q163-17 95.50 73.50Q28 164 28 347Q28 527 95.50 618.50Q163 710 290 710M290 595Q238 595 214.50 538.50Q191 482 191 347Q191 253 201.50 199Q212 145 233.50 121.50Q255 98 290 98Q326 98 347.50 121Q369 144 379.50 198.50Q390 253 390 347Q390 483 366.50 539Q343 595 290 595M225 944L409 825L371 751L168 835L225 944Z"  horiz-adv-x="581" vert-adv-y="1000"  />

      
      <glyph glyph-name="uni1ECE" unicode="&#x1ECE;" d="M290 710Q418 710 485.50 619.50Q553 529 553 347Q553 167 485 75Q417-17 290-17Q163-17 95.50 73.50Q28 164 28 347Q28 527 95.50 618.50Q163 710 290 710M290 595Q238 595 214.50 538.50Q191 482 191 347Q191 253 201.50 199Q212 145 233.50 121.50Q255 98 290 98Q326 98 347.50 121Q369 144 379.50 198.50Q390 253 390 347Q390 483 366.50 539Q343 595 290 595M247 853Q279 855 292 863Q305 871 305 891Q305 907 296.50 915Q288 923 274 923Q260 923 249 920Q238 917 224 910L201 974Q241 999 295 999Q346 999 374 971.50Q402 944 402 899Q402 861 384 837.50Q366 814 332 807L332 764L247 764L247 853Z"  horiz-adv-x="581" vert-adv-y="1000"  />

      
      <glyph glyph-name="uni01A0" unicode="&#x01A0;" d="M609 684Q609 634 585 604Q561 574 517 564Q553 482 553 347Q553 167 485 75Q417-17 290-17Q163-17 95.50 73.50Q28 164 28 347Q28 527 95.50 618.50Q163 710 290 710Q408 710 475 634Q495 637 503 648.50Q511 660 511 684Q511 721 500 758L593 773Q609 727 609 684M290 98Q326 98 347.50 121Q369 144 379.50 198.50Q390 253 390 347Q390 483 366.50 539Q343 595 290 595Q238 595 214.50 538.50Q191 482 191 347Q191 253 201.50 199Q212 145 233.50 121.50Q255 98 290 98Z"  horiz-adv-x="618" vert-adv-y="1000"  />

      
      <glyph glyph-name="uni1EDA" unicode="&#x1EDA;" d="M410 836L207 751L169 825L353 945L410 836M609 684Q609 634 585 604Q561 574 517 564Q553 482 553 347Q553 167 485 75Q417-17 290-17Q163-17 95.50 73.50Q28 164 28 347Q28 527 95.50 618.50Q163 710 290 710Q408 710 475 634Q495 637 503 648.50Q511 660 511 684Q511 721 500 758L593 773Q609 727 609 684M290 98Q326 98 347.50 121Q369 144 379.50 198.50Q390 253 390 347Q390 483 366.50 539Q343 595 290 595Q238 595 214.50 538.50Q191 482 191 347Q191 253 201.50 199Q212 145 233.50 121.50Q255 98 290 98Z"  horiz-adv-x="618" vert-adv-y="1000"  />

      
      <glyph glyph-name="uni1EE2" unicode="&#x1EE2;" d="M609 684Q609 634 585 604Q561 574 517 564Q553 482 553 347Q553 167 485 75Q417-17 290-17Q163-17 95.50 73.50Q28 164 28 347Q28 527 95.50 618.50Q163 710 290 710Q408 710 475 634Q495 637 503 648.50Q511 660 511 684Q511 721 500 758L593 773Q609 727 609 684M290 98Q326 98 347.50 121Q369 144 379.50 198.50Q390 253 390 347Q390 483 366.50 539Q343 595 290 595Q238 595 214.50 538.50Q191 482 191 347Q191 253 201.50 199Q212 145 233.50 121.50Q255 98 290 98M290-62Q328-62 352-86.50Q376-111 376-148Q376-186 352-210.50Q328-235 290-235Q251-235 227.50-210.50Q204-186 204-148Q204-111 228-86.50Q252-62 290-62Z"  horiz-adv-x="618" vert-adv-y="1000"  />

      
      <glyph glyph-name="uni1EDC" unicode="&#x1EDC;" d="M409 825L371 751L168 835L225 944L409 825M609 684Q609 634 585 604Q561 574 517 564Q553 482 553 347Q553 167 485 75Q417-17 290-17Q163-17 95.50 73.50Q28 164 28 347Q28 527 95.50 618.50Q163 710 290 710Q408 710 475 634Q495 637 503 648.50Q511 660 511 684Q511 721 500 758L593 773Q609 727 609 684M290 98Q326 98 347.50 121Q369 144 379.50 198.50Q390 253 390 347Q390 483 366.50 539Q343 595 290 595Q238 595 214.50 538.50Q191 482 191 347Q191 253 201.50 199Q212 145 233.50 121.50Q255 98 290 98Z"  horiz-adv-x="618" vert-adv-y="1000"  />

      
      <glyph glyph-name="uni1EDE" unicode="&#x1EDE;" d="M274 923Q260 923 249 920Q238 917 224 910L201 974Q241 999 295 999Q346 999 374 971.50Q402 944 402 899Q402 861 384 837.50Q366 814 332 807L332 764L247 764L247 853Q279 855 292 863Q305 871 305 891Q305 907 297 915Q289 923 274 923M609 684Q609 634 585 604Q561 574 517 564Q553 482 553 347Q553 167 485 75Q417-17 290-17Q163-17 95.50 73.50Q28 164 28 347Q28 527 95.50 618.50Q163 710 290 710Q408 710 475 634Q495 637 503 648.50Q511 660 511 684Q511 721 500 758L593 773Q609 727 609 684M290 98Q326 98 347.50 121Q369 144 379.50 198.50Q390 253 390 347Q390 483 366.50 539Q343 595 290 595Q238 595 214.50 538.50Q191 482 191 347Q191 253 201.50 199Q212 145 233.50 121.50Q255 98 290 98Z"  horiz-adv-x="618" vert-adv-y="1000"  />

      
      <glyph glyph-name="uni1EE0" unicode="&#x1EE0;" d="M243 808Q230 808 221 798.50Q212 789 200 767L130 800Q146 850 175 880.50Q204 911 241 911Q259 911 272 905Q285 899 304 887Q315 878 323 874Q331 870 340 870Q353 870 361.50 879.50Q370 889 381 910L452 878Q436 827 407 797.50Q378 768 341 768Q322 768 308.50 774.50Q295 781 278 792Q257 808 243 808M609 684Q609 634 585 604Q561 574 517 564Q553 482 553 347Q553 167 485 75Q417-17 290-17Q163-17 95.50 73.50Q28 164 28 347Q28 527 95.50 618.50Q163 710 290 710Q408 710 475 634Q495 637 503 648.50Q511 660 511 684Q511 721 500 758L593 773Q609 727 609 684M290 98Q326 98 347.50 121Q369 144 379.50 198.50Q390 253 390 347Q390 483 366.50 539Q343 595 290 595Q238 595 214.50 538.50Q191 482 191 347Q191 253 201.50 199Q212 145 233.50 121.50Q255 98 290 98Z"  horiz-adv-x="618" vert-adv-y="1000"  />

      
      <glyph glyph-name="uni0150" unicode="&#x0150;" d="M290 710Q418 710 485.50 619.50Q553 529 553 347Q553 167 485 75Q417-17 290-17Q163-17 95.50 73.50Q28 164 28 347Q28 527 95.50 618.50Q163 710 290 710M290 595Q238 595 214.50 538.50Q191 482 191 347Q191 253 201.50 199Q212 145 233.50 121.50Q255 98 290 98Q326 98 347.50 121Q369 144 379.50 198.50Q390 253 390 347Q390 483 366.50 539Q343 595 290 595M253 981L349 934L250 757L178 787L253 981M404 981L498 931L393 752L323 787L404 981Z"  horiz-adv-x="581" vert-adv-y="1000"  />

      
      <glyph glyph-name="uni01A2" unicode="&#x01A2;" d="M581 710Q660 710 708.50 663Q757 616 757 532L757-209L600-209L600 540Q600 600 556 600Q531 600 506 587Q553 498 553 347Q553 167 485 75Q417-17 290-17Q163-17 95.50 73.50Q28 164 28 347Q28 527 95.50 618.50Q163 710 290 710Q381 710 442 664Q504 710 581 710M290 98Q326 98 347.50 121Q369 144 379.50 198.50Q390 253 390 347Q390 483 366.50 539Q343 595 290 595Q238 595 214.50 538.50Q191 482 191 347Q191 253 201.50 199Q212 145 233.50 121.50Q255 98 290 98Z"  horiz-adv-x="803" vert-adv-y="1000"  />

      
      <glyph glyph-name="uni020E" unicode="&#x020E;" d="M290 710Q418 710 485.50 619.50Q553 529 553 347Q553 167 485 75Q417-17 290-17Q163-17 95.50 73.50Q28 164 28 347Q28 527 95.50 618.50Q163 710 290 710M290 595Q238 595 214.50 538.50Q191 482 191 347Q191 253 201.50 199Q212 145 233.50 121.50Q255 98 290 98Q326 98 347.50 121Q369 144 379.50 198.50Q390 253 390 347Q390 483 366.50 539Q343 595 290 595M291 948Q359 948 396 903.50Q433 859 438 780L358 765Q344 845 291 845Q238 845 222 765L143 780Q148 859 185.50 903.50Q223 948 291 948Z"  horiz-adv-x="581" vert-adv-y="1000"  />

      
      <glyph glyph-name="uni014C" unicode="&#x014C;" d="M290 710Q418 710 485.50 619.50Q553 529 553 347Q553 167 485 75Q417-17 290-17Q163-17 95.50 73.50Q28 164 28 347Q28 527 95.50 618.50Q163 710 290 710M290 595Q238 595 214.50 538.50Q191 482 191 347Q191 253 201.50 199Q212 145 233.50 121.50Q255 98 290 98Q326 98 347.50 121Q369 144 379.50 198.50Q390 253 390 347Q390 483 366.50 539Q343 595 290 595M420 784L160 784L160 886L420 886L420 784Z"  horiz-adv-x="581" vert-adv-y="1000"  />

      
      <glyph glyph-name="uni1E52" unicode="&#x1E52;" d="M290 710Q418 710 485.50 619.50Q553 529 553 347Q553 167 485 75Q417-17 290-17Q163-17 95.50 73.50Q28 164 28 347Q28 527 95.50 618.50Q163 710 290 710M290 595Q238 595 214.50 538.50Q191 482 191 347Q191 253 201.50 199Q212 145 233.50 121.50Q255 98 290 98Q326 98 347.50 121Q369 144 379.50 198.50Q390 253 390 347Q390 483 366.50 539Q343 595 290 595M420 762L160 762L160 864L420 864L420 762M348 1094L405 985L202 900L164 974L348 1094Z"  horiz-adv-x="581" vert-adv-y="1000"  />

      
      <glyph glyph-name="uni1E50" unicode="&#x1E50;" d="M226 1098L410 979L372 905L169 989L226 1098M420 762L160 762L160 864L420 864L420 762M290 710Q418 710 485.50 619.50Q553 529 553 347Q553 167 485 75Q417-17 290-17Q163-17 95.50 73.50Q28 164 28 347Q28 527 95.50 618.50Q163 710 290 710M290 595Q238 595 214.50 538.50Q191 482 191 347Q191 253 201.50 199Q212 145 233.50 121.50Q255 98 290 98Q326 98 347.50 121Q369 144 379.50 198.50Q390 253 390 347Q390 483 366.50 539Q343 595 290 595Z"  horiz-adv-x="581" vert-adv-y="1000"  />

      
      <glyph glyph-name="uniA7B6" unicode="&#xA7B6;" d="M646 693Q676 611 693.50 517.50Q711 424 711 302Q711 134 663.50 59Q616-16 525-16Q462-16 426 12.50Q390 41 375 101Q349-16 231-16Q132-16 85 57.50Q38 131 38 302Q38 423 55 516.50Q72 610 102 693L247 693Q221 586 208 502Q195 418 195 310Q195 227 201 181.50Q207 136 219.50 117.50Q232 99 254 99Q298 99 298 161L298 399L454 399L454 161Q454 129 464.50 113.50Q475 98 498 98Q519 98 531 115Q543 132 548.50 177.50Q554 223 554 309Q554 419 539 505.50Q524 592 495 693L646 693Z"  horiz-adv-x="749" vert-adv-y="1000"  />

      
      <glyph glyph-name="uni01EA" unicode="&#x01EA;" d="M553 347Q553 206 511 118.50Q469 31 389 0Q334-26 314-51Q294-76 294-104Q294-150 338-150Q361-150 386-143L377-236Q348-244 319-244Q261-244 224.50-214Q188-184 188-130Q188-62 246-14Q140 0 84 90.50Q28 181 28 347Q28 527 95.50 618.50Q163 710 290 710Q418 710 485.50 619.50Q553 529 553 347M290 98Q326 98 347.50 121Q369 144 379.50 198.50Q390 253 390 347Q390 483 366.50 539Q343 595 290 595Q238 595 214.50 538.50Q191 482 191 347Q191 253 201.50 199Q212 145 233.50 121.50Q255 98 290 98Z"  horiz-adv-x="581" vert-adv-y="1000"  />

      
      <glyph glyph-name="uni01EC" unicode="&#x01EC;" d="M420 886L420 784L160 784L160 886L420 886M553 347Q553 206 511 118.50Q469 31 389 0Q334-26 314-51Q294-76 294-104Q294-150 338-150Q361-150 386-143L377-236Q348-244 319-244Q261-244 224.50-214Q188-184 188-130Q188-62 246-14Q140 0 84 90.50Q28 181 28 347Q28 527 95.50 618.50Q163 710 290 710Q418 710 485.50 619.50Q553 529 553 347M290 98Q326 98 347.50 121Q369 144 379.50 198.50Q390 253 390 347Q390 483 366.50 539Q343 595 290 595Q238 595 214.50 538.50Q191 482 191 347Q191 253 201.50 199Q212 145 233.50 121.50Q255 98 290 98Z"  horiz-adv-x="581" vert-adv-y="1000"  />

      
      <glyph glyph-name="uni0186" unicode="&#x0186;" d="M198 710Q318 710 387 619.50Q456 529 456 348Q456 168 385 76Q314-16 191-16Q133-16 85.50 8.50Q38 33 2 71L74 156Q106 130 129 117.50Q152 105 183 105Q236 105 264.50 160.50Q293 216 293 348Q293 484 267 538.50Q241 593 189 593Q159 593 134.50 581.50Q110 570 84 548L9 634Q49 672 94.50 691Q140 710 198 710Z"  horiz-adv-x="484" vert-adv-y="1000"  />

      
      <glyph glyph-name="unid8" unicode="&#xd8;" d="M433 670Q553 588 553 347Q553 167 485 75.50Q417-16 290-16Q269-16 259-15L230-133L115-103L148 23Q28 105 28 347Q28 526 95.50 617.50Q163 709 290 709Q311 709 321 708L351 827L467 795L433 670M290 597Q251 597 227.50 573Q204 549 193 494.50Q182 440 182 347Q182 267 189 217Q196 167 210 140L310 596Q304 597 290 597M398 347Q398 423 391.50 471.50Q385 520 371 548L272 97Q278 96 290 96Q330 96 353 119Q376 142 386.50 196Q397 250 398 347Z"  horiz-adv-x="581" vert-adv-y="1000"  />

      
      <glyph glyph-name="uni01FE" unicode="&#x01FE;" d="M433 670Q553 588 553 347Q553 167 485 75.50Q417-16 290-16Q269-16 259-15L230-133L115-103L148 23Q28 105 28 347Q28 526 95.50 617.50Q163 709 290 709Q311 709 321 708L351 827L467 795L433 670M290 597Q251 597 227.50 573Q204 549 193 494.50Q182 440 182 347Q182 267 189 217Q196 167 210 140L310 596Q304 597 290 597M398 347Q398 423 391.50 471.50Q385 520 371 548L272 97Q278 96 290 96Q330 96 353 119Q376 142 386.50 196Q397 250 398 347M353 977L410 868L207 783L169 857L353 977Z"  horiz-adv-x="581" vert-adv-y="1000"  />

      
      <glyph glyph-name="unid5" unicode="&#xd5;" d="M290 710Q418 710 485.50 619.50Q553 529 553 347Q553 167 485 75Q417-17 290-17Q163-17 95.50 73.50Q28 164 28 347Q28 527 95.50 618.50Q163 710 290 710M290 595Q238 595 214.50 538.50Q191 482 191 347Q191 253 201.50 199Q212 145 233.50 121.50Q255 98 290 98Q326 98 347.50 121Q369 144 379.50 198.50Q390 253 390 347Q390 483 366.50 539Q343 595 290 595M341 768Q322 768 308.50 774.50Q295 781 278 792Q257 808 243 808Q230 808 221 798.50Q212 789 200 767L130 800Q146 850 175 880.50Q204 911 241 911Q259 911 272 905Q285 899 304 887Q315 878 323 874Q331 870 340 870Q353 870 361.50 879.50Q370 889 381 910L452 878Q436 827 407 797.50Q378 768 341 768Z"  horiz-adv-x="581" vert-adv-y="1000"  />

      
      <glyph glyph-name="uni1E4C" unicode="&#x1E4C;" d="M290 710Q418 710 485.50 619.50Q553 529 553 347Q553 167 485 75Q417-17 290-17Q163-17 95.50 73.50Q28 164 28 347Q28 527 95.50 618.50Q163 710 290 710M290 595Q238 595 214.50 538.50Q191 482 191 347Q191 253 201.50 199Q212 145 233.50 121.50Q255 98 290 98Q326 98 347.50 121Q369 144 379.50 198.50Q390 253 390 347Q390 483 366.50 539Q343 595 290 595M341 761Q322 761 308.50 767.50Q295 774 278 785Q257 801 243 801Q230 801 221 791.50Q212 782 200 760L130 793Q146 843 175 873.50Q204 904 241 904Q259 904 272 898Q285 892 304 880Q315 871 323 867Q331 863 340 863Q353 863 361.50 872.50Q370 882 381 903L452 871Q436 820 407 790.50Q378 761 341 761M354 1118L411 1009L208 924L170 998L354 1118Z"  horiz-adv-x="581" vert-adv-y="1000"  />

      
      <glyph glyph-name="uni022C" unicode="&#x022C;" d="M290 710Q418 710 485.50 619.50Q553 529 553 347Q553 167 485 75Q417-17 290-17Q163-17 95.50 73.50Q28 164 28 347Q28 527 95.50 618.50Q163 710 290 710M290 595Q238 595 214.50 538.50Q191 482 191 347Q191 253 201.50 199Q212 145 233.50 121.50Q255 98 290 98Q326 98 347.50 121Q369 144 379.50 198.50Q390 253 390 347Q390 483 366.50 539Q343 595 290 595M341 761Q322 761 308.50 767.50Q295 774 278 785Q257 801 243 801Q230 801 221 791.50Q212 782 200 760L130 793Q146 843 175 873.50Q204 904 241 904Q259 904 272 898Q285 892 304 880Q315 871 323 867Q331 863 340 863Q353 863 361.50 872.50Q370 882 381 903L452 871Q436 820 407 790.50Q378 761 341 761M421 945L161 945L161 1047L421 1047L421 945Z"  horiz-adv-x="581" vert-adv-y="1000"  />

      
      <glyph glyph-name="uni0152" unicode="&#x0152;" d="M533 296Q525 187 477 114L728 114L728 0L362 0Q323-17 276-17Q160-17 94 77Q28 171 28 347Q28 522 94 616Q160 710 276 710Q324 710 363 693L731 693L715 581L476 581Q523 511 532 408L692 408L692 296L533 296M282 98Q330 98 352 154Q374 210 374 347Q374 482 351.50 538.50Q329 595 282 595Q235 595 213 538.50Q191 482 191 347Q191 211 213 154.50Q235 98 282 98Z"  horiz-adv-x="751" vert-adv-y="1000"  />

      
      <glyph glyph-name="uni50" unicode="&#x50;" d="M224 693Q353 693 421 636Q489 579 489 468Q489 352 424 292.50Q359 233 240 233L203 233L203 0L46 0L46 693L224 693M227 347Q281 347 304.50 374.50Q328 402 328 468Q328 526 305.50 553.50Q283 581 229 581L203 581L203 347L227 347Z"  horiz-adv-x="499" vert-adv-y="1000"  />

      
      <glyph glyph-name="uni1E54" unicode="&#x1E54;" d="M224 693Q353 693 421 636Q489 579 489 468Q489 352 424 292.50Q359 233 240 233L203 233L203 0L46 0L46 693L224 693M227 347Q281 347 304.50 374.50Q328 402 328 468Q328 526 305.50 553.50Q283 581 229 581L203 581L203 347L227 347M317 945L374 836L171 751L133 825L317 945Z"  horiz-adv-x="499" vert-adv-y="1000"  />

      
      <glyph glyph-name="uni1E56" unicode="&#x1E56;" d="M224 693Q353 693 421 636Q489 579 489 468Q489 352 424 292.50Q359 233 240 233L203 233L203 0L46 0L46 693L224 693M227 347Q281 347 304.50 374.50Q328 402 328 468Q328 526 305.50 553.50Q283 581 229 581L203 581L203 347L227 347M253 933Q292 933 315.50 908.50Q339 884 339 846Q339 809 315 784.50Q291 760 253 760Q215 760 191 784.50Q167 809 167 846Q167 884 191 908.50Q215 933 253 933Z"  horiz-adv-x="499" vert-adv-y="1000"  />

      
      <glyph glyph-name="uni01A4" unicode="&#x01A4;" d="M355 693Q484 693 552 636Q620 579 620 468Q620 352 555 292.50Q490 233 371 233L334 233L334 0L177 0L177 581L159 581Q121 581 121 539Q121 506 139 470L43 428Q24 456 13.50 486Q3 516 3 554Q3 618 45 655.50Q87 693 166 693L355 693M358 347Q412 347 435.50 374.50Q459 402 459 468Q459 526 436.50 553.50Q414 581 360 581L334 581L334 347L358 347Z"  horiz-adv-x="631" vert-adv-y="1000"  />

      
      <glyph glyph-name="unide" unicode="&#xde;" d="M237 583Q358 583 423.50 525.50Q489 468 489 356Q489 236 425.50 176Q362 116 248 116L203 116L203 0L46 0L46 693L203 693L203 583L237 583M233 228Q284 228 307.50 257.50Q331 287 331 356Q331 418 306.50 445Q282 472 232 472L203 472L203 228L233 228Z"  horiz-adv-x="499" vert-adv-y="1000"  />

      
      <glyph glyph-name="uni51" unicode="&#x51;" d="M412 44Q473 43 514.50 27Q556 11 594-25L500-143Q458-82 406-47.50Q354-13 280-13Q161-13 94.50 79Q28 171 28 347Q28 525 96 617.50Q164 710 290 710Q418 710 485.50 618.50Q553 527 553 347Q553 225 515 155Q477 85 412 44M191 347Q191 254 201.50 199.50Q212 145 233.50 122Q255 99 290 99Q326 99 347.50 122Q369 145 379.50 199Q390 253 390 347Q390 440 379.50 494Q369 548 347 571.50Q325 595 290 595Q255 595 233.50 571.50Q212 548 201.50 494Q191 440 191 347Z"  horiz-adv-x="581" vert-adv-y="1000"  />

      
      <glyph glyph-name="uni024A" unicode="&#x024A;" d="M667-179Q614-221 540-221Q459-221 410.50-177Q362-133 362-48L362 26Q315-16 248-16Q184-16 134.50 23Q85 62 56.50 140.50Q28 219 28 335Q28 457 57 541.50Q86 626 136 668Q186 710 250 710Q324 710 373 658L378 693L519 693L519-57Q519-106 560-106Q576-106 588-102.50Q600-99 615-90L667-179M284 96Q329 96 362 131L362 559Q346 577 328 586Q310 595 286 595Q238 595 214.50 537.50Q191 480 191 335Q191 241 201.50 188.50Q212 136 232 116Q252 96 284 96Z"  horiz-adv-x="565" vert-adv-y="1000"  />

      
      <glyph glyph-name="uni52" unicode="&#x52;" d="M359 0L246 267L241 267L203 267L203 0L46 0L46 693L231 693Q489 693 489 483Q489 422 463.50 373Q438 324 384 297L526 0L359 0M235 376Q285 376 307 401.50Q329 427 329 483Q329 534 305.50 558Q282 582 230 582L203 582L203 376L235 376Z"  horiz-adv-x="517" vert-adv-y="1000"  />

      
      <glyph glyph-name="uni0154" unicode="&#x0154;" d="M359 0L246 267L241 267L203 267L203 0L46 0L46 693L231 693Q489 693 489 483Q489 422 463.50 373Q438 324 384 297L526 0L359 0M235 376Q285 376 307 401.50Q329 427 329 483Q329 534 305.50 558Q282 582 230 582L203 582L203 376L235 376M317 945L374 836L171 751L133 825L317 945Z"  horiz-adv-x="517" vert-adv-y="1000"  />

      
      <glyph glyph-name="uni0158" unicode="&#x0158;" d="M359 0L246 267L241 267L203 267L203 0L46 0L46 693L231 693Q489 693 489 483Q489 422 463.50 373Q438 324 384 297L526 0L359 0M235 376Q285 376 307 401.50Q329 427 329 483Q329 534 305.50 558Q282 582 230 582L203 582L203 376L235 376M365 936L417 881L299 750L209 750L91 881L143 936L254 852L365 936Z"  horiz-adv-x="517" vert-adv-y="1000"  />

      
      <glyph glyph-name="uni0156" unicode="&#x0156;" d="M359 0L246 267L241 267L203 267L203 0L46 0L46 693L231 693Q489 693 489 483Q489 422 463.50 373Q438 324 384 297L526 0L359 0M235 376Q285 376 307 401.50Q329 427 329 483Q329 534 305.50 558Q282 582 230 582L203 582L203 376L235 376M261-69Q293-69 313-90Q333-111 333-144Q333-161 328.50-177.50Q324-194 311-227L271-322L198-322L224-206Q188-184 188-144Q188-112 208.50-90.50Q229-69 261-69Z"  horiz-adv-x="517" vert-adv-y="1000"  />

      
      <glyph glyph-name="uni0210" unicode="&#x0210;" d="M359 0L246 267L241 267L203 267L203 0L46 0L46 693L231 693Q489 693 489 483Q489 422 463.50 373Q438 324 384 297L526 0L359 0M235 376Q285 376 307 401.50Q329 427 329 483Q329 534 305.50 558Q282 582 230 582L203 582L203 376L235 376M142 981L223 787L153 752L48 931L142 981M293 981L368 787L296 757L198 934L293 981Z"  horiz-adv-x="517" vert-adv-y="1000"  />

      
      <glyph glyph-name="uni1E5A" unicode="&#x1E5A;" d="M359 0L246 267L241 267L203 267L203 0L46 0L46 693L231 693Q489 693 489 483Q489 422 463.50 373Q438 324 384 297L526 0L359 0M235 376Q285 376 307 401.50Q329 427 329 483Q329 534 305.50 558Q282 582 230 582L203 582L203 376L235 376M261-235Q222-235 198.50-210.50Q175-186 175-148Q175-111 199-86.50Q223-62 261-62Q299-62 323-86.50Q347-111 347-148Q347-186 323-210.50Q299-235 261-235Z"  horiz-adv-x="517" vert-adv-y="1000"  />

      
      <glyph glyph-name="uni0212" unicode="&#x0212;" d="M359 0L246 267L241 267L203 267L203 0L46 0L46 693L231 693Q489 693 489 483Q489 422 463.50 373Q438 324 384 297L526 0L359 0M235 376Q285 376 307 401.50Q329 427 329 483Q329 534 305.50 558Q282 582 230 582L203 582L203 376L235 376M255 948Q323 948 360 903.50Q397 859 402 780L322 765Q308 845 255 845Q202 845 186 765L107 780Q112 859 149.50 903.50Q187 948 255 948Z"  horiz-adv-x="517" vert-adv-y="1000"  />

      
      <glyph glyph-name="uni024C" unicode="&#x024C;" d="M370 0L257 267L214 267L214 0L57 0L57 267L14 267L14 376L57 376L57 693L242 693Q500 693 500 483Q500 422 474.50 373Q449 324 395 297L537 0L370 0M246 376Q296 376 318 401.50Q340 427 340 483Q340 534 316.50 558Q293 582 241 582L214 582L214 376L246 376Z"  horiz-adv-x="529" vert-adv-y="1000"  />

      
      <glyph glyph-name="uni2C64" unicode="&#x2C64;" d="M203-57Q203-106 244-106Q260-106 272-102.50Q284-99 299-90L351-179Q298-221 224-221Q143-221 94.50-177Q46-133 46-48L46 693L231 693Q489 693 489 483Q489 422 463.50 373Q438 324 384 297L526 0L359 0L246 267L241 267L203 267L203-57M203 582L203 376L235 376Q285 376 307 401.50Q329 427 329 483Q329 534 305.50 558Q282 582 230 582L203 582Z"  horiz-adv-x="517" vert-adv-y="1000"  />

      
      <glyph glyph-name="uni53" unicode="&#x53;" d="M241 710Q306 710 355.50 688Q405 666 446 622L377 540Q317 595 258 595Q224 595 205 575Q186 555 186 522Q186 490 208 469.50Q230 449 293 422Q351 396 387 368.50Q423 341 441.50 301Q460 261 460 202Q460 139 431.50 89Q403 39 350 11Q297-17 226-17Q152-17 98 9Q44 35 1 81L76 164Q112 132 144.50 115.50Q177 99 214 99Q255 99 276 123.50Q297 148 297 190Q297 228 276 252.50Q255 277 200 299Q104 339 64 387.50Q24 436 24 510Q24 569 52 614.50Q80 660 129.50 685Q179 710 241 710Z"  horiz-adv-x="477" vert-adv-y="1000"  />

      
      <glyph glyph-name="uni015A" unicode="&#x015A;" d="M241 710Q306 710 355.50 688Q405 666 446 622L377 540Q317 595 258 595Q224 595 205 575Q186 555 186 522Q186 490 208 469.50Q230 449 293 422Q351 396 387 368.50Q423 341 441.50 301Q460 261 460 202Q460 139 431.50 89Q403 39 350 11Q297-17 226-17Q152-17 98 9Q44 35 1 81L76 164Q112 132 144.50 115.50Q177 99 214 99Q255 99 276 123.50Q297 148 297 190Q297 228 276 252.50Q255 277 200 299Q104 339 64 387.50Q24 436 24 510Q24 569 52 614.50Q80 660 129.50 685Q179 710 241 710M309 945L366 836L163 751L125 825L309 945Z"  horiz-adv-x="477" vert-adv-y="1000"  />

      
      <glyph glyph-name="uniA78B" unicode="&#xA78B;" d="M58 336L42 693L185 693L168 336L58 336Z"  horiz-adv-x="227" vert-adv-y="1000"  />

      
      <glyph glyph-name="uni0160" unicode="&#x0160;" d="M241 710Q306 710 355.50 688Q405 666 446 622L377 540Q317 595 258 595Q224 595 205 575Q186 555 186 522Q186 490 208 469.50Q230 449 293 422Q351 396 387 368.50Q423 341 441.50 301Q460 261 460 202Q460 139 431.50 89Q403 39 350 11Q297-17 226-17Q152-17 98 9Q44 35 1 81L76 164Q112 132 144.50 115.50Q177 99 214 99Q255 99 276 123.50Q297 148 297 190Q297 228 276 252.50Q255 277 200 299Q104 339 64 387.50Q24 436 24 510Q24 569 52 614.50Q80 660 129.50 685Q179 710 241 710M357 936L409 881L291 750L201 750L83 881L135 936L246 852L357 936Z"  horiz-adv-x="477" vert-adv-y="1000"  />

      
      <glyph glyph-name="uni015E" unicode="&#x015E;" d="M460 202Q460 118 410.50 59Q361 0 275-13L275-53Q362-67 362-148Q362-198 328-228.50Q294-259 233-259Q175-259 134-230L168-164Q194-177 222-177Q257-177 257-146Q257-127 239-119Q221-111 181-111L191-15Q80-5 1 81L76 164Q112 132 144.50 115.50Q177 99 214 99Q255 99 276 123.50Q297 148 297 190Q297 228 276 252.50Q255 277 200 299Q104 339 64 387.50Q24 436 24 510Q24 569 52 614.50Q80 660 129.50 685Q179 710 241 710Q306 710 355.50 688Q405 666 446 622L377 540Q317 595 258 595Q224 595 205 575Q186 555 186 522Q186 490 208 469.50Q230 449 293 422Q351 396 387 368.50Q423 341 441.50 301Q460 261 460 202Z"  horiz-adv-x="477" vert-adv-y="1000"  />

      
      <glyph glyph-name="uni015C" unicode="&#x015C;" d="M241 710Q306 710 355.50 688Q405 666 446 622L377 540Q317 595 258 595Q224 595 205 575Q186 555 186 522Q186 490 208 469.50Q230 449 293 422Q351 396 387 368.50Q423 341 441.50 301Q460 261 460 202Q460 139 431.50 89Q403 39 350 11Q297-17 226-17Q152-17 98 9Q44 35 1 81L76 164Q112 132 144.50 115.50Q177 99 214 99Q255 99 276 123.50Q297 148 297 190Q297 228 276 252.50Q255 277 200 299Q104 339 64 387.50Q24 436 24 510Q24 569 52 614.50Q80 660 129.50 685Q179 710 241 710M135 760L83 814L201 945L291 945L409 814L357 760L246 843L135 760Z"  horiz-adv-x="477" vert-adv-y="1000"  />

      
      <glyph glyph-name="uni0218" unicode="&#x0218;" d="M241 710Q306 710 355.50 688Q405 666 446 622L377 540Q317 595 258 595Q224 595 205 575Q186 555 186 522Q186 490 208 469.50Q230 449 293 422Q351 396 387 368.50Q423 341 441.50 301Q460 261 460 202Q460 139 431.50 89Q403 39 350 11Q297-17 226-17Q152-17 98 9Q44 35 1 81L76 164Q112 132 144.50 115.50Q177 99 214 99Q255 99 276 123.50Q297 148 297 190Q297 228 276 252.50Q255 277 200 299Q104 339 64 387.50Q24 436 24 510Q24 569 52 614.50Q80 660 129.50 685Q179 710 241 710M236-69Q268-69 288-90Q308-111 308-144Q308-161 303.50-177.50Q299-194 286-227L246-322L173-322L199-206Q163-184 163-144Q163-112 183.50-90.50Q204-69 236-69Z"  horiz-adv-x="477" vert-adv-y="1000"  />

      
      <glyph glyph-name="uni1E60" unicode="&#x1E60;" d="M241 710Q306 710 355.50 688Q405 666 446 622L377 540Q317 595 258 595Q224 595 205 575Q186 555 186 522Q186 490 208 469.50Q230 449 293 422Q351 396 387 368.50Q423 341 441.50 301Q460 261 460 202Q460 139 431.50 89Q403 39 350 11Q297-17 226-17Q152-17 98 9Q44 35 1 81L76 164Q112 132 144.50 115.50Q177 99 214 99Q255 99 276 123.50Q297 148 297 190Q297 228 276 252.50Q255 277 200 299Q104 339 64 387.50Q24 436 24 510Q24 569 52 614.50Q80 660 129.50 685Q179 710 241 710M245 933Q284 933 307.50 908.50Q331 884 331 846Q331 809 307 784.50Q283 760 245 760Q207 760 183 784.50Q159 809 159 846Q159 884 183 908.50Q207 933 245 933Z"  horiz-adv-x="477" vert-adv-y="1000"  />

      
      </font>
</defs>
</svg>
