<?xml version="1.0" standalone="no"?>
  <!DOCTYPE svg PUBLIC "-//W3C//DTD SVG 1.1//EN" "http://www.w3.org/Graphics/SVG/1.1/DTD/svg11.dtd" >
  <svg>
  <metadata>
  Created by font-carrier
  </metadata>
  <defs>
  <font id="FiraSansExtraCondensed-SemiBold" horiz-adv-x="1460" vert-adv-y="1460" >
    <font-face
      
      font-family="Fira Sans Extra Condensed SemiBold"
      
      font-weight="400"
      
      font-stretch="normal"
      
      units-per-em="1000"
      
      ascent="935"
      
      descent="-265"
      
    />
      <missing-glyph />

      

      
      <glyph glyph-name="uni41" unicode="&#x41;" d="M363 0L332 158L166 158L135 0L-5 0L166 692L336 692L506 0L363 0M186 261L312 261L249 587L186 261Z"  horiz-adv-x="501" vert-adv-y="1000"  />

      
      <glyph glyph-name="unic1" unicode="&#xc1;" d="M363 0L332 158L166 158L135 0L-5 0L166 692L336 692L506 0L363 0M186 261L312 261L249 587L186 261M314 936L366 835L169 752L134 820L314 936Z"  horiz-adv-x="501" vert-adv-y="1000"  />

      
      <glyph glyph-name="uni0102" unicode="&#x0102;" d="M363 0L332 158L166 158L135 0L-5 0L166 692L336 692L506 0L363 0M186 261L312 261L249 587L186 261M250 753Q186 753 149.50 793.50Q113 834 108 902L181 917Q197 850 250 850Q306 850 320 917L394 902Q389 834 352 793.50Q315 753 250 753Z"  horiz-adv-x="501" vert-adv-y="1000"  />

      
      <glyph glyph-name="uni1EAE" unicode="&#x1EAE;" d="M363 0L332 158L166 158L135 0L-5 0L166 692L336 692L506 0L363 0M186 261L312 261L249 587L186 261M250 737Q186 737 149.50 777.50Q113 818 108 886L181 901Q197 834 250 834Q306 834 320 901L394 886Q389 818 352 777.50Q315 737 250 737M318 1104L399 1035L259 894L206 939L318 1104Z"  horiz-adv-x="501" vert-adv-y="1000"  />

      
      <glyph glyph-name="uni1EB6" unicode="&#x1EB6;" d="M363 0L332 158L166 158L135 0L-5 0L166 692L336 692L506 0L363 0M186 261L312 261L249 587L186 261M250 753Q186 753 149.50 793.50Q113 834 108 902L181 917Q197 850 250 850Q306 850 320 917L394 902Q389 834 352 793.50Q315 753 250 753M250-226Q215-226 193-203Q171-180 171-145Q171-111 193-88.50Q215-66 250-66Q286-66 308-88.50Q330-111 330-145Q330-180 308-203Q286-226 250-226Z"  horiz-adv-x="501" vert-adv-y="1000"  />

      
      <glyph glyph-name="uni1EB0" unicode="&#x1EB0;" d="M363 0L332 158L166 158L135 0L-5 0L166 692L336 692L506 0L363 0M186 261L312 261L249 587L186 261M251 737Q187 737 150.50 777.50Q114 818 109 886L182 901Q198 834 251 834Q307 834 321 901L395 886Q390 818 353 777.50Q316 737 251 737M190 1104L303 939L248 894L109 1035L190 1104Z"  horiz-adv-x="501" vert-adv-y="1000"  />

      
      <glyph glyph-name="uni1EB2" unicode="&#x1EB2;" d="M363 0L332 158L166 158L135 0L-5 0L166 692L336 692L506 0L363 0M186 261L312 261L249 587L186 261M250 737Q186 737 149.50 777.50Q113 818 108 886L181 901Q197 834 250 834Q306 834 320 901L394 886Q389 818 352 777.50Q315 737 250 737M210 976Q242 979 255 987.50Q268 996 268 1016Q268 1032 260 1040.50Q252 1049 237 1049Q223 1049 212.50 1046Q202 1043 187 1036L165 1096Q203 1121 255 1121Q305 1121 332 1095Q359 1069 359 1024Q359 986 341 963Q323 940 290 933L290 889L210 889L210 976Z"  horiz-adv-x="501" vert-adv-y="1000"  />

      
      <glyph glyph-name="uni1EB4" unicode="&#x1EB4;" d="M363 0L332 158L166 158L135 0L-5 0L166 692L336 692L506 0L363 0M186 261L312 261L249 587L186 261M251 737Q187 737 150.50 777.50Q114 818 109 886L182 901Q198 834 251 834Q307 834 321 901L395 886Q390 818 353 777.50Q316 737 251 737M302 935Q283 935 269.50 941.50Q256 948 239 959Q218 975 204 975Q190 975 181 966Q172 957 160 935L95 963Q111 1008 138.50 1035.50Q166 1063 201 1063Q219 1063 232 1057Q245 1051 263 1040Q284 1024 299 1024Q312 1024 321 1033Q330 1042 342 1062L407 1035Q391 988 363.50 961.50Q336 935 302 935Z"  horiz-adv-x="501" vert-adv-y="1000"  />

      
      <glyph glyph-name="uni01CD" unicode="&#x01CD;" d="M363 0L332 158L166 158L135 0L-5 0L166 692L336 692L506 0L363 0M186 261L312 261L249 587L186 261M361 928L409 878L292 751L210 751L94 878L142 928L251 846L361 928Z"  horiz-adv-x="501" vert-adv-y="1000"  />

      
      <glyph glyph-name="unic2" unicode="&#xc2;" d="M363 0L332 158L166 158L135 0L-5 0L166 692L336 692L506 0L363 0M186 261L312 261L249 587L186 261M141 760L93 810L210 937L292 937L408 810L360 760L250 842L141 760Z"  horiz-adv-x="501" vert-adv-y="1000"  />

      
      <glyph glyph-name="uni1EA4" unicode="&#x1EA4;" d="M363 0L332 158L166 158L135 0L-5 0L166 692L336 692L506 0L363 0M186 261L312 261L249 587L186 261M142 724L94 774L211 901L293 901L409 774L361 724L251 806L142 724M447 1068L528 999L388 858L335 903L447 1068Z"  horiz-adv-x="501" vert-adv-y="1000"  />

      
      <glyph glyph-name="uni1EAC" unicode="&#x1EAC;" d="M363 0L332 158L166 158L135 0L-5 0L166 692L336 692L506 0L363 0M186 261L312 261L249 587L186 261M141 760L93 810L210 937L292 937L408 810L360 760L250 842L141 760M250-226Q215-226 193-203Q171-180 171-145Q171-111 193-88.50Q215-66 250-66Q286-66 308-88.50Q330-111 330-145Q330-180 308-203Q286-226 250-226Z"  horiz-adv-x="501" vert-adv-y="1000"  />

      
      <glyph glyph-name="uni1EA6" unicode="&#x1EA6;" d="M363 0L332 158L166 158L135 0L-5 0L166 692L336 692L506 0L363 0M186 261L312 261L249 587L186 261M141 724L93 774L210 901L292 901L408 774L360 724L250 806L141 724M57 1068L170 903L115 858L-24 999L57 1068Z"  horiz-adv-x="501" vert-adv-y="1000"  />

      
      <glyph glyph-name="uni1EA8" unicode="&#x1EA8;" d="M363 0L332 158L166 158L135 0L-5 0L166 692L336 692L506 0L363 0M186 261L312 261L249 587L186 261M141 724L93 774L210 901L292 901L408 774L360 724L250 806L141 724M354 930Q386 933 399 941.50Q412 950 412 970Q412 986 404 994.50Q396 1003 381 1003Q367 1003 356.50 1000Q346 997 331 990L309 1050Q347 1075 399 1075Q449 1075 476 1049Q503 1023 503 978Q503 940 485 917Q467 894 434 887L434 843L354 843L354 930Z"  horiz-adv-x="501" vert-adv-y="1000"  />

      
      <glyph glyph-name="uni1EAA" unicode="&#x1EAA;" d="M363 0L332 158L166 158L135 0L-5 0L166 692L336 692L506 0L363 0M186 261L312 261L249 587L186 261M141 724L93 774L210 901L292 901L408 774L360 724L250 806L141 724M301 935Q282 935 268.50 941.50Q255 948 238 959Q217 975 203 975Q189 975 180 966Q171 957 159 935L94 963Q110 1008 137.50 1035.50Q165 1063 200 1063Q218 1063 231 1057Q244 1051 262 1040Q283 1024 298 1024Q311 1024 320 1033Q329 1042 341 1062L406 1035Q390 988 362.50 961.50Q335 935 301 935Z"  horiz-adv-x="501" vert-adv-y="1000"  />

      
      <glyph glyph-name="uni0200" unicode="&#x0200;" d="M363 0L332 158L166 158L135 0L-5 0L166 692L336 692L506 0L363 0M186 261L312 261L249 587L186 261M141 974L220 786L154 754L53 927L141 974M287 974L359 788L292 759L197 930L287 974Z"  horiz-adv-x="501" vert-adv-y="1000"  />

      
      <glyph glyph-name="unic4" unicode="&#xc4;" d="M363 0L332 158L166 158L135 0L-5 0L166 692L336 692L506 0L363 0M186 261L312 261L249 587L186 261M159 914Q189 914 208.50 893.50Q228 873 228 843Q228 813 208.50 792.50Q189 772 159 772Q130 772 110 792.50Q90 813 90 843Q90 873 110 893.50Q130 914 159 914M351 914Q381 914 400.50 893.50Q420 873 420 843Q420 813 400.50 792.50Q381 772 351 772Q322 772 301.50 792.50Q281 813 281 843Q281 873 301.50 893.50Q322 914 351 914Z"  horiz-adv-x="501" vert-adv-y="1000"  />

      
      <glyph glyph-name="uni01DE" unicode="&#x01DE;" d="M363 0L332 158L166 158L135 0L-5 0L166 692L336 692L506 0L363 0M186 261L312 261L249 587L186 261M156 888Q186 888 205.50 867.50Q225 847 225 817Q225 787 205.50 766.50Q186 746 156 746Q127 746 107 766.50Q87 787 87 817Q87 847 107 867.50Q127 888 156 888M348 888Q378 888 397.50 867.50Q417 847 417 817Q417 787 397.50 766.50Q378 746 348 746Q319 746 298.50 766.50Q278 787 278 817Q278 847 298.50 867.50Q319 888 348 888M378 934L126 934L126 1027L378 1027L378 934Z"  horiz-adv-x="501" vert-adv-y="1000"  />

      
      <glyph glyph-name="uni0226" unicode="&#x0226;" d="M363 0L332 158L166 158L135 0L-5 0L166 692L336 692L506 0L363 0M186 261L312 261L249 587L186 261M251 926Q286 926 308 903Q330 880 330 845Q330 811 308 788.50Q286 766 251 766Q215 766 193 788.50Q171 811 171 845Q171 880 193 903Q215 926 251 926Z"  horiz-adv-x="501" vert-adv-y="1000"  />

      
      <glyph glyph-name="uni1EA0" unicode="&#x1EA0;" d="M363 0L332 158L166 158L135 0L-5 0L166 692L336 692L506 0L363 0M186 261L312 261L249 587L186 261M250-226Q215-226 193-203Q171-180 171-145Q171-111 193-88.50Q215-66 250-66Q286-66 308-88.50Q330-111 330-145Q330-180 308-203Q286-226 250-226Z"  horiz-adv-x="501" vert-adv-y="1000"  />

      
      <glyph glyph-name="uni01E0" unicode="&#x01E0;" d="M363 0L332 158L166 158L135 0L-5 0L166 692L336 692L506 0L363 0M186 261L312 261L249 587L186 261M251 899Q286 899 308 876Q330 853 330 818Q330 784 308 761.50Q286 739 251 739Q215 739 193 761.50Q171 784 171 818Q171 853 193 876Q215 899 251 899M377 935L125 935L125 1028L377 1028L377 935Z"  horiz-adv-x="501" vert-adv-y="1000"  />

      
      <glyph glyph-name="unic0" unicode="&#xc0;" d="M363 0L332 158L166 158L135 0L-5 0L166 692L336 692L506 0L363 0M186 261L312 261L249 587L186 261M185 936L365 819L330 752L133 835L185 936Z"  horiz-adv-x="501" vert-adv-y="1000"  />

      
      <glyph glyph-name="uni1EA2" unicode="&#x1EA2;" d="M363 0L332 158L166 158L135 0L-5 0L166 692L336 692L506 0L363 0M186 261L312 261L249 587L186 261M211 851Q243 854 256 862.50Q269 871 269 891Q269 907 261 915.50Q253 924 238 924Q224 924 213.50 921Q203 918 188 911L166 971Q204 996 256 996Q306 996 333 970Q360 944 360 899Q360 861 342 838Q324 815 291 808L291 764L211 764L211 851Z"  horiz-adv-x="501" vert-adv-y="1000"  />

      
      <glyph glyph-name="uni0202" unicode="&#x0202;" d="M363 0L332 158L166 158L135 0L-5 0L166 692L336 692L506 0L363 0M186 261L312 261L249 587L186 261M250 942Q316 942 352.50 900Q389 858 394 782L320 768Q304 848 250 848Q197 848 181 768L108 782Q113 858 149 900Q185 942 250 942Z"  horiz-adv-x="501" vert-adv-y="1000"  />

      
      <glyph glyph-name="uni2C6D" unicode="&#x2C6D;" d="M516 147Q516 122 524 108Q532 94 551 86L511-15Q467-6 439.50 10Q412 26 397 52Q372 19 337.50 2Q303-15 256-15Q153-15 92.50 72Q32 159 32 333Q32 455 61 539.50Q90 624 140 666Q190 708 253 708Q335 708 386 645L396 692L516 692L516 147M281 88Q337 88 375 137L375 551Q356 576 335 589Q314 602 285 602Q233 602 206 542Q179 482 179 333Q179 194 204.50 141Q230 88 281 88Z"  horiz-adv-x="570" vert-adv-y="1000"  />

      
      <glyph glyph-name="uni0100" unicode="&#x0100;" d="M363 0L332 158L166 158L135 0L-5 0L166 692L336 692L506 0L363 0M186 261L312 261L249 587L186 261M377 787L125 787L125 880L377 880L377 787Z"  horiz-adv-x="501" vert-adv-y="1000"  />

      
      <glyph glyph-name="uni0104" unicode="&#x0104;" d="M434 0Q378-26 358-51.50Q338-77 338-107Q338-154 382-154Q398-154 430-147L422-233Q391-240 365-240Q309-240 274.50-211Q240-182 240-130Q240-34 359 22L332 158L166 158L135 0L-5 0L166 692L336 692L506 0L434 0M186 261L312 261L249 587L186 261Z"  horiz-adv-x="501" vert-adv-y="1000"  />

      
      <glyph glyph-name="unic5" unicode="&#xc5;" d="M363 0L332 158L166 158L135 0L-5 0L166 692L336 692L506 0L363 0M186 261L312 261L249 587L186 261M251 983Q305 983 336 949.50Q367 916 367 860Q367 804 336 770.50Q305 737 251 737Q198 737 166.50 771Q135 805 135 860Q135 915 166.50 949Q198 983 251 983M251 914Q233 914 223.50 901.50Q214 889 214 860Q214 830 223.50 817.50Q233 805 251 805Q289 805 289 860Q289 889 279.50 901.50Q270 914 251 914Z"  horiz-adv-x="501" vert-adv-y="1000"  />

      
      <glyph glyph-name="uni01FA" unicode="&#x01FA;" d="M363 0L332 158L166 158L135 0L-5 0L166 692L336 692L506 0L363 0M186 261L312 261L249 587L186 261M250 969Q304 969 335 935.50Q366 902 366 846Q366 790 335 756.50Q304 723 250 723Q197 723 165.50 757Q134 791 134 846Q134 901 165.50 935Q197 969 250 969M250 900Q232 900 222.50 887.50Q213 875 213 846Q213 816 222.50 803.50Q232 791 250 791Q288 791 288 846Q288 875 278.50 887.50Q269 900 250 900M314 1161L366 1060L169 977L134 1045L314 1161Z"  horiz-adv-x="501" vert-adv-y="1000"  />

      
      <glyph glyph-name="uni023A" unicode="&#x023A;" d="M378 0L344 158L250 158L200-73L152-62L200 158L154 158L121 0L-5 0L166 692L317 692L330 753L378 743L352 625L506 0L378 0M175 255L221 255L273 493L249 606L175 255M272 255L324 255L298 376L272 255Z"  horiz-adv-x="501" vert-adv-y="1000"  />

      
      <glyph glyph-name="unic3" unicode="&#xc3;" d="M363 0L332 158L166 158L135 0L-5 0L166 692L336 692L506 0L363 0M186 261L312 261L249 587L186 261M302 772Q284 772 270.50 778.50Q257 785 239 797Q228 806 220 810Q212 814 204 814Q190 814 181 804.50Q172 795 160 772L95 802Q111 850 138.50 878.50Q166 907 201 907Q219 907 231.50 901Q244 895 263 883Q274 874 282 870Q290 866 299 866Q312 866 321.50 875.50Q331 885 342 906L407 877Q391 827 363.50 799.50Q336 772 302 772Z"  horiz-adv-x="501" vert-adv-y="1000"  />

      
      <glyph glyph-name="unic6" unicode="&#xc6;" d="M483 104L673 104L673 0L365 0L344 158L172 158L130 0L-18 0L205 692L642 692L628 589L410 589L438 401L635 401L635 299L454 299L483 104M200 261L330 261L287 587L200 261Z"  horiz-adv-x="696" vert-adv-y="1000"  />

      
      <glyph glyph-name="uni01FC" unicode="&#x01FC;" d="M483 104L673 104L673 0L365 0L344 158L172 158L130 0L-18 0L205 692L642 692L628 589L410 589L438 401L635 401L635 299L454 299L483 104M200 261L330 261L287 587L200 261M461 936L513 835L316 752L281 820L461 936Z"  horiz-adv-x="696" vert-adv-y="1000"  />

      
      <glyph glyph-name="uni01E2" unicode="&#x01E2;" d="M483 104L673 104L673 0L365 0L344 158L172 158L130 0L-18 0L205 692L642 692L628 589L410 589L438 401L635 401L635 299L454 299L483 104M200 261L330 261L287 587L200 261M524 787L272 787L272 880L524 880L524 787Z"  horiz-adv-x="696" vert-adv-y="1000"  />

      
      <glyph glyph-name="uni42" unicode="&#x42;" d="M349 366Q414 352 452.50 313Q491 274 491 200Q491 98 422.50 49Q354 0 236 0L53 0L53 692L213 692Q334 692 400.50 647Q467 602 467 515Q467 457 434.50 419Q402 381 349 366M195 590L195 410L231 410Q280 410 302 433.50Q324 457 324 502Q324 547 300.50 568.50Q277 590 226 590L195 590M237 105Q291 105 318.50 128.50Q346 152 346 206Q346 261 320.50 287Q295 313 240 313L195 313L195 105L237 105Z"  horiz-adv-x="510" vert-adv-y="1000"  />

      
      <glyph glyph-name="uni1E02" unicode="&#x1E02;" d="M349 366Q414 352 452.50 313Q491 274 491 200Q491 98 422.50 49Q354 0 236 0L53 0L53 692L213 692Q334 692 400.50 647Q467 602 467 515Q467 457 434.50 419Q402 381 349 366M195 590L195 410L231 410Q280 410 302 433.50Q324 457 324 502Q324 547 300.50 568.50Q277 590 226 590L195 590M237 105Q291 105 318.50 128.50Q346 152 346 206Q346 261 320.50 287Q295 313 240 313L195 313L195 105L237 105M245 926Q280 926 302 903Q324 880 324 845Q324 811 302 788.50Q280 766 245 766Q209 766 187 788.50Q165 811 165 845Q165 880 187 903Q209 926 245 926Z"  horiz-adv-x="510" vert-adv-y="1000"  />

      
      <glyph glyph-name="uni1E04" unicode="&#x1E04;" d="M349 366Q414 352 452.50 313Q491 274 491 200Q491 98 422.50 49Q354 0 236 0L53 0L53 692L213 692Q334 692 400.50 647Q467 602 467 515Q467 457 434.50 419Q402 381 349 366M195 590L195 410L231 410Q280 410 302 433.50Q324 457 324 502Q324 547 300.50 568.50Q277 590 226 590L195 590M237 105Q291 105 318.50 128.50Q346 152 346 206Q346 261 320.50 287Q295 313 240 313L195 313L195 105L237 105M258-226Q223-226 201-203Q179-180 179-145Q179-111 201-88.50Q223-66 258-66Q294-66 316-88.50Q338-111 338-145Q338-180 316-203Q294-226 258-226Z"  horiz-adv-x="510" vert-adv-y="1000"  />

      
      <glyph glyph-name="uniA7B4" unicode="&#xA7B4;" d="M349 366Q414 352 452.50 314Q491 276 491 202Q491 133 460.50 88Q430 43 380.50 21.50Q331 0 273 0Q233 0 195 8L195-208L53-208L53 692L215 692Q336 692 401.50 647Q467 602 467 515Q467 456 434.50 418.50Q402 381 349 366M249 105Q346 105 346 211Q346 265 322.50 289Q299 313 249 313L235 313L243 410L251 410Q287 410 305.50 432.50Q324 455 324 500Q324 547 301 568.50Q278 590 228 590L195 590L195 109Q218 105 249 105Z"  horiz-adv-x="510" vert-adv-y="1000"  />

      
      <glyph glyph-name="uni0181" unicode="&#x0181;" d="M467 366Q532 352 570.50 313Q609 274 609 200Q609 98 540.50 49Q472 0 354 0L171 0L171 589L153 589Q113 589 113 545Q113 513 130 474L43 436Q24 464 14 492.50Q4 521 4 558Q4 619 43.50 655.50Q83 692 158 692L331 692Q452 692 518.50 647Q585 602 585 515Q585 457 552.50 419Q520 381 467 366M313 590L313 410L349 410Q398 410 420 433.50Q442 457 442 502Q442 547 418.50 568.50Q395 590 344 590L313 590M355 105Q409 105 436.50 128.50Q464 152 464 206Q464 261 438.50 287Q413 313 358 313L313 313L313 105L355 105Z"  horiz-adv-x="629" vert-adv-y="1000"  />

      
      <glyph glyph-name="uni0243" unicode="&#x0243;" d="M361 366Q426 352 464.50 313Q503 274 503 200Q503 98 434.50 49Q366 0 248 0L65 0L65 174L15 174L15 248L65 248L65 692L225 692Q346 692 412.50 647Q479 602 479 515Q479 457 446.50 419Q414 381 361 366M207 590L207 410L243 410Q292 410 314 433.50Q336 457 336 502Q336 547 312.50 568.50Q289 590 238 590L207 590M249 105Q303 105 330.50 128.50Q358 152 358 206Q358 261 332.50 287Q307 313 252 313L207 313L207 248L293 248L293 174L207 174L207 105L249 105Z"  horiz-adv-x="522" vert-adv-y="1000"  />

      
      <glyph glyph-name="uni0182" unicode="&#x0182;" d="M250 441Q362 441 421.50 387Q481 333 481 226Q481 111 419 55.50Q357 0 241 0L53 0L53 692L414 692L400 583L195 583L195 441L250 441M238 105Q289 105 311.50 132Q334 159 334 225Q334 285 310.50 312.50Q287 340 236 340L195 340L195 105L238 105Z"  horiz-adv-x="497" vert-adv-y="1000"  />

      
      <glyph glyph-name="uni43" unicode="&#x43;" d="M291 708Q345 708 387.50 689.50Q430 671 469 634L402 555Q377 578 352.50 589.50Q328 601 300 601Q243 601 211 542.50Q179 484 179 347Q179 213 211 154Q243 95 301 95Q332 95 355.50 107.50Q379 120 409 146L475 69Q396-16 291-16Q172-16 102 75.50Q32 167 32 347Q32 466 65 547Q98 628 156.50 668Q215 708 291 708Z"  horiz-adv-x="480" vert-adv-y="1000"  />

      
      <glyph glyph-name="uni0106" unicode="&#x0106;" d="M291 708Q345 708 387.50 689.50Q430 671 469 634L402 555Q377 578 352.50 589.50Q328 601 300 601Q243 601 211 542.50Q179 484 179 347Q179 213 211 154Q243 95 301 95Q332 95 355.50 107.50Q379 120 409 146L475 69Q396-16 291-16Q172-16 102 75.50Q32 167 32 347Q32 466 65 547Q98 628 156.50 668Q215 708 291 708M361 936L413 835L216 752L181 820L361 936Z"  horiz-adv-x="480" vert-adv-y="1000"  />

      
      <glyph glyph-name="uni010C" unicode="&#x010C;" d="M291 708Q345 708 387.50 689.50Q430 671 469 634L402 555Q377 578 352.50 589.50Q328 601 300 601Q243 601 211 542.50Q179 484 179 347Q179 213 211 154Q243 95 301 95Q332 95 355.50 107.50Q379 120 409 146L475 69Q396-16 291-16Q172-16 102 75.50Q32 167 32 347Q32 466 65 547Q98 628 156.50 668Q215 708 291 708M408 928L456 878L339 751L257 751L141 878L189 928L298 846L408 928Z"  horiz-adv-x="480" vert-adv-y="1000"  />

      
      <glyph glyph-name="unic7" unicode="&#xc7;" d="M475 69Q407-3 322-14L322-55Q408-69 408-147Q408-196 374.50-225.50Q341-255 284-255Q230-255 190-227L222-166Q249-178 274-178Q311-178 311-146Q311-126 293-117Q275-108 235-108L246-12Q146 4 89 94.50Q32 185 32 347Q32 466 65 547Q98 628 156.50 668Q215 708 291 708Q345 708 387.50 689.50Q430 671 469 634L402 555Q377 578 352.50 589.50Q328 601 300 601Q243 601 211 542.50Q179 484 179 347Q179 213 211 154Q243 95 301 95Q332 95 355.50 107.50Q379 120 409 146L475 69Z"  horiz-adv-x="480" vert-adv-y="1000"  />

      
      <glyph glyph-name="uni0108" unicode="&#x0108;" d="M291 708Q345 708 387.50 689.50Q430 671 469 634L402 555Q377 578 352.50 589.50Q328 601 300 601Q243 601 211 542.50Q179 484 179 347Q179 213 211 154Q243 95 301 95Q332 95 355.50 107.50Q379 120 409 146L475 69Q396-16 291-16Q172-16 102 75.50Q32 167 32 347Q32 466 65 547Q98 628 156.50 668Q215 708 291 708M188 760L140 810L257 937L339 937L455 810L407 760L297 842L188 760Z"  horiz-adv-x="480" vert-adv-y="1000"  />

      
      <glyph glyph-name="uni010A" unicode="&#x010A;" d="M291 708Q345 708 387.50 689.50Q430 671 469 634L402 555Q377 578 352.50 589.50Q328 601 300 601Q243 601 211 542.50Q179 484 179 347Q179 213 211 154Q243 95 301 95Q332 95 355.50 107.50Q379 120 409 146L475 69Q396-16 291-16Q172-16 102 75.50Q32 167 32 347Q32 466 65 547Q98 628 156.50 668Q215 708 291 708M298 926Q333 926 355 903Q377 880 377 845Q377 811 355 788.50Q333 766 298 766Q262 766 240 788.50Q218 811 218 845Q218 880 240 903Q262 926 298 926Z"  horiz-adv-x="480" vert-adv-y="1000"  />

      
      <glyph glyph-name="uniA7B3" unicode="&#xA7B3;" d="M319 301L477-151L326-151L233 205L143-151L-5-151L148 295L7 692L158 692L235 384L316 692L462 692L319 301Z"  horiz-adv-x="473" vert-adv-y="1000"  />

      
      <glyph glyph-name="uni0187" unicode="&#x0187;" d="M488 847Q550 847 603 810L563 728Q547 737 535.50 741Q524 745 510 745Q489 745 479 732Q469 719 469 691L469 634L406 559Q378 580 353 590.50Q328 601 300 601Q243 601 211 542.50Q179 484 179 347Q179 213 211 154Q243 95 301 95Q332 95 355.50 107.50Q379 120 409 146L475 69Q396-16 291-16Q172-16 102 75.50Q32 167 32 347Q32 465 65 546.50Q98 628 153.50 668Q209 708 277 708Q316 708 350 691L350 700Q350 770 387 808.50Q424 847 488 847Z"  horiz-adv-x="480" vert-adv-y="1000"  />

      
      <glyph glyph-name="uni023B" unicode="&#x023B;" d="M475 69Q396-16 291-16Q257-16 229-9L215-73L166-62L181 8Q110 44 71 129Q32 214 32 347Q32 466 65 547Q98 628 156.50 668Q215 708 291 708Q312 708 333 705L343 753L393 743L382 692Q425 674 469 634L402 555Q378 577 359 586L254 106Q276 95 301 95Q332 95 355.50 107.50Q379 120 409 146L475 69M179 347Q179 214 212 151L310 601L300 601Q243 601 211 542.50Q179 484 179 347Z"  horiz-adv-x="480" vert-adv-y="1000"  />

      
      <glyph glyph-name="uni44" unicode="&#x44;" d="M217 692Q305 692 369 665.50Q433 639 473 563.50Q513 488 513 349Q513 154 435.50 77Q358 0 229 0L53 0L53 692L217 692M195 588L195 104L237 104Q279 104 307.50 124.50Q336 145 352 199Q368 253 368 349Q368 447 351.50 499Q335 551 307 569.50Q279 588 237 588L195 588Z"  horiz-adv-x="545" vert-adv-y="1000"  />

      
      <glyph glyph-name="uni01F1" unicode="&#x01F1;" d="M217 692Q305 692 369 665.50Q433 639 473 563.50Q513 488 513 349Q513 154 435.50 77Q358 0 229 0L53 0L53 692L217 692M195 588L195 104L237 104Q279 104 307.50 124.50Q336 145 352 199Q368 253 368 349Q368 447 351.50 499Q335 551 307 569.50Q279 588 237 588L195 588M944 692L944 584L686 114L948 114L934 0L533 0L533 107L791 581L558 581L558 692L944 692Z"  horiz-adv-x="964" vert-adv-y="1000"  />

      
      <glyph glyph-name="uni01C4" unicode="&#x01C4;" d="M217 692Q305 692 369 665.50Q433 639 473 563.50Q513 488 513 349Q513 154 435.50 77Q358 0 229 0L53 0L53 692L217 692M195 588L195 104L237 104Q279 104 307.50 124.50Q336 145 352 199Q368 253 368 349Q368 447 351.50 499Q335 551 307 569.50Q279 588 237 588L195 588M944 692L944 584L686 114L948 114L934 0L533 0L533 107L791 581L558 581L558 692L944 692M857 928L905 878L788 751L706 751L590 878L638 928L747 846L857 928Z"  horiz-adv-x="964" vert-adv-y="1000"  />

      
      <glyph glyph-name="uni0189" unicode="&#x0189;" d="M234 692Q322 692 386 665.50Q450 639 490 563.50Q530 488 530 349Q530 154 452.50 77Q375 0 246 0L70 0L70 309L15 309L15 397L70 397L70 692L234 692M254 104Q296 104 324.50 124.50Q353 145 369 199Q385 253 385 349Q385 447 368.50 499Q352 551 324 569.50Q296 588 254 588L212 588L212 397L303 397L303 309L212 309L212 104L254 104Z"  horiz-adv-x="562" vert-adv-y="1000"  />

      
      <glyph glyph-name="unid0" unicode="&#xd0;" d="M234 692Q322 692 386 665.50Q450 639 490 563.50Q530 488 530 349Q530 154 452.50 77Q375 0 246 0L70 0L70 309L15 309L15 397L70 397L70 692L234 692M254 104Q296 104 324.50 124.50Q353 145 369 199Q385 253 385 349Q385 447 368.50 499Q352 551 324 569.50Q296 588 254 588L212 588L212 397L303 397L303 309L212 309L212 104L254 104Z"  horiz-adv-x="562" vert-adv-y="1000"  />

      
      <glyph glyph-name="uni010E" unicode="&#x010E;" d="M217 692Q305 692 369 665.50Q433 639 473 563.50Q513 488 513 349Q513 154 435.50 77Q358 0 229 0L53 0L53 692L217 692M195 588L195 104L237 104Q279 104 307.50 124.50Q336 145 352 199Q368 253 368 349Q368 447 351.50 499Q335 551 307 569.50Q279 588 237 588L195 588M356 928L404 878L287 751L205 751L89 878L137 928L246 846L356 928Z"  horiz-adv-x="545" vert-adv-y="1000"  />

      
      <glyph glyph-name="uni1E12" unicode="&#x1E12;" d="M217 692Q305 692 369 665.50Q433 639 473 563.50Q513 488 513 349Q513 154 435.50 77Q358 0 229 0L53 0L53 692L217 692M195 588L195 104L237 104Q279 104 307.50 124.50Q336 145 352 199Q368 253 368 349Q368 447 351.50 499Q335 551 307 569.50Q279 588 237 588L195 588M145-248L97-198L214-65L296-65L412-198L364-248L254-159L145-248Z"  horiz-adv-x="545" vert-adv-y="1000"  />

      
      <glyph glyph-name="uni0110" unicode="&#x0110;" d="M234 692Q322 692 386 665.50Q450 639 490 563.50Q530 488 530 349Q530 154 452.50 77Q375 0 246 0L70 0L70 309L15 309L15 397L70 397L70 692L234 692M254 104Q296 104 324.50 124.50Q353 145 369 199Q385 253 385 349Q385 447 368.50 499Q352 551 324 569.50Q296 588 254 588L212 588L212 397L303 397L303 309L212 309L212 104L254 104Z"  horiz-adv-x="562" vert-adv-y="1000"  />

      
      <glyph glyph-name="uni1E0A" unicode="&#x1E0A;" d="M217 692Q305 692 369 665.50Q433 639 473 563.50Q513 488 513 349Q513 154 435.50 77Q358 0 229 0L53 0L53 692L217 692M195 588L195 104L237 104Q279 104 307.50 124.50Q336 145 352 199Q368 253 368 349Q368 447 351.50 499Q335 551 307 569.50Q279 588 237 588L195 588M246 926Q281 926 303 903Q325 880 325 845Q325 811 303 788.50Q281 766 246 766Q210 766 188 788.50Q166 811 166 845Q166 880 188 903Q210 926 246 926Z"  horiz-adv-x="545" vert-adv-y="1000"  />

      
      <glyph glyph-name="uni1E0C" unicode="&#x1E0C;" d="M217 692Q305 692 369 665.50Q433 639 473 563.50Q513 488 513 349Q513 154 435.50 77Q358 0 229 0L53 0L53 692L217 692M195 588L195 104L237 104Q279 104 307.50 124.50Q336 145 352 199Q368 253 368 349Q368 447 351.50 499Q335 551 307 569.50Q279 588 237 588L195 588M255-226Q220-226 198-203Q176-180 176-145Q176-111 198-88.50Q220-66 255-66Q291-66 313-88.50Q335-111 335-145Q335-180 313-203Q291-226 255-226Z"  horiz-adv-x="545" vert-adv-y="1000"  />

      
      <glyph glyph-name="uni018A" unicode="&#x018A;" d="M335 692Q423 692 487 665.50Q551 639 591 563.50Q631 488 631 349Q631 154 553.50 77Q476 0 347 0L171 0L171 589L153 589Q113 589 113 545Q113 513 130 474L43 436Q24 464 14 492.50Q4 521 4 558Q4 619 43.50 655.50Q83 692 158 692L335 692M355 104Q397 104 425.50 124.50Q454 145 470 199Q486 253 486 349Q486 447 469.50 499Q453 551 425 569.50Q397 588 355 588L313 588L313 104L355 104Z"  horiz-adv-x="664" vert-adv-y="1000"  />

      
      <glyph glyph-name="uni1E0E" unicode="&#x1E0E;" d="M217 692Q305 692 369 665.50Q433 639 473 563.50Q513 488 513 349Q513 154 435.50 77Q358 0 229 0L53 0L53 692L217 692M195 588L195 104L237 104Q279 104 307.50 124.50Q336 145 352 199Q368 253 368 349Q368 447 351.50 499Q335 551 307 569.50Q279 588 237 588L195 588M382-183L130-183L130-90L382-90L382-183Z"  horiz-adv-x="545" vert-adv-y="1000"  />

      
      <glyph glyph-name="uni018B" unicode="&#x018B;" d="M443 0L259 0Q16 0 16 221Q16 328 77 384.50Q138 441 254 441L302 441L302 583L88 583L88 692L443 692L443 0M302 105L302 340L267 340Q211 340 187 312Q163 284 163 221Q163 157 187 131Q211 105 266 105L302 105Z"  horiz-adv-x="497" vert-adv-y="1000"  />

      
      <glyph glyph-name="uni01F2" unicode="&#x01F2;" d="M217 692Q305 692 369 665.50Q433 639 473 563.50Q513 488 513 349Q513 154 435.50 77Q358 0 229 0L53 0L53 692L217 692M195 588L195 104L237 104Q279 104 307.50 124.50Q336 145 352 199Q368 253 368 349Q368 447 351.50 499Q335 551 307 569.50Q279 588 237 588L195 588M898 530L898 433L693 106L902 106L890 0L546 0L546 98L751 425L564 425L564 530L898 530Z"  horiz-adv-x="915" vert-adv-y="1000"  />

      
      <glyph glyph-name="uni01C5" unicode="&#x01C5;" d="M217 692Q305 692 369 665.50Q433 639 473 563.50Q513 488 513 349Q513 154 435.50 77Q358 0 229 0L53 0L53 692L217 692M195 588L195 104L237 104Q279 104 307.50 124.50Q336 145 352 199Q368 253 368 349Q368 447 351.50 499Q335 551 307 569.50Q279 588 237 588L195 588M898 530L898 433L693 106L902 106L890 0L546 0L546 98L751 425L564 425L564 530L898 530M839 801L887 750L771 617L688 617L572 750L620 801L729 710L839 801Z"  horiz-adv-x="915" vert-adv-y="1000"  />

      
      <glyph glyph-name="uni45" unicode="&#x45;" d="M408 692L393 589L195 589L195 403L368 403L368 301L195 301L195 104L406 104L406 0L53 0L53 692L408 692Z"  horiz-adv-x="433" vert-adv-y="1000"  />

      
      <glyph glyph-name="unic9" unicode="&#xc9;" d="M408 692L393 589L195 589L195 403L368 403L368 301L195 301L195 104L406 104L406 0L53 0L53 692L408 692M294 936L346 835L149 752L114 820L294 936Z"  horiz-adv-x="433" vert-adv-y="1000"  />

      
      <glyph glyph-name="uni0114" unicode="&#x0114;" d="M408 692L393 589L195 589L195 403L368 403L368 301L195 301L195 104L406 104L406 0L53 0L53 692L408 692M230 753Q166 753 129.50 793.50Q93 834 88 902L161 917Q177 850 230 850Q286 850 300 917L374 902Q369 834 332 793.50Q295 753 230 753Z"  horiz-adv-x="433" vert-adv-y="1000"  />

      
      <glyph glyph-name="uni011A" unicode="&#x011A;" d="M408 692L393 589L195 589L195 403L368 403L368 301L195 301L195 104L406 104L406 0L53 0L53 692L408 692M341 928L389 878L272 751L190 751L74 878L122 928L231 846L341 928Z"  horiz-adv-x="433" vert-adv-y="1000"  />

      
      <glyph glyph-name="uni0228" unicode="&#x0228;" d="M195 104L406 104L406 0L264 0L264-55Q350-69 350-147Q350-196 316.50-225.50Q283-255 226-255Q172-255 132-227L164-166Q191-178 216-178Q253-178 253-146Q253-126 235-117Q217-108 177-108L189 0L53 0L53 692L408 692L393 589L195 589L195 403L368 403L368 301L195 301L195 104Z"  horiz-adv-x="433" vert-adv-y="1000"  />

      
      <glyph glyph-name="unica" unicode="&#xca;" d="M408 692L393 589L195 589L195 403L368 403L368 301L195 301L195 104L406 104L406 0L53 0L53 692L408 692M121 760L73 810L190 937L272 937L388 810L340 760L230 842L121 760Z"  horiz-adv-x="433" vert-adv-y="1000"  />

      
      <glyph glyph-name="uni1EBE" unicode="&#x1EBE;" d="M408 692L393 589L195 589L195 403L368 403L368 301L195 301L195 104L406 104L406 0L53 0L53 692L408 692M122 724L74 774L191 901L273 901L389 774L341 724L231 806L122 724M427 1068L508 999L368 858L315 903L427 1068Z"  horiz-adv-x="433" vert-adv-y="1000"  />

      
      <glyph glyph-name="uni1EC6" unicode="&#x1EC6;" d="M408 692L393 589L195 589L195 403L368 403L368 301L195 301L195 104L406 104L406 0L53 0L53 692L408 692M121 760L73 810L190 937L272 937L388 810L340 760L230 842L121 760M228-226Q193-226 171-203Q149-180 149-145Q149-111 171-88.50Q193-66 228-66Q264-66 286-88.50Q308-111 308-145Q308-180 286-203Q264-226 228-226Z"  horiz-adv-x="433" vert-adv-y="1000"  />

      
      <glyph glyph-name="uni1EC0" unicode="&#x1EC0;" d="M408 692L393 589L195 589L195 403L368 403L368 301L195 301L195 104L406 104L406 0L53 0L53 692L408 692M121 724L73 774L190 901L272 901L388 774L340 724L230 806L121 724M37 1068L150 903L95 858L-44 999L37 1068Z"  horiz-adv-x="433" vert-adv-y="1000"  />

      
      <glyph glyph-name="uni1EC2" unicode="&#x1EC2;" d="M408 692L393 589L195 589L195 403L368 403L368 301L195 301L195 104L406 104L406 0L53 0L53 692L408 692M121 724L73 774L190 901L272 901L388 774L340 724L230 806L121 724M334 930Q366 933 379 941.50Q392 950 392 970Q392 986 384 994.50Q376 1003 361 1003Q347 1003 336.50 1000Q326 997 311 990L289 1050Q327 1075 379 1075Q429 1075 456 1049Q483 1023 483 978Q483 940 465 917Q447 894 414 887L414 843L334 843L334 930Z"  horiz-adv-x="433" vert-adv-y="1000"  />

      
      <glyph glyph-name="uni1EC4" unicode="&#x1EC4;" d="M408 692L393 589L195 589L195 403L368 403L368 301L195 301L195 104L406 104L406 0L53 0L53 692L408 692M121 724L73 774L190 901L272 901L388 774L340 724L230 806L121 724M281 935Q262 935 248.50 941.50Q235 948 218 959Q197 975 183 975Q169 975 160 966Q151 957 139 935L74 963Q90 1008 117.50 1035.50Q145 1063 180 1063Q198 1063 211 1057Q224 1051 242 1040Q263 1024 278 1024Q291 1024 300 1033Q309 1042 321 1062L386 1035Q370 988 342.50 961.50Q315 935 281 935Z"  horiz-adv-x="433" vert-adv-y="1000"  />

      
      <glyph glyph-name="uni0204" unicode="&#x0204;" d="M408 692L393 589L195 589L195 403L368 403L368 301L195 301L195 104L406 104L406 0L53 0L53 692L408 692M121 974L200 786L134 754L33 927L121 974M267 974L339 788L272 759L177 930L267 974Z"  horiz-adv-x="433" vert-adv-y="1000"  />

      
      <glyph glyph-name="unicb" unicode="&#xcb;" d="M408 692L393 589L195 589L195 403L368 403L368 301L195 301L195 104L406 104L406 0L53 0L53 692L408 692M139 914Q169 914 188.50 893.50Q208 873 208 843Q208 813 188.50 792.50Q169 772 139 772Q110 772 90 792.50Q70 813 70 843Q70 873 90 893.50Q110 914 139 914M331 914Q361 914 380.50 893.50Q400 873 400 843Q400 813 380.50 792.50Q361 772 331 772Q302 772 281.50 792.50Q261 813 261 843Q261 873 281.50 893.50Q302 914 331 914Z"  horiz-adv-x="433" vert-adv-y="1000"  />

      
      <glyph glyph-name="uni0116" unicode="&#x0116;" d="M408 692L393 589L195 589L195 403L368 403L368 301L195 301L195 104L406 104L406 0L53 0L53 692L408 692M231 926Q266 926 288 903Q310 880 310 845Q310 811 288 788.50Q266 766 231 766Q195 766 173 788.50Q151 811 151 845Q151 880 173 903Q195 926 231 926Z"  horiz-adv-x="433" vert-adv-y="1000"  />

      
      <glyph glyph-name="uni1EB8" unicode="&#x1EB8;" d="M408 692L393 589L195 589L195 403L368 403L368 301L195 301L195 104L406 104L406 0L53 0L53 692L408 692M228-226Q193-226 171-203Q149-180 149-145Q149-111 171-88.50Q193-66 228-66Q264-66 286-88.50Q308-111 308-145Q308-180 286-203Q264-226 228-226Z"  horiz-adv-x="433" vert-adv-y="1000"  />

      
      <glyph glyph-name="unic8" unicode="&#xc8;" d="M408 692L393 589L195 589L195 403L368 403L368 301L195 301L195 104L406 104L406 0L53 0L53 692L408 692M165 936L345 819L310 752L113 835L165 936Z"  horiz-adv-x="433" vert-adv-y="1000"  />

      
      <glyph glyph-name="uni1EBA" unicode="&#x1EBA;" d="M408 692L393 589L195 589L195 403L368 403L368 301L195 301L195 104L406 104L406 0L53 0L53 692L408 692M191 851Q223 854 236 862.50Q249 871 249 891Q249 907 241 915.50Q233 924 218 924Q204 924 193.50 921Q183 918 168 911L146 971Q184 996 236 996Q286 996 313 970Q340 944 340 899Q340 861 322 838Q304 815 271 808L271 764L191 764L191 851Z"  horiz-adv-x="433" vert-adv-y="1000"  />

      
      <glyph glyph-name="uni0206" unicode="&#x0206;" d="M408 692L393 589L195 589L195 403L368 403L368 301L195 301L195 104L406 104L406 0L53 0L53 692L408 692M230 942Q296 942 332.50 900Q369 858 374 782L300 768Q284 848 230 848Q177 848 161 768L88 782Q93 858 129 900Q165 942 230 942Z"  horiz-adv-x="433" vert-adv-y="1000"  />

      
      <glyph glyph-name="uni0112" unicode="&#x0112;" d="M408 692L393 589L195 589L195 403L368 403L368 301L195 301L195 104L406 104L406 0L53 0L53 692L408 692M357 787L105 787L105 880L357 880L357 787Z"  horiz-adv-x="433" vert-adv-y="1000"  />

      
      <glyph glyph-name="uni0118" unicode="&#x0118;" d="M195 104L406 104L406 0L374 0Q318-26 298-51.50Q278-77 278-107Q278-154 322-154Q339-154 370-147L362-233Q331-240 305-240Q249-240 214.50-211Q180-182 180-130Q180-52 259 0L53 0L53 692L408 692L393 589L195 589L195 403L368 403L368 301L195 301L195 104Z"  horiz-adv-x="433" vert-adv-y="1000"  />

      
      <glyph glyph-name="uni0190" unicode="&#x0190;" d="M239 708Q297 708 343.50 685.50Q390 663 431 618L365 548Q308 603 257 603Q218 603 199.50 578Q181 553 181 513Q181 467 203.50 442Q226 417 269 417L326 417L310 313L266 313Q216 313 191.50 284.50Q167 256 167 203Q167 148 191 120Q215 92 259 92Q292 92 318.50 106Q345 120 374 150L449 81Q374-15 246-15Q180-15 128.50 10.50Q77 36 48 83.50Q19 131 19 196Q19 272 58 315.50Q97 359 165 368Q100 384 68 424Q36 464 36 526Q36 577 61.50 618.50Q87 660 133.50 684Q180 708 239 708Z"  horiz-adv-x="446" vert-adv-y="1000"  />

      
      <glyph glyph-name="uni018E" unicode="&#x018E;" d="M31 692L379 692L379 0L27 0L27 104L238 104L238 301L65 301L65 403L238 403L238 589L31 589L31 692Z"  horiz-adv-x="433" vert-adv-y="1000"  />

      
      <glyph glyph-name="uni01A9" unicode="&#x01A9;" d="M397 692L397 587L160 587L306 373L306 310L156 107L397 107L397 0L16 0L16 105L186 340L16 588L16 692L397 692Z"  horiz-adv-x="413" vert-adv-y="1000"  />

      
      <glyph glyph-name="uni0246" unicode="&#x0246;" d="M288 301L248 104L406 104L406 0L227 0L212-73L164-62L177 0L53 0L53 692L319 692L331 753L379 744L368 692L408 692L393 589L347 589L309 403L368 403L368 301L288 301M195 589L195 403L259 403L297 589L195 589M195 104L198 104L238 301L195 301L195 104Z"  horiz-adv-x="433" vert-adv-y="1000"  />

      
      <glyph glyph-name="uni1EBC" unicode="&#x1EBC;" d="M408 692L393 589L195 589L195 403L368 403L368 301L195 301L195 104L406 104L406 0L53 0L53 692L408 692M282 772Q264 772 250.50 778.50Q237 785 219 797Q208 806 200 810Q192 814 184 814Q170 814 161 804.50Q152 795 140 772L75 802Q91 850 118.50 878.50Q146 907 181 907Q199 907 211.50 901Q224 895 243 883Q254 874 262 870Q270 866 279 866Q292 866 301.50 875.50Q311 885 322 906L387 877Q371 827 343.50 799.50Q316 772 282 772Z"  horiz-adv-x="433" vert-adv-y="1000"  />

      
      <glyph glyph-name="uni01B7" unicode="&#x01B7;" d="M243 400Q336 396 383 346Q430 296 430 203Q430 140 403 90.50Q376 41 324.50 13Q273-15 202-15Q134-15 85.50 9.50Q37 34 1 83L77 148Q106 118 131.50 104.50Q157 91 191 91Q236 91 260 121Q284 151 284 208Q284 266 259 290Q234 314 180 314L103 314L103 398L257 587L35 587L35 692L400 692L400 590L243 400Z"  horiz-adv-x="446" vert-adv-y="1000"  />

      
      <glyph glyph-name="uni01EE" unicode="&#x01EE;" d="M243 400Q336 396 383 346Q430 296 430 203Q430 140 403 90.50Q376 41 324.50 13Q273-15 202-15Q134-15 85.50 9.50Q37 34 1 83L77 148Q106 118 131.50 104.50Q157 91 191 91Q236 91 260 121Q284 151 284 208Q284 266 259 290Q234 314 180 314L103 314L103 398L257 587L35 587L35 692L400 692L400 590L243 400M327 928L375 878L258 751L176 751L60 878L108 928L217 846L327 928Z"  horiz-adv-x="446" vert-adv-y="1000"  />

      
      <glyph glyph-name="uni01B8" unicode="&#x01B8;" d="M445 83Q408 34 359 9.50Q310-15 243-15Q172-15 121 12Q70 39 43 88Q16 137 16 200Q16 293 63 343.50Q110 394 203 400L46 590L46 692L411 692L411 587L189 587L343 398L343 314L266 314Q212 314 187 288.50Q162 263 162 203Q162 148 185 119.50Q208 91 252 91Q286 91 312 104.50Q338 118 369 148L445 83Z"  horiz-adv-x="446" vert-adv-y="1000"  />

      
      <glyph glyph-name="uni46" unicode="&#x46;" d="M53 0L53 692L397 692L382 589L195 589L195 387L358 387L358 284L195 284L195 0L53 0Z"  horiz-adv-x="403" vert-adv-y="1000"  />

      
      <glyph glyph-name="uni1E1E" unicode="&#x1E1E;" d="M53 0L53 692L397 692L382 589L195 589L195 387L358 387L358 284L195 284L195 0L53 0M233 926Q268 926 290 903Q312 880 312 845Q312 811 290 788.50Q268 766 233 766Q197 766 175 788.50Q153 811 153 845Q153 880 175 903Q197 926 233 926Z"  horiz-adv-x="403" vert-adv-y="1000"  />

      
      <glyph glyph-name="uni0191" unicode="&#x0191;" d="M195 589L195 387L358 387L358 284L195 284L195-55Q195-136 149-177.50Q103-219 28-219Q-43-219-93-178L-44-97Q-29-106-17.50-110Q-6-114 11-114Q53-114 53-63L53 692L397 692L382 589L195 589Z"  horiz-adv-x="403" vert-adv-y="1000"  />

      
      <glyph glyph-name="uni47" unicode="&#x47;" d="M307 708Q366 708 412.50 686.50Q459 665 499 625L430 554Q400 580 373 591.50Q346 603 313 603Q248 603 213 545.50Q178 488 178 346Q178 246 190.50 190Q203 134 227 112Q251 90 291 90Q331 90 368 114L368 291L295 291L281 393L501 393L501 54Q457 21 402.50 3Q348-15 293-15Q161-15 96.50 72.50Q32 160 32 347Q32 467 68 548Q104 629 166 668.50Q228 708 307 708Z"  horiz-adv-x="541" vert-adv-y="1000"  />

      
      <glyph glyph-name="uni01F4" unicode="&#x01F4;" d="M307 708Q366 708 412.50 686.50Q459 665 499 625L430 554Q400 580 373 591.50Q346 603 313 603Q248 603 213 545.50Q178 488 178 346Q178 246 190.50 190Q203 134 227 112Q251 90 291 90Q331 90 368 114L368 291L295 291L281 393L501 393L501 54Q457 21 402.50 3Q348-15 293-15Q161-15 96.50 72.50Q32 160 32 347Q32 467 68 548Q104 629 166 668.50Q228 708 307 708M357 936L409 835L212 752L177 820L357 936Z"  horiz-adv-x="541" vert-adv-y="1000"  />

      
      <glyph glyph-name="uni0194" unicode="&#x0194;" d="M316 84Q345 24 358-17.50Q371-59 371-102Q371-219 244-219Q180-219 148.50-188.50Q117-158 117-103Q117-64 130-23Q143 18 173 84L-5 692L137 692L244 175L351 692L489 692L316 84M268-94Q268-74 262.50-52Q257-30 244 7Q232-27 226-51Q220-75 220-95Q220-126 244-126Q268-126 268-94Z"  horiz-adv-x="484" vert-adv-y="1000"  />

      
      <glyph glyph-name="uni011E" unicode="&#x011E;" d="M307 708Q366 708 412.50 686.50Q459 665 499 625L430 554Q400 580 373 591.50Q346 603 313 603Q248 603 213 545.50Q178 488 178 346Q178 246 190.50 190Q203 134 227 112Q251 90 291 90Q331 90 368 114L368 291L295 291L281 393L501 393L501 54Q457 21 402.50 3Q348-15 293-15Q161-15 96.50 72.50Q32 160 32 347Q32 467 68 548Q104 629 166 668.50Q228 708 307 708M293 753Q229 753 192.50 793.50Q156 834 151 902L224 917Q240 850 293 850Q349 850 363 917L437 902Q432 834 395 793.50Q358 753 293 753Z"  horiz-adv-x="541" vert-adv-y="1000"  />

      
      <glyph glyph-name="uni01E6" unicode="&#x01E6;" d="M307 708Q366 708 412.50 686.50Q459 665 499 625L430 554Q400 580 373 591.50Q346 603 313 603Q248 603 213 545.50Q178 488 178 346Q178 246 190.50 190Q203 134 227 112Q251 90 291 90Q331 90 368 114L368 291L295 291L281 393L501 393L501 54Q457 21 402.50 3Q348-15 293-15Q161-15 96.50 72.50Q32 160 32 347Q32 467 68 548Q104 629 166 668.50Q228 708 307 708M404 928L452 878L335 751L253 751L137 878L185 928L294 846L404 928Z"  horiz-adv-x="541" vert-adv-y="1000"  />

      
      <glyph glyph-name="uni011C" unicode="&#x011C;" d="M307 708Q366 708 412.50 686.50Q459 665 499 625L430 554Q400 580 373 591.50Q346 603 313 603Q248 603 213 545.50Q178 488 178 346Q178 246 190.50 190Q203 134 227 112Q251 90 291 90Q331 90 368 114L368 291L295 291L281 393L501 393L501 54Q457 21 402.50 3Q348-15 293-15Q161-15 96.50 72.50Q32 160 32 347Q32 467 68 548Q104 629 166 668.50Q228 708 307 708M184 760L136 810L253 937L335 937L451 810L403 760L293 842L184 760Z"  horiz-adv-x="541" vert-adv-y="1000"  />

      
      <glyph glyph-name="uni0122" unicode="&#x0122;" d="M307 708Q366 708 412.50 686.50Q459 665 499 625L430 554Q400 580 373 591.50Q346 603 313 603Q248 603 213 545.50Q178 488 178 346Q178 246 190.50 190Q203 134 227 112Q251 90 291 90Q331 90 368 114L368 291L295 291L281 393L501 393L501 54Q457 21 402.50 3Q348-15 293-15Q161-15 96.50 72.50Q32 160 32 347Q32 467 68 548Q104 629 166 668.50Q228 708 307 708M292-71Q322-71 340.50-91Q359-111 359-141Q359-158 354.50-174.50Q350-191 337-222L299-315L232-315L258-200Q225-179 225-141Q225-111 243.50-91Q262-71 292-71Z"  horiz-adv-x="541" vert-adv-y="1000"  />

      
      <glyph glyph-name="uni0120" unicode="&#x0120;" d="M307 708Q366 708 412.50 686.50Q459 665 499 625L430 554Q400 580 373 591.50Q346 603 313 603Q248 603 213 545.50Q178 488 178 346Q178 246 190.50 190Q203 134 227 112Q251 90 291 90Q331 90 368 114L368 291L295 291L281 393L501 393L501 54Q457 21 402.50 3Q348-15 293-15Q161-15 96.50 72.50Q32 160 32 347Q32 467 68 548Q104 629 166 668.50Q228 708 307 708M294 926Q329 926 351 903Q373 880 373 845Q373 811 351 788.50Q329 766 294 766Q258 766 236 788.50Q214 811 214 845Q214 880 236 903Q258 926 294 926Z"  horiz-adv-x="541" vert-adv-y="1000"  />

      
      <glyph glyph-name="uni0193" unicode="&#x0193;" d="M519 847Q581 847 634 810L593 728Q578 737 566.50 741Q555 745 540 745Q499 745 499 691L499 625L436 559Q404 582 375.50 592.50Q347 603 313 603Q248 603 213 545.50Q178 488 178 346Q178 246 190.50 190Q203 134 227 112Q251 90 291 90Q331 90 368 114L368 291L295 291L281 393L501 393L501 54Q457 21 402.50 3Q348-15 293-15Q161-15 96.50 72.50Q32 160 32 347Q32 467 67.50 548Q103 629 163 668.50Q223 708 297 708Q340 708 381 690L381 700Q381 770 418 808.50Q455 847 519 847Z"  horiz-adv-x="510" vert-adv-y="1000"  />

      
      <glyph glyph-name="uni0241" unicode="&#x0241;" d="M119 326L162 342Q213 360 235 392Q257 424 257 486Q257 540 236 571.50Q215 603 178 603Q150 603 124.50 589.50Q99 576 68 549L0 618Q41 663 88.50 685.50Q136 708 194 708Q290 708 346.50 648Q403 588 403 490Q403 403 372.50 359.50Q342 316 281 291L260 282L260 0L118 0L119 326Z"  horiz-adv-x="416" vert-adv-y="1000"  />

      
      <glyph glyph-name="uni01E4" unicode="&#x01E4;" d="M559 175L501 175L501 54Q456 21 402 3Q348-15 291-15Q161-15 96.50 74.50Q32 164 32 347Q32 463 68 544Q104 625 166 666Q228 707 306 707Q420 707 499 625L428 550Q398 577 372.50 589.50Q347 602 314 602Q178 602 178 346Q178 250 190.50 194Q203 138 228 114Q253 90 293 90Q338 90 378 116L378 175L295 175L295 258L378 258L378 313L293 313L281 404L501 404L501 258L559 258L559 175Z"  horiz-adv-x="555" vert-adv-y="1000"  />

      
      <glyph glyph-name="uni021C" unicode="&#x021C;" d="M193 708Q253 708 298 684Q343 660 367.50 617.50Q392 575 392 522Q392 455 358.50 414Q325 373 254 358Q331 350 369.50 311Q408 272 408 196Q408 89 323.50 9.50Q239-70 57-109L46-3Q130 24 177 53.50Q224 83 243 118Q262 153 262 200Q262 252 236.50 277.50Q211 303 158 303L102 303L118 407L160 407Q203 407 225 433Q247 459 247 507Q247 551 229.50 577Q212 603 175 603Q148 603 120.50 589Q93 575 61 548L-3 618Q78 708 193 708Z"  horiz-adv-x="428" vert-adv-y="1000"  />

      
      <glyph glyph-name="uni48" unicode="&#x48;" d="M357 0L357 305L195 305L195 0L53 0L53 692L195 692L195 416L357 416L357 692L499 692L499 0L357 0Z"  horiz-adv-x="552" vert-adv-y="1000"  />

      
      <glyph glyph-name="uni0126" unicode="&#x0126;" d="M548 586L548 503L504 503L504 0L362 0L362 305L200 305L200 0L58 0L58 503L13 503L13 586L58 586L58 692L200 692L200 586L362 586L362 692L504 692L504 586L548 586M362 416L362 503L200 503L200 416L362 416Z"  horiz-adv-x="561" vert-adv-y="1000"  />

      
      <glyph glyph-name="uni021E" unicode="&#x021E;" d="M357 0L357 305L195 305L195 0L53 0L53 692L195 692L195 416L357 416L357 692L499 692L499 0L357 0M387 928L435 878L318 751L236 751L120 878L168 928L277 846L387 928Z"  horiz-adv-x="552" vert-adv-y="1000"  />

      
      <glyph glyph-name="uni0124" unicode="&#x0124;" d="M357 0L357 305L195 305L195 0L53 0L53 692L195 692L195 416L357 416L357 692L499 692L499 0L357 0M167 760L119 810L236 937L318 937L434 810L386 760L276 842L167 760Z"  horiz-adv-x="552" vert-adv-y="1000"  />

      
      <glyph glyph-name="uni1E24" unicode="&#x1E24;" d="M357 0L357 305L195 305L195 0L53 0L53 692L195 692L195 416L357 416L357 692L499 692L499 0L357 0M276-226Q241-226 219-203Q197-180 197-145Q197-111 219-88.50Q241-66 276-66Q312-66 334-88.50Q356-111 356-145Q356-180 334-203Q312-226 276-226Z"  horiz-adv-x="552" vert-adv-y="1000"  />

      
      <glyph glyph-name="uniA7AA" unicode="&#xA7AA;" d="M617 692L617 0L475 0L475 305L313 305L313 0L171 0L171 589L153 589Q113 589 113 545Q113 513 130 474L43 436Q24 464 14 492.50Q4 521 4 558Q4 619 43.50 655.50Q83 692 158 692L313 692L313 416L475 416L475 692L617 692Z"  horiz-adv-x="671" vert-adv-y="1000"  />

      
      <glyph glyph-name="uniA78D" unicode="&#xA78D;" d="M461 692L461 0L320 0L320 263Q291 234 261 221Q231 208 191 208Q114 208 66 260.50Q18 313 18 406L18 692L157 692L157 416Q157 360 176 337.50Q195 315 231 315Q284 315 320 359L320 692L461 692Z"  horiz-adv-x="514" vert-adv-y="1000"  />

      
      <glyph glyph-name="uni01F6" unicode="&#x01F6;" d="M727 530Q738 453 744.50 388.50Q751 324 751 257Q751 112 690 48.50Q629-15 536-15Q457-15 407 29Q357 73 357 155L357 305L195 305L195 0L53 0L53 692L195 692L195 416L357 416L357 692L499 692L499 154Q499 118 510.50 102Q522 86 545 86Q577 86 596 124Q615 162 615 261Q615 367 594 530L727 530Z"  horiz-adv-x="787" vert-adv-y="1000"  />

      
      <glyph glyph-name="uni49" unicode="&#x49;" d="M195 692L195 0L53 0L53 692L195 692Z"  horiz-adv-x="248" vert-adv-y="1000"  />

      
      <glyph glyph-name="uni0132" unicode="&#x0132;" d="M195 692L195 0L53 0L53 692L195 692M461 102Q461-10 411-67.50Q361-125 274-159L236-59Q272-41 290-20.50Q308 0 314 28.50Q320 57 320 107L320 692L461 692L461 102Z"  horiz-adv-x="512" vert-adv-y="1000"  />

      
      <glyph glyph-name="unicd" unicode="&#xcd;" d="M195 692L195 0L53 0L53 692L195 692M187 936L239 835L42 752L7 820L187 936Z"  horiz-adv-x="248" vert-adv-y="1000"  />

      
      <glyph glyph-name="uni012C" unicode="&#x012C;" d="M195 692L195 0L53 0L53 692L195 692M123 753Q59 753 22.50 793.50Q-14 834-19 902L54 917Q70 850 123 850Q179 850 193 917L267 902Q262 834 225 793.50Q188 753 123 753Z"  horiz-adv-x="248" vert-adv-y="1000"  />

      
      <glyph glyph-name="uni01CF" unicode="&#x01CF;" d="M195 692L195 0L53 0L53 692L195 692M234 928L282 878L165 751L83 751L-33 878L15 928L124 846L234 928Z"  horiz-adv-x="248" vert-adv-y="1000"  />

      
      <glyph glyph-name="unice" unicode="&#xce;" d="M195 692L195 0L53 0L53 692L195 692M14 760L-34 810L83 937L165 937L281 810L233 760L123 842L14 760Z"  horiz-adv-x="248" vert-adv-y="1000"  />

      
      <glyph glyph-name="uni0208" unicode="&#x0208;" d="M195 692L195 0L53 0L53 692L195 692M14 974L93 786L27 754L-74 927L14 974M160 974L232 788L165 759L70 930L160 974Z"  horiz-adv-x="248" vert-adv-y="1000"  />

      
      <glyph glyph-name="unicf" unicode="&#xcf;" d="M195 692L195 0L53 0L53 692L195 692M32 914Q62 914 81.50 893.50Q101 873 101 843Q101 813 81.50 792.50Q62 772 32 772Q3 772-17 792.50Q-37 813-37 843Q-37 873-17 893.50Q3 914 32 914M224 914Q254 914 273.50 893.50Q293 873 293 843Q293 813 273.50 792.50Q254 772 224 772Q195 772 174.50 792.50Q154 813 154 843Q154 873 174.50 893.50Q195 914 224 914Z"  horiz-adv-x="248" vert-adv-y="1000"  />

      
      <glyph glyph-name="uni1E2E" unicode="&#x1E2E;" d="M195 692L195 0L53 0L53 692L195 692M189 1069L270 1000L130 859L77 904L189 1069M22 890Q52 890 71.50 869.50Q91 849 91 819Q91 788 71.50 767.50Q52 747 22 747Q-7 747-27 767.50Q-47 788-47 819Q-47 848-27 869Q-7 890 22 890M224 890Q254 890 273.50 869.50Q293 849 293 819Q293 788 273.50 767.50Q254 747 224 747Q195 747 175 767.50Q155 788 155 819Q155 848 175 869Q195 890 224 890Z"  horiz-adv-x="248" vert-adv-y="1000"  />

      
      <glyph glyph-name="uni0130" unicode="&#x0130;" d="M195 692L195 0L53 0L53 692L195 692M124 926Q159 926 181 903Q203 880 203 845Q203 811 181 788.50Q159 766 124 766Q88 766 66 788.50Q44 811 44 845Q44 880 66 903Q88 926 124 926Z"  horiz-adv-x="248" vert-adv-y="1000"  />

      
      <glyph glyph-name="uni1ECA" unicode="&#x1ECA;" d="M195 692L195 0L53 0L53 692L195 692M123-226Q88-226 66-203Q44-180 44-145Q44-111 66-88.50Q88-66 123-66Q159-66 181-88.50Q203-111 203-145Q203-180 181-203Q159-226 123-226Z"  horiz-adv-x="248" vert-adv-y="1000"  />

      
      <glyph glyph-name="unicc" unicode="&#xcc;" d="M195 692L195 0L53 0L53 692L195 692M58 936L238 819L203 752L6 835L58 936Z"  horiz-adv-x="248" vert-adv-y="1000"  />

      
      <glyph glyph-name="uni1EC8" unicode="&#x1EC8;" d="M195 692L195 0L53 0L53 692L195 692M84 851Q116 854 129 862.50Q142 871 142 891Q142 907 134 915.50Q126 924 111 924Q97 924 86.50 921Q76 918 61 911L39 971Q77 996 129 996Q179 996 206 970Q233 944 233 899Q233 861 215 838Q197 815 164 808L164 764L84 764L84 851Z"  horiz-adv-x="248" vert-adv-y="1000"  />

      
      <glyph glyph-name="uni020A" unicode="&#x020A;" d="M195 692L195 0L53 0L53 692L195 692M123 942Q189 942 225.50 900Q262 858 267 782L193 768Q177 848 123 848Q70 848 54 768L-19 782Q-14 858 22 900Q58 942 123 942Z"  horiz-adv-x="248" vert-adv-y="1000"  />

      
      <glyph glyph-name="uni012A" unicode="&#x012A;" d="M195 692L195 0L53 0L53 692L195 692M250 787L-2 787L-2 880L250 880L250 787Z"  horiz-adv-x="248" vert-adv-y="1000"  />

      
      <glyph glyph-name="uni012E" unicode="&#x012E;" d="M195 692L195 0L162 0Q106-26 86-51.50Q66-77 66-107Q66-154 110-154Q127-154 158-147L150-233Q118-240 93-240Q37-240 2.50-211Q-32-182-32-130Q-32-50 53 4L53 692L195 692Z"  horiz-adv-x="248" vert-adv-y="1000"  />

      
      <glyph glyph-name="uni0196" unicode="&#x0196;" d="M331 25Q281-16 210-16Q135-16 89 25.50Q43 67 43 148L43 692L185 692L185 140Q185 89 227 89Q244 89 255.50 93Q267 97 282 106L331 25Z"  horiz-adv-x="327" vert-adv-y="1000"  />

      
      <glyph glyph-name="uni0197" unicode="&#x0197;" d="M270 411L270 308L209 308L209 0L67 0L67 308L6 308L6 411L67 411L67 692L209 692L209 411L270 411Z"  horiz-adv-x="275" vert-adv-y="1000"  />

      
      <glyph glyph-name="uni0128" unicode="&#x0128;" d="M195 692L195 0L53 0L53 692L195 692M175 772Q157 772 143.50 778.50Q130 785 112 797Q101 806 93 810Q85 814 77 814Q63 814 54 804.50Q45 795 33 772L-32 802Q-16 850 11.50 878.50Q39 907 74 907Q92 907 104.50 901Q117 895 136 883Q147 874 155 870Q163 866 172 866Q185 866 194.50 875.50Q204 885 215 906L280 877Q264 827 236.50 799.50Q209 772 175 772Z"  horiz-adv-x="248" vert-adv-y="1000"  />

      
      <glyph glyph-name="uni4a" unicode="&#x4a;" d="M213 102Q213-10 163-67.50Q113-125 26-159L-12-59Q24-41 42-20.50Q60 0 66 28.50Q72 57 72 107L72 692L213 692L213 102Z"  horiz-adv-x="264" vert-adv-y="1000"  />

      
      <glyph glyph-name="uni0134" unicode="&#x0134;" d="M213 102Q213-10 163-67.50Q113-125 26-159L-12-59Q24-41 42-20.50Q60 0 66 28.50Q72 57 72 107L72 692L213 692L213 102M32 760L-16 810L101 937L183 937L299 810L251 760L141 842L32 760Z"  horiz-adv-x="264" vert-adv-y="1000"  />

      
      <glyph glyph-name="uniA7B2" unicode="&#xA7B2;" d="M304-104Q273-87 240-74Q212-219 57-219Q-4-219-37-188Q-70-157-70-104Q-70-46-33-15Q4 16 71 16Q86 16 104 14L104 692L246 692L246-3Q293-20 334-46L304-104M51-145Q79-145 91.50-124.50Q104-104 104-61L104-52Q92-49 71-49Q40-49 26-61.50Q12-74 12-100Q12-145 51-145Z"  horiz-adv-x="300" vert-adv-y="1000"  />

      
      <glyph glyph-name="uni0248" unicode="&#x0248;" d="M274 290L213 290L213 102Q213-10 163-67.50Q113-125 26-159L-12-59Q24-41 42-20.50Q60 0 66 28.50Q72 57 72 107L72 290L10 290L10 396L72 396L72 692L213 692L213 396L274 396L274 290Z"  horiz-adv-x="280" vert-adv-y="1000"  />

      
      <glyph glyph-name="uni4b" unicode="&#x4b;" d="M195 692L195 0L53 0L53 692L195 692M523 692L342 380L538 0L383 0L199 369L382 692L523 692Z"  horiz-adv-x="529" vert-adv-y="1000"  />

      
      <glyph glyph-name="uni01E8" unicode="&#x01E8;" d="M195 692L195 0L53 0L53 692L195 692M523 692L342 380L538 0L383 0L199 369L382 692L523 692M383 928L431 878L314 751L232 751L116 878L164 928L273 846L383 928Z"  horiz-adv-x="529" vert-adv-y="1000"  />

      
      <glyph glyph-name="uni0136" unicode="&#x0136;" d="M195 692L195 0L53 0L53 692L195 692M523 692L342 380L538 0L383 0L199 369L382 692L523 692M271-71Q301-71 319.50-91Q338-111 338-141Q338-158 333.50-174.50Q329-191 316-222L278-315L211-315L237-200Q204-179 204-141Q204-111 222.50-91Q241-71 271-71Z"  horiz-adv-x="529" vert-adv-y="1000"  />

      
      <glyph glyph-name="uni0198" unicode="&#x0198;" d="M199 369L297 582Q326 649 359 678.50Q392 708 448 708Q503 708 551 671L513 593Q500 600 492 603.50Q484 607 472 607Q455 607 444 596Q433 585 420 557L338 379L538 0L383 0L199 369M195 692L195 0L53 0L53 692L195 692Z"  horiz-adv-x="542" vert-adv-y="1000"  />

      
      <glyph glyph-name="uni4c" unicode="&#x4c;" d="M195 692L195 114L415 114L400 0L53 0L53 692L195 692Z"  horiz-adv-x="421" vert-adv-y="1000"  />

      
      <glyph glyph-name="uni01C7" unicode="&#x01C7;" d="M195 692L195 114L415 114L400 0L53 0L53 692L195 692M612 102Q612-10 562-67.50Q512-125 425-159L387-59Q423-41 441-20.50Q459 0 465 28.50Q471 57 471 107L471 692L612 692L612 102Z"  horiz-adv-x="663" vert-adv-y="1000"  />

      
      <glyph glyph-name="uni0139" unicode="&#x0139;" d="M195 692L195 114L415 114L400 0L53 0L53 692L195 692M187 936L239 835L42 752L7 820L187 936Z"  horiz-adv-x="421" vert-adv-y="1000"  />

      
      <glyph glyph-name="uni023D" unicode="&#x023D;" d="M209 114L429 114L414 0L67 0L67 310L6 310L6 416L67 416L67 692L209 692L209 416L270 416L270 310L209 310L209 114Z"  horiz-adv-x="435" vert-adv-y="1000"  />

      
      <glyph glyph-name="uniA7AD" unicode="&#xA7AD;" d="M501 114L486 0L139 0L139 255Q71 257 37 290Q3 323 3 380Q3 433 33 462Q63 491 109 491Q127 491 139 488L139 692L281 692L281 339Q323 342 376 353L390 276Q344 263 281 258L281 114L501 114M92 381Q92 337 139 337L139 416Q127 418 121 418Q92 418 92 381Z"  horiz-adv-x="507" vert-adv-y="1000"  />

      
      <glyph glyph-name="uni013D" unicode="&#x013D;" d="M195 692L195 114L415 114L400 0L53 0L53 692L195 692M303 487L348 691L247 706L228 499L303 487Z"  horiz-adv-x="421" vert-adv-y="1000"  />

      
      <glyph glyph-name="uni1E3C" unicode="&#x1E3C;" d="M195 692L195 114L415 114L400 0L53 0L53 692L195 692M116-248L68-198L185-65L267-65L383-198L335-248L225-159L116-248Z"  horiz-adv-x="421" vert-adv-y="1000"  />

      
      <glyph glyph-name="uni013B" unicode="&#x013B;" d="M195 692L195 114L415 114L400 0L53 0L53 692L195 692M227-71Q257-71 275.50-91Q294-111 294-141Q294-158 289.50-174.50Q285-191 272-222L234-315L167-315L193-200Q160-179 160-141Q160-111 178.50-91Q197-71 227-71Z"  horiz-adv-x="421" vert-adv-y="1000"  />

      
      <glyph glyph-name="uni013F" unicode="&#x013F;" d="M195 692L195 114L415 114L400 0L53 0L53 692L195 692M330 476Q365 476 387 453Q409 430 409 395Q409 361 387 338.50Q365 316 330 316Q294 316 272 338.50Q250 361 250 395Q250 430 272 453Q294 476 330 476Z"  horiz-adv-x="421" vert-adv-y="1000"  />

      
      <glyph glyph-name="uni1E36" unicode="&#x1E36;" d="M195 692L195 114L415 114L400 0L53 0L53 692L195 692M226-226Q191-226 169-203Q147-180 147-145Q147-111 169-88.50Q191-66 226-66Q262-66 284-88.50Q306-111 306-145Q306-180 284-203Q262-226 226-226Z"  horiz-adv-x="421" vert-adv-y="1000"  />

      
      <glyph glyph-name="uni01C8" unicode="&#x01C8;" d="M195 692L195 114L415 114L400 0L53 0L53 692L195 692M593 31Q593-38 570.50-85Q548-132 509.50-161.50Q471-191 413-218L368-120Q399-102 417.50-84.50Q436-67 446.50-40Q457-13 457 29L457 530L593 530L593 31M525 800Q560 800 582 777Q604 754 604 719Q604 685 582 662.50Q560 640 525 640Q489 640 467 662.50Q445 685 445 719Q445 754 467 777Q489 800 525 800Z"  horiz-adv-x="645" vert-adv-y="1000"  />

      
      <glyph glyph-name="uni0141" unicode="&#x0141;" d="M230 114L450 114L435 0L88 0L88 234L50 207L6 284L88 345L88 692L230 692L230 447L327 516L373 439L230 336L230 114Z"  horiz-adv-x="457" vert-adv-y="1000"  />

      
      <glyph glyph-name="uni4d" unicode="&#x4d;" d="M632 0L498 0L489 284L487 345Q486 376 485 417Q484 458 484 507L485 564L399 75L266 75L175 564Q178 498 178 433Q178 359 175 281L166 0L34 0L77 692L252 692L335 211L411 692L589 692L632 0Z"  horiz-adv-x="666" vert-adv-y="1000"  />

      
      <glyph glyph-name="uni1E3E" unicode="&#x1E3E;" d="M632 0L498 0L489 284L487 345Q486 376 485 417Q484 458 484 507L485 564L399 75L266 75L175 564Q178 498 178 433Q178 359 175 281L166 0L34 0L77 692L252 692L335 211L411 692L589 692L632 0M395 936L447 835L250 752L215 820L395 936Z"  horiz-adv-x="666" vert-adv-y="1000"  />

      
      <glyph glyph-name="uni1E40" unicode="&#x1E40;" d="M632 0L498 0L489 284L487 345Q486 376 485 417Q484 458 484 507L485 564L399 75L266 75L175 564Q178 498 178 433Q178 359 175 281L166 0L34 0L77 692L252 692L335 211L411 692L589 692L632 0M332 926Q367 926 389 903Q411 880 411 845Q411 811 389 788.50Q367 766 332 766Q296 766 274 788.50Q252 811 252 845Q252 880 274 903Q296 926 332 926Z"  horiz-adv-x="666" vert-adv-y="1000"  />

      
      <glyph glyph-name="uni019C" unicode="&#x019C;" d="M701 692L701 0L577 0L568 62Q540 22 509.50 3.50Q479-15 440-15Q398-15 366.50 8.50Q335 32 318 73Q287 27 255 6Q223-15 183-15Q118-15 80.50 34Q43 83 43 160L43 692L185 692L185 166Q185 92 230 92Q250 92 267 107.50Q284 123 302 156L302 160L302 692L443 692L443 166Q443 132 454.50 112Q466 92 487 92Q509 92 526 107.50Q543 123 560 159L560 692L701 692Z"  horiz-adv-x="754" vert-adv-y="1000"  />

      
      <glyph glyph-name="uni4e" unicode="&#x4e;" d="M496 0L320 0L158 558L161 530Q168 464 172.50 407Q177 350 177 277L177 0L53 0L53 692L229 692L392 133Q384 177 378 243.50Q372 310 372 380L372 692L496 692L496 0Z"  horiz-adv-x="549" vert-adv-y="1000"  />

      
      <glyph glyph-name="uni01CA" unicode="&#x01CA;" d="M496 0L320 0L158 558L161 530Q168 464 172.50 407Q177 350 177 277L177 0L53 0L53 692L229 692L392 133Q384 177 378 243.50Q372 310 372 380L372 692L496 692L496 0M762 102Q762-10 712-67.50Q662-125 575-159L537-59Q573-41 591-20.50Q609 0 615 28.50Q621 57 621 107L621 692L762 692L762 102Z"  horiz-adv-x="813" vert-adv-y="1000"  />

      
      <glyph glyph-name="uni0143" unicode="&#x0143;" d="M496 0L320 0L158 558L161 530Q168 464 172.50 407Q177 350 177 277L177 0L53 0L53 692L229 692L392 133Q384 177 378 243.50Q372 310 372 380L372 692L496 692L496 0M341 936L393 835L196 752L161 820L341 936Z"  horiz-adv-x="549" vert-adv-y="1000"  />

      
      <glyph glyph-name="uni0147" unicode="&#x0147;" d="M496 0L320 0L158 558L161 530Q168 464 172.50 407Q177 350 177 277L177 0L53 0L53 692L229 692L392 133Q384 177 378 243.50Q372 310 372 380L372 692L496 692L496 0M388 928L436 878L319 751L237 751L121 878L169 928L278 846L388 928Z"  horiz-adv-x="549" vert-adv-y="1000"  />

      
      <glyph glyph-name="uni1E4A" unicode="&#x1E4A;" d="M496 0L320 0L158 558L161 530Q168 464 172.50 407Q177 350 177 277L177 0L53 0L53 692L229 692L392 133Q384 177 378 243.50Q372 310 372 380L372 692L496 692L496 0M164-248L116-198L233-65L315-65L431-198L383-248L273-159L164-248Z"  horiz-adv-x="549" vert-adv-y="1000"  />

      
      <glyph glyph-name="uni0145" unicode="&#x0145;" d="M496 0L320 0L158 558L161 530Q168 464 172.50 407Q177 350 177 277L177 0L53 0L53 692L229 692L392 133Q384 177 378 243.50Q372 310 372 380L372 692L496 692L496 0M275-71Q305-71 323.50-91Q342-111 342-141Q342-158 337.50-174.50Q333-191 320-222L282-315L215-315L241-200Q208-179 208-141Q208-111 226.50-91Q245-71 275-71Z"  horiz-adv-x="549" vert-adv-y="1000"  />

      
      <glyph glyph-name="uni1E44" unicode="&#x1E44;" d="M496 0L320 0L158 558L161 530Q168 464 172.50 407Q177 350 177 277L177 0L53 0L53 692L229 692L392 133Q384 177 378 243.50Q372 310 372 380L372 692L496 692L496 0M278 926Q313 926 335 903Q357 880 357 845Q357 811 335 788.50Q313 766 278 766Q242 766 220 788.50Q198 811 198 845Q198 880 220 903Q242 926 278 926Z"  horiz-adv-x="549" vert-adv-y="1000"  />

      
      <glyph glyph-name="uni1E46" unicode="&#x1E46;" d="M496 0L320 0L158 558L161 530Q168 464 172.50 407Q177 350 177 277L177 0L53 0L53 692L229 692L392 133Q384 177 378 243.50Q372 310 372 380L372 692L496 692L496 0M274-226Q239-226 217-203Q195-180 195-145Q195-111 217-88.50Q239-66 274-66Q310-66 332-88.50Q354-111 354-145Q354-180 332-203Q310-226 274-226Z"  horiz-adv-x="549" vert-adv-y="1000"  />

      
      <glyph glyph-name="uni01F8" unicode="&#x01F8;" d="M496 0L320 0L158 558L161 530Q168 464 172.50 407Q177 350 177 277L177 0L53 0L53 692L229 692L392 133Q384 177 378 243.50Q372 310 372 380L372 692L496 692L496 0M212 936L392 819L357 752L160 835L212 936Z"  horiz-adv-x="549" vert-adv-y="1000"  />

      
      <glyph glyph-name="uni014A" unicode="&#x014A;" d="M496 692L496-55Q496-136 450-177.50Q404-219 329-219Q258-219 208-178L257-97Q272-106 283.50-110Q295-114 312-114Q354-114 354-63L354 0L320 0L158 558L161 530Q168 464 172.50 407Q177 350 177 277L177 0L53 0L53 692L229 692L392 133Q384 177 378 243.50Q372 310 372 380L372 692L496 692Z"  horiz-adv-x="549" vert-adv-y="1000"  />

      
      <glyph glyph-name="uni019D" unicode="&#x019D;" d="M496 692L496 0L320 0L158 558L161 530Q168 464 172.50 407Q177 350 177 277L177-55Q177-134 134-176.50Q91-219 22-219Q-45-219-95-178L-46-104Q-29-113-17.50-117Q-6-121 10-121Q53-121 53-65L53 692L229 692L392 133Q384 177 378 243.50Q372 310 372 380L372 692L496 692Z"  horiz-adv-x="549" vert-adv-y="1000"  />

      
      <glyph glyph-name="uni01CB" unicode="&#x01CB;" d="M496 0L320 0L158 558L161 530Q168 464 172.50 407Q177 350 177 277L177 0L53 0L53 692L229 692L392 133Q384 177 378 243.50Q372 310 372 380L372 692L496 692L496 0M736 31Q736-38 713.50-85Q691-132 652.50-161.50Q614-191 556-218L511-120Q542-102 560.50-84.50Q579-67 589.50-40Q600-13 600 29L600 530L736 530L736 31M668 800Q703 800 725 777Q747 754 747 719Q747 685 725 662.50Q703 640 668 640Q632 640 610 662.50Q588 685 588 719Q588 754 610 777Q632 800 668 800Z"  horiz-adv-x="788" vert-adv-y="1000"  />

      
      <glyph glyph-name="uni0220" unicode="&#x0220;" d="M344 708Q417 708 455.50 660.50Q494 613 494 533L494-208L352-208L352 509Q352 558 339 579.50Q326 601 297 601Q268 601 245.50 584Q223 567 195 533L195 0L53 0L53 692L177 692L187 628Q221 668 259 688Q297 708 344 708Z"  horiz-adv-x="541" vert-adv-y="1000"  />

      
      <glyph glyph-name="unid1" unicode="&#xd1;" d="M496 0L320 0L158 558L161 530Q168 464 172.50 407Q177 350 177 277L177 0L53 0L53 692L229 692L392 133Q384 177 378 243.50Q372 310 372 380L372 692L496 692L496 0M329 772Q311 772 297.50 778.50Q284 785 266 797Q255 806 247 810Q239 814 231 814Q217 814 208 804.50Q199 795 187 772L122 802Q138 850 165.50 878.50Q193 907 228 907Q246 907 258.50 901Q271 895 290 883Q301 874 309 870Q317 866 326 866Q339 866 348.50 875.50Q358 885 369 906L434 877Q418 827 390.50 799.50Q363 772 329 772Z"  horiz-adv-x="549" vert-adv-y="1000"  />

      
      <glyph glyph-name="uni4f" unicode="&#x4f;" d="M290 708Q414 708 481 618Q548 528 548 346Q548 166 481 75Q414-16 290-16Q165-16 98.50 74Q32 164 32 346Q32 525 99 616.50Q166 708 290 708M290 602Q233 602 206 543.50Q179 485 179 346Q179 205 206 147.50Q233 90 290 90Q329 90 353 114Q377 138 389 194Q401 250 401 346Q401 485 374 543.50Q347 602 290 602Z"  horiz-adv-x="580" vert-adv-y="1000"  />

      
      <glyph glyph-name="uni0222" unicode="&#x0222;" d="M401 395Q456 373 485 327.50Q514 282 514 215Q514 151 485 98.50Q456 46 401 15.50Q346-15 273-15Q200-15 145 15Q90 45 61 97Q32 149 32 214Q32 279 61 325Q90 371 145 394Q106 414 85.50 446Q65 478 65 520L65 692L206 692L206 512Q206 478 221 459Q236 440 273 440Q310 440 325 460.50Q340 481 340 512L340 692L482 692L482 520Q482 480 461 447.50Q440 415 401 395M273 90Q321 90 344 120Q367 150 367 216Q367 337 273 337Q179 337 179 215Q179 150 202.50 120Q226 90 273 90Z"  horiz-adv-x="546" vert-adv-y="1000"  />

      
      <glyph glyph-name="unid3" unicode="&#xd3;" d="M290 708Q414 708 481 618Q548 528 548 346Q548 166 481 75Q414-16 290-16Q165-16 98.50 74Q32 164 32 346Q32 525 99 616.50Q166 708 290 708M290 602Q233 602 206 543.50Q179 485 179 346Q179 205 206 147.50Q233 90 290 90Q329 90 353 114Q377 138 389 194Q401 250 401 346Q401 485 374 543.50Q347 602 290 602M353 936L405 835L208 752L173 820L353 936Z"  horiz-adv-x="580" vert-adv-y="1000"  />

      
      <glyph glyph-name="uni014E" unicode="&#x014E;" d="M290 708Q414 708 481 618Q548 528 548 346Q548 166 481 75Q414-16 290-16Q165-16 98.50 74Q32 164 32 346Q32 525 99 616.50Q166 708 290 708M290 602Q233 602 206 543.50Q179 485 179 346Q179 205 206 147.50Q233 90 290 90Q329 90 353 114Q377 138 389 194Q401 250 401 346Q401 485 374 543.50Q347 602 290 602M289 753Q225 753 188.50 793.50Q152 834 147 902L220 917Q236 850 289 850Q345 850 359 917L433 902Q428 834 391 793.50Q354 753 289 753Z"  horiz-adv-x="580" vert-adv-y="1000"  />

      
      <glyph glyph-name="uni01D1" unicode="&#x01D1;" d="M290 708Q414 708 481 618Q548 528 548 346Q548 166 481 75Q414-16 290-16Q165-16 98.50 74Q32 164 32 346Q32 525 99 616.50Q166 708 290 708M290 602Q233 602 206 543.50Q179 485 179 346Q179 205 206 147.50Q233 90 290 90Q329 90 353 114Q377 138 389 194Q401 250 401 346Q401 485 374 543.50Q347 602 290 602M400 928L448 878L331 751L249 751L133 878L181 928L290 846L400 928Z"  horiz-adv-x="580" vert-adv-y="1000"  />

      
      <glyph glyph-name="uni019F" unicode="&#x019F;" d="M290 708Q414 708 481 618Q548 528 548 346Q548 166 481 75Q414-16 290-16Q165-16 98.50 74Q32 164 32 346Q32 525 99 616.50Q166 708 290 708M290 602Q235 602 206.50 554Q178 506 174 393L406 393Q402 506 373.50 554Q345 602 290 602M290 90Q347 90 375 139.50Q403 189 406 309L174 309Q177 189 205 139.50Q233 90 290 90Z"  horiz-adv-x="580" vert-adv-y="1000"  />

      
      <glyph glyph-name="unid4" unicode="&#xd4;" d="M290 708Q414 708 481 618Q548 528 548 346Q548 166 481 75Q414-16 290-16Q165-16 98.50 74Q32 164 32 346Q32 525 99 616.50Q166 708 290 708M290 602Q233 602 206 543.50Q179 485 179 346Q179 205 206 147.50Q233 90 290 90Q329 90 353 114Q377 138 389 194Q401 250 401 346Q401 485 374 543.50Q347 602 290 602M180 760L132 810L249 937L331 937L447 810L399 760L289 842L180 760Z"  horiz-adv-x="580" vert-adv-y="1000"  />

      
      <glyph glyph-name="uni1ED0" unicode="&#x1ED0;" d="M290 708Q414 708 481 618Q548 528 548 346Q548 166 481 75Q414-16 290-16Q165-16 98.50 74Q32 164 32 346Q32 525 99 616.50Q166 708 290 708M290 602Q233 602 206 543.50Q179 485 179 346Q179 205 206 147.50Q233 90 290 90Q329 90 353 114Q377 138 389 194Q401 250 401 346Q401 485 374 543.50Q347 602 290 602M181 724L133 774L250 901L332 901L448 774L400 724L290 806L181 724M486 1068L567 999L427 858L374 903L486 1068Z"  horiz-adv-x="580" vert-adv-y="1000"  />

      
      <glyph glyph-name="uni1ED8" unicode="&#x1ED8;" d="M290 708Q414 708 481 618Q548 528 548 346Q548 166 481 75Q414-16 290-16Q165-16 98.50 74Q32 164 32 346Q32 525 99 616.50Q166 708 290 708M290 602Q233 602 206 543.50Q179 485 179 346Q179 205 206 147.50Q233 90 290 90Q329 90 353 114Q377 138 389 194Q401 250 401 346Q401 485 374 543.50Q347 602 290 602M180 760L132 810L249 937L331 937L447 810L399 760L289 842L180 760M289-226Q254-226 232-203Q210-180 210-145Q210-111 232-88.50Q254-66 289-66Q325-66 347-88.50Q369-111 369-145Q369-180 347-203Q325-226 289-226Z"  horiz-adv-x="580" vert-adv-y="1000"  />

      
      <glyph glyph-name="uni1ED2" unicode="&#x1ED2;" d="M290 708Q414 708 481 618Q548 528 548 346Q548 166 481 75Q414-16 290-16Q165-16 98.50 74Q32 164 32 346Q32 525 99 616.50Q166 708 290 708M290 602Q233 602 206 543.50Q179 485 179 346Q179 205 206 147.50Q233 90 290 90Q329 90 353 114Q377 138 389 194Q401 250 401 346Q401 485 374 543.50Q347 602 290 602M180 724L132 774L249 901L331 901L447 774L399 724L289 806L180 724M96 1068L209 903L154 858L15 999L96 1068Z"  horiz-adv-x="580" vert-adv-y="1000"  />

      
      <glyph glyph-name="uni1ED4" unicode="&#x1ED4;" d="M290 708Q414 708 481 618Q548 528 548 346Q548 166 481 75Q414-16 290-16Q165-16 98.50 74Q32 164 32 346Q32 525 99 616.50Q166 708 290 708M290 602Q233 602 206 543.50Q179 485 179 346Q179 205 206 147.50Q233 90 290 90Q329 90 353 114Q377 138 389 194Q401 250 401 346Q401 485 374 543.50Q347 602 290 602M180 724L132 774L249 901L331 901L447 774L399 724L289 806L180 724M393 930Q425 933 438 941.50Q451 950 451 970Q451 986 443 994.50Q435 1003 420 1003Q406 1003 395.50 1000Q385 997 370 990L348 1050Q386 1075 438 1075Q488 1075 515 1049Q542 1023 542 978Q542 940 524 917Q506 894 473 887L473 843L393 843L393 930Z"  horiz-adv-x="580" vert-adv-y="1000"  />

      
      <glyph glyph-name="uni1ED6" unicode="&#x1ED6;" d="M290 708Q414 708 481 618Q548 528 548 346Q548 166 481 75Q414-16 290-16Q165-16 98.50 74Q32 164 32 346Q32 525 99 616.50Q166 708 290 708M290 602Q233 602 206 543.50Q179 485 179 346Q179 205 206 147.50Q233 90 290 90Q329 90 353 114Q377 138 389 194Q401 250 401 346Q401 485 374 543.50Q347 602 290 602M180 724L132 774L249 901L331 901L447 774L399 724L289 806L180 724M340 935Q321 935 307.50 941.50Q294 948 277 959Q256 975 242 975Q228 975 219 966Q210 957 198 935L133 963Q149 1008 176.50 1035.50Q204 1063 239 1063Q257 1063 270 1057Q283 1051 301 1040Q322 1024 337 1024Q350 1024 359 1033Q368 1042 380 1062L445 1035Q429 988 401.50 961.50Q374 935 340 935Z"  horiz-adv-x="580" vert-adv-y="1000"  />

      
      <glyph glyph-name="uni020C" unicode="&#x020C;" d="M290 708Q414 708 481 618Q548 528 548 346Q548 166 481 75Q414-16 290-16Q165-16 98.50 74Q32 164 32 346Q32 525 99 616.50Q166 708 290 708M290 602Q233 602 206 543.50Q179 485 179 346Q179 205 206 147.50Q233 90 290 90Q329 90 353 114Q377 138 389 194Q401 250 401 346Q401 485 374 543.50Q347 602 290 602M180 974L259 786L193 754L92 927L180 974M326 974L398 788L331 759L236 930L326 974Z"  horiz-adv-x="580" vert-adv-y="1000"  />

      
      <glyph glyph-name="unid6" unicode="&#xd6;" d="M290 708Q414 708 481 618Q548 528 548 346Q548 166 481 75Q414-16 290-16Q165-16 98.50 74Q32 164 32 346Q32 525 99 616.50Q166 708 290 708M290 602Q233 602 206 543.50Q179 485 179 346Q179 205 206 147.50Q233 90 290 90Q329 90 353 114Q377 138 389 194Q401 250 401 346Q401 485 374 543.50Q347 602 290 602M198 914Q228 914 247.50 893.50Q267 873 267 843Q267 813 247.50 792.50Q228 772 198 772Q169 772 149 792.50Q129 813 129 843Q129 873 149 893.50Q169 914 198 914M390 914Q420 914 439.50 893.50Q459 873 459 843Q459 813 439.50 792.50Q420 772 390 772Q361 772 340.50 792.50Q320 813 320 843Q320 873 340.50 893.50Q361 914 390 914Z"  horiz-adv-x="580" vert-adv-y="1000"  />

      
      <glyph glyph-name="uni022A" unicode="&#x022A;" d="M290 708Q414 708 481 618Q548 528 548 346Q548 166 481 75Q414-16 290-16Q165-16 98.50 74Q32 164 32 346Q32 525 99 616.50Q166 708 290 708M290 602Q233 602 206 543.50Q179 485 179 346Q179 205 206 147.50Q233 90 290 90Q329 90 353 114Q377 138 389 194Q401 250 401 346Q401 485 374 543.50Q347 602 290 602M195 888Q225 888 244.50 867.50Q264 847 264 817Q264 787 244.50 766.50Q225 746 195 746Q166 746 146 766.50Q126 787 126 817Q126 847 146 867.50Q166 888 195 888M387 888Q417 888 436.50 867.50Q456 847 456 817Q456 787 436.50 766.50Q417 746 387 746Q358 746 337.50 766.50Q317 787 317 817Q317 847 337.50 867.50Q358 888 387 888M417 934L165 934L165 1027L417 1027L417 934Z"  horiz-adv-x="580" vert-adv-y="1000"  />

      
      <glyph glyph-name="uni022E" unicode="&#x022E;" d="M290 708Q414 708 481 618Q548 528 548 346Q548 166 481 75Q414-16 290-16Q165-16 98.50 74Q32 164 32 346Q32 525 99 616.50Q166 708 290 708M290 602Q233 602 206 543.50Q179 485 179 346Q179 205 206 147.50Q233 90 290 90Q329 90 353 114Q377 138 389 194Q401 250 401 346Q401 485 374 543.50Q347 602 290 602M290 926Q325 926 347 903Q369 880 369 845Q369 811 347 788.50Q325 766 290 766Q254 766 232 788.50Q210 811 210 845Q210 880 232 903Q254 926 290 926Z"  horiz-adv-x="580" vert-adv-y="1000"  />

      
      <glyph glyph-name="uni0230" unicode="&#x0230;" d="M290 708Q414 708 481 618Q548 528 548 346Q548 166 481 75Q414-16 290-16Q165-16 98.50 74Q32 164 32 346Q32 525 99 616.50Q166 708 290 708M290 602Q233 602 206 543.50Q179 485 179 346Q179 205 206 147.50Q233 90 290 90Q329 90 353 114Q377 138 389 194Q401 250 401 346Q401 485 374 543.50Q347 602 290 602M290 899Q325 899 347 876Q369 853 369 818Q369 784 347 761.50Q325 739 290 739Q254 739 232 761.50Q210 784 210 818Q210 853 232 876Q254 899 290 899M416 935L164 935L164 1028L416 1028L416 935Z"  horiz-adv-x="580" vert-adv-y="1000"  />

      
      <glyph glyph-name="uni1ECC" unicode="&#x1ECC;" d="M290 708Q414 708 481 618Q548 528 548 346Q548 166 481 75Q414-16 290-16Q165-16 98.50 74Q32 164 32 346Q32 525 99 616.50Q166 708 290 708M290 602Q233 602 206 543.50Q179 485 179 346Q179 205 206 147.50Q233 90 290 90Q329 90 353 114Q377 138 389 194Q401 250 401 346Q401 485 374 543.50Q347 602 290 602M289-226Q254-226 232-203Q210-180 210-145Q210-111 232-88.50Q254-66 289-66Q325-66 347-88.50Q369-111 369-145Q369-180 347-203Q325-226 289-226Z"  horiz-adv-x="580" vert-adv-y="1000"  />

      
      <glyph glyph-name="unid2" unicode="&#xd2;" d="M290 708Q414 708 481 618Q548 528 548 346Q548 166 481 75Q414-16 290-16Q165-16 98.50 74Q32 164 32 346Q32 525 99 616.50Q166 708 290 708M290 602Q233 602 206 543.50Q179 485 179 346Q179 205 206 147.50Q233 90 290 90Q329 90 353 114Q377 138 389 194Q401 250 401 346Q401 485 374 543.50Q347 602 290 602M224 936L404 819L369 752L172 835L224 936Z"  horiz-adv-x="580" vert-adv-y="1000"  />

      
      <glyph glyph-name="uni1ECE" unicode="&#x1ECE;" d="M290 708Q414 708 481 618Q548 528 548 346Q548 166 481 75Q414-16 290-16Q165-16 98.50 74Q32 164 32 346Q32 525 99 616.50Q166 708 290 708M290 602Q233 602 206 543.50Q179 485 179 346Q179 205 206 147.50Q233 90 290 90Q329 90 353 114Q377 138 389 194Q401 250 401 346Q401 485 374 543.50Q347 602 290 602M250 851Q282 854 295 862.50Q308 871 308 891Q308 907 300 915.50Q292 924 277 924Q263 924 252.50 921Q242 918 227 911L205 971Q243 996 295 996Q345 996 372 970Q399 944 399 899Q399 861 381 838Q363 815 330 808L330 764L250 764L250 851Z"  horiz-adv-x="580" vert-adv-y="1000"  />

      
      <glyph glyph-name="uni01A0" unicode="&#x01A0;" d="M596 685Q596 637 573.50 608.50Q551 580 509 570Q548 483 548 346Q548 166 481 75Q414-16 290-16Q165-16 98.50 74Q32 164 32 346Q32 525 99 616.50Q166 708 290 708Q403 708 468 634Q488 637 496.50 648.50Q505 660 505 684Q505 721 494 758L580 773Q596 733 596 685M290 90Q329 90 353 114Q377 138 389 194Q401 250 401 346Q401 485 374 543.50Q347 602 290 602Q233 602 206 543.50Q179 485 179 346Q179 205 206 147.50Q233 90 290 90Z"  horiz-adv-x="613" vert-adv-y="1000"  />

      
      <glyph glyph-name="uni1EDA" unicode="&#x1EDA;" d="M405 835L208 752L173 820L353 936L405 835M596 685Q596 637 573.50 608.50Q551 580 509 570Q548 483 548 346Q548 166 481 75Q414-16 290-16Q165-16 98.50 74Q32 164 32 346Q32 525 99 616.50Q166 708 290 708Q403 708 468 634Q488 637 496.50 648.50Q505 660 505 684Q505 721 494 758L580 773Q596 733 596 685M290 90Q329 90 353 114Q377 138 389 194Q401 250 401 346Q401 485 374 543.50Q347 602 290 602Q233 602 206 543.50Q179 485 179 346Q179 205 206 147.50Q233 90 290 90Z"  horiz-adv-x="613" vert-adv-y="1000"  />

      
      <glyph glyph-name="uni1EE2" unicode="&#x1EE2;" d="M596 685Q596 637 573.50 608.50Q551 580 509 570Q548 483 548 346Q548 166 481 75Q414-16 290-16Q165-16 98.50 74Q32 164 32 346Q32 525 99 616.50Q166 708 290 708Q403 708 468 634Q488 637 496.50 648.50Q505 660 505 684Q505 721 494 758L580 773Q596 733 596 685M290 90Q329 90 353 114Q377 138 389 194Q401 250 401 346Q401 485 374 543.50Q347 602 290 602Q233 602 206 543.50Q179 485 179 346Q179 205 206 147.50Q233 90 290 90M289-66Q325-66 347-88.50Q369-111 369-145Q369-180 347-203Q325-226 289-226Q254-226 232-203Q210-180 210-145Q210-111 232-88.50Q254-66 289-66Z"  horiz-adv-x="613" vert-adv-y="1000"  />

      
      <glyph glyph-name="uni1EDC" unicode="&#x1EDC;" d="M404 819L369 752L172 835L224 936L404 819M596 685Q596 637 573.50 608.50Q551 580 509 570Q548 483 548 346Q548 166 481 75Q414-16 290-16Q165-16 98.50 74Q32 164 32 346Q32 525 99 616.50Q166 708 290 708Q403 708 468 634Q488 637 496.50 648.50Q505 660 505 684Q505 721 494 758L580 773Q596 733 596 685M290 90Q329 90 353 114Q377 138 389 194Q401 250 401 346Q401 485 374 543.50Q347 602 290 602Q233 602 206 543.50Q179 485 179 346Q179 205 206 147.50Q233 90 290 90Z"  horiz-adv-x="613" vert-adv-y="1000"  />

      
      <glyph glyph-name="uni1EDE" unicode="&#x1EDE;" d="M277 924Q263 924 252.50 921Q242 918 227 911L205 971Q243 996 295 996Q345 996 372 970Q399 944 399 899Q399 861 381 838Q363 815 330 808L330 764L250 764L250 851Q282 854 295 862.50Q308 871 308 891Q308 907 300 915.50Q292 924 277 924M596 685Q596 637 573.50 608.50Q551 580 509 570Q548 483 548 346Q548 166 481 75Q414-16 290-16Q165-16 98.50 74Q32 164 32 346Q32 525 99 616.50Q166 708 290 708Q403 708 468 634Q488 637 496.50 648.50Q505 660 505 684Q505 721 494 758L580 773Q596 733 596 685M290 90Q329 90 353 114Q377 138 389 194Q401 250 401 346Q401 485 374 543.50Q347 602 290 602Q233 602 206 543.50Q179 485 179 346Q179 205 206 147.50Q233 90 290 90Z"  horiz-adv-x="613" vert-adv-y="1000"  />

      
      <glyph glyph-name="uni1EE0" unicode="&#x1EE0;" d="M243 814Q229 814 220 804.50Q211 795 199 772L134 802Q150 850 177.50 878.50Q205 907 240 907Q258 907 270.50 901Q283 895 302 883Q313 874 321 870Q329 866 338 866Q351 866 360.50 875.50Q370 885 381 906L446 877Q430 827 402.50 799.50Q375 772 341 772Q323 772 309.50 778.50Q296 785 278 797Q267 806 259 810Q251 814 243 814M596 685Q596 637 573.50 608.50Q551 580 509 570Q548 483 548 346Q548 166 481 75Q414-16 290-16Q165-16 98.50 74Q32 164 32 346Q32 525 99 616.50Q166 708 290 708Q403 708 468 634Q488 637 496.50 648.50Q505 660 505 684Q505 721 494 758L580 773Q596 733 596 685M290 90Q329 90 353 114Q377 138 389 194Q401 250 401 346Q401 485 374 543.50Q347 602 290 602Q233 602 206 543.50Q179 485 179 346Q179 205 206 147.50Q233 90 290 90Z"  horiz-adv-x="613" vert-adv-y="1000"  />

      
      <glyph glyph-name="uni0150" unicode="&#x0150;" d="M290 708Q414 708 481 618Q548 528 548 346Q548 166 481 75Q414-16 290-16Q165-16 98.50 74Q32 164 32 346Q32 525 99 616.50Q166 708 290 708M290 602Q233 602 206 543.50Q179 485 179 346Q179 205 206 147.50Q233 90 290 90Q329 90 353 114Q377 138 389 194Q401 250 401 346Q401 485 374 543.50Q347 602 290 602M255 974L344 930L250 759L183 788L255 974M400 974L489 927L387 754L322 786L400 974Z"  horiz-adv-x="580" vert-adv-y="1000"  />

      
      <glyph glyph-name="uni01A2" unicode="&#x01A2;" d="M574 708Q650 708 695.50 663Q741 618 741 537L741-207L600-207L600 544Q600 607 553 607Q525 607 498 592Q548 500 548 346Q548 166 481 75Q414-16 290-16Q165-16 98.50 74Q32 164 32 346Q32 525 99 616.50Q166 708 290 708Q378 708 438 663Q499 708 574 708M290 90Q329 90 353 114Q377 138 389 194Q401 250 401 346Q401 485 374 543.50Q347 602 290 602Q233 602 206 543.50Q179 485 179 346Q179 205 206 147.50Q233 90 290 90Z"  horiz-adv-x="795" vert-adv-y="1000"  />

      
      <glyph glyph-name="uni020E" unicode="&#x020E;" d="M290 708Q414 708 481 618Q548 528 548 346Q548 166 481 75Q414-16 290-16Q165-16 98.50 74Q32 164 32 346Q32 525 99 616.50Q166 708 290 708M290 602Q233 602 206 543.50Q179 485 179 346Q179 205 206 147.50Q233 90 290 90Q329 90 353 114Q377 138 389 194Q401 250 401 346Q401 485 374 543.50Q347 602 290 602M289 942Q355 942 391.50 900Q428 858 433 782L359 768Q343 848 289 848Q236 848 220 768L147 782Q152 858 188 900Q224 942 289 942Z"  horiz-adv-x="580" vert-adv-y="1000"  />

      
      <glyph glyph-name="uni014C" unicode="&#x014C;" d="M290 708Q414 708 481 618Q548 528 548 346Q548 166 481 75Q414-16 290-16Q165-16 98.50 74Q32 164 32 346Q32 525 99 616.50Q166 708 290 708M290 602Q233 602 206 543.50Q179 485 179 346Q179 205 206 147.50Q233 90 290 90Q329 90 353 114Q377 138 389 194Q401 250 401 346Q401 485 374 543.50Q347 602 290 602M416 787L164 787L164 880L416 880L416 787Z"  horiz-adv-x="580" vert-adv-y="1000"  />

      
      <glyph glyph-name="uni1E52" unicode="&#x1E52;" d="M290 708Q414 708 481 618Q548 528 548 346Q548 166 481 75Q414-16 290-16Q165-16 98.50 74Q32 164 32 346Q32 525 99 616.50Q166 708 290 708M290 602Q233 602 206 543.50Q179 485 179 346Q179 205 206 147.50Q233 90 290 90Q329 90 353 114Q377 138 389 194Q401 250 401 346Q401 485 374 543.50Q347 602 290 602M416 762L164 762L164 855L416 855L416 762M349 1078L401 977L204 894L169 962L349 1078Z"  horiz-adv-x="580" vert-adv-y="1000"  />

      
      <glyph glyph-name="uni1E50" unicode="&#x1E50;" d="M225 1086L405 969L370 902L173 985L225 1086M416 762L164 762L164 855L416 855L416 762M290 708Q414 708 481 618Q548 528 548 346Q548 166 481 75Q414-16 290-16Q165-16 98.50 74Q32 164 32 346Q32 525 99 616.50Q166 708 290 708M290 602Q233 602 206 543.50Q179 485 179 346Q179 205 206 147.50Q233 90 290 90Q329 90 353 114Q377 138 389 194Q401 250 401 346Q401 485 374 543.50Q347 602 290 602Z"  horiz-adv-x="580" vert-adv-y="1000"  />

      
      <glyph glyph-name="uniA7B6" unicode="&#xA7B6;" d="M633 692Q663 610 680.50 517Q698 424 698 301Q698 134 651 59.50Q604-15 514-15Q454-15 418.50 13Q383 41 369 99Q356 42 320.50 13.50Q285-15 230-15Q134-15 87.50 58Q41 131 41 301Q41 424 58.50 517.50Q76 611 105 692L236 692Q210 592 196 505Q182 418 182 308Q182 223 188.50 176Q195 129 209.50 109.50Q224 90 249 90Q300 90 300 161L300 398L440 398L440 161Q440 90 492 90Q515 90 528.50 107.50Q542 125 549 172Q556 219 556 307Q556 418 541 505.50Q526 593 497 692L633 692Z"  horiz-adv-x="738" vert-adv-y="1000"  />

      
      <glyph glyph-name="uni01EA" unicode="&#x01EA;" d="M380-2Q326-28 306.50-53Q287-78 287-107Q287-154 331-154Q348-154 379-147L371-233Q340-240 314-240Q258-240 223.50-211Q189-182 189-130Q189-62 249-13Q144 1 88 90Q32 179 32 346Q32 525 99 616.50Q166 708 290 708Q414 708 481 618Q548 528 548 346Q548 203 505 115.50Q462 28 380-2M179 346Q179 205 206 147.50Q233 90 290 90Q329 90 353 114Q377 138 389 194Q401 250 401 346Q401 485 374 543.50Q347 602 290 602Q233 602 206 543.50Q179 485 179 346Z"  horiz-adv-x="580" vert-adv-y="1000"  />

      
      <glyph glyph-name="uni01EC" unicode="&#x01EC;" d="M416 880L416 787L164 787L164 880L416 880M380-2Q326-28 306.50-53Q287-78 287-107Q287-154 331-154Q348-154 379-147L371-233Q340-240 314-240Q258-240 223.50-211Q189-182 189-130Q189-62 249-13Q144 1 88 90Q32 179 32 346Q32 525 99 616.50Q166 708 290 708Q414 708 481 618Q548 528 548 346Q548 203 505 115.50Q462 28 380-2M179 346Q179 205 206 147.50Q233 90 290 90Q329 90 353 114Q377 138 389 194Q401 250 401 346Q401 485 374 543.50Q347 602 290 602Q233 602 206 543.50Q179 485 179 346Z"  horiz-adv-x="580" vert-adv-y="1000"  />

      
      <glyph glyph-name="uni0186" unicode="&#x0186;" d="M197 708Q314 708 381 618Q448 528 448 348Q448 168 378 76.50Q308-15 188-15Q132-15 85.50 9Q39 33 5 70L71 146Q102 120 125.50 108Q149 96 182 96Q239 96 270 153.50Q301 211 301 347Q301 487 272.50 544Q244 601 190 601Q158 601 132 589.50Q106 578 80 555L12 634Q51 670 96 689Q141 708 197 708Z"  horiz-adv-x="480" vert-adv-y="1000"  />

      
      <glyph glyph-name="unid8" unicode="&#xd8;" d="M427 669Q548 590 548 346Q548 167 481 76Q414-15 290-15Q278-15 254-13L225-132L119-104L153 23Q32 104 32 346Q32 524 99 615.50Q166 707 290 707Q303 707 325 705L355 825L461 796L427 669M290 604Q248 604 222.50 579Q197 554 184.50 497.50Q172 441 172 346Q172 261 180.50 208Q189 155 207 127L314 602Q298 604 290 604M407 359Q407 506 372 561L266 90Q282 88 290 88Q333 88 358.50 113Q384 138 395.50 197Q407 256 407 359Z"  horiz-adv-x="580" vert-adv-y="1000"  />

      
      <glyph glyph-name="uni01FE" unicode="&#x01FE;" d="M427 669Q548 590 548 346Q548 167 481 76Q414-15 290-15Q278-15 254-13L225-132L119-104L153 23Q32 104 32 346Q32 524 99 615.50Q166 707 290 707Q303 707 325 705L355 825L461 796L427 669M290 604Q248 604 222.50 579Q197 554 184.50 497.50Q172 441 172 346Q172 261 180.50 208Q189 155 207 127L314 602Q298 604 290 604M407 359Q407 506 372 561L266 90Q282 88 290 88Q333 88 358.50 113Q384 138 395.50 197Q407 256 407 359M352 963L404 862L207 779L172 847L352 963Z"  horiz-adv-x="580" vert-adv-y="1000"  />

      
      <glyph glyph-name="unid5" unicode="&#xd5;" d="M290 708Q414 708 481 618Q548 528 548 346Q548 166 481 75Q414-16 290-16Q165-16 98.50 74Q32 164 32 346Q32 525 99 616.50Q166 708 290 708M290 602Q233 602 206 543.50Q179 485 179 346Q179 205 206 147.50Q233 90 290 90Q329 90 353 114Q377 138 389 194Q401 250 401 346Q401 485 374 543.50Q347 602 290 602M341 772Q323 772 309.50 778.50Q296 785 278 797Q267 806 259 810Q251 814 243 814Q229 814 220 804.50Q211 795 199 772L134 802Q150 850 177.50 878.50Q205 907 240 907Q258 907 270.50 901Q283 895 302 883Q313 874 321 870Q329 866 338 866Q351 866 360.50 875.50Q370 885 381 906L446 877Q430 827 402.50 799.50Q375 772 341 772Z"  horiz-adv-x="580" vert-adv-y="1000"  />

      
      <glyph glyph-name="uni1E4C" unicode="&#x1E4C;" d="M290 708Q414 708 481 618Q548 528 548 346Q548 166 481 75Q414-16 290-16Q165-16 98.50 74Q32 164 32 346Q32 525 99 616.50Q166 708 290 708M290 602Q233 602 206 543.50Q179 485 179 346Q179 205 206 147.50Q233 90 290 90Q329 90 353 114Q377 138 389 194Q401 250 401 346Q401 485 374 543.50Q347 602 290 602M341 761Q323 761 309.50 767.50Q296 774 278 786Q267 795 259 799Q251 803 243 803Q229 803 220 793.50Q211 784 199 761L134 791Q150 839 177.50 867.50Q205 896 240 896Q258 896 270.50 890Q283 884 302 872Q313 863 321 859Q329 855 338 855Q351 855 360.50 864.50Q370 874 381 895L446 866Q430 816 402.50 788.50Q375 761 341 761M353 1101L405 1000L208 917L173 985L353 1101Z"  horiz-adv-x="580" vert-adv-y="1000"  />

      
      <glyph glyph-name="uni022C" unicode="&#x022C;" d="M290 708Q414 708 481 618Q548 528 548 346Q548 166 481 75Q414-16 290-16Q165-16 98.50 74Q32 164 32 346Q32 525 99 616.50Q166 708 290 708M290 602Q233 602 206 543.50Q179 485 179 346Q179 205 206 147.50Q233 90 290 90Q329 90 353 114Q377 138 389 194Q401 250 401 346Q401 485 374 543.50Q347 602 290 602M341 761Q323 761 309.50 767.50Q296 774 278 786Q267 795 259 799Q251 803 243 803Q229 803 220 793.50Q211 784 199 761L134 791Q150 839 177.50 867.50Q205 896 240 896Q258 896 270.50 890Q283 884 302 872Q313 863 321 859Q329 855 338 855Q351 855 360.50 864.50Q370 874 381 895L446 866Q430 816 402.50 788.50Q375 761 341 761M414 938L162 938L162 1031L414 1031L414 938Z"  horiz-adv-x="580" vert-adv-y="1000"  />

      
      <glyph glyph-name="uni0152" unicode="&#x0152;" d="M528 300Q520 181 466 104L722 104L722 0L358 0Q323-16 276-16Q162-16 97 77.50Q32 171 32 346Q32 462 61.50 543Q91 624 146 666Q201 708 276 708Q323 708 358 692L723 692L708 589L467 589Q517 519 528 403L683 403L683 300L528 300M281 90Q333 90 358.50 148.50Q384 207 384 346Q384 484 358.50 543Q333 602 281 602Q230 602 204.50 543Q179 484 179 346Q179 208 205 149Q231 90 281 90Z"  horiz-adv-x="748" vert-adv-y="1000"  />

      
      <glyph glyph-name="uni50" unicode="&#x50;" d="M220 692Q348 692 414.50 635.50Q481 579 481 470Q481 355 416 297Q351 239 233 239L195 239L195 0L53 0L53 692L220 692M223 342Q283 342 309.50 371Q336 400 336 469Q336 532 310 561Q284 590 225 590L195 590L195 342L223 342Z"  horiz-adv-x="494" vert-adv-y="1000"  />

      
      <glyph glyph-name="uni1E54" unicode="&#x1E54;" d="M220 692Q348 692 414.50 635.50Q481 579 481 470Q481 355 416 297Q351 239 233 239L195 239L195 0L53 0L53 692L220 692M223 342Q283 342 309.50 371Q336 400 336 469Q336 532 310 561Q284 590 225 590L195 590L195 342L223 342M314 936L366 835L169 752L134 820L314 936Z"  horiz-adv-x="494" vert-adv-y="1000"  />

      
      <glyph glyph-name="uni1E56" unicode="&#x1E56;" d="M220 692Q348 692 414.50 635.50Q481 579 481 470Q481 355 416 297Q351 239 233 239L195 239L195 0L53 0L53 692L220 692M223 342Q283 342 309.50 371Q336 400 336 469Q336 532 310 561Q284 590 225 590L195 590L195 342L223 342M251 926Q286 926 308 903Q330 880 330 845Q330 811 308 788.50Q286 766 251 766Q215 766 193 788.50Q171 811 171 845Q171 880 193 903Q215 926 251 926Z"  horiz-adv-x="494" vert-adv-y="1000"  />

      
      <glyph glyph-name="uni01A4" unicode="&#x01A4;" d="M338 692Q466 692 532.50 635.50Q599 579 599 470Q599 355 534 297Q469 239 351 239L313 239L313 0L171 0L171 589L153 589Q113 589 113 545Q113 513 130 474L43 436Q24 464 14 492.50Q4 521 4 558Q4 619 43.50 655.50Q83 692 158 692L338 692M341 342Q401 342 427.50 371Q454 400 454 469Q454 532 428 561Q402 590 343 590L313 590L313 342L341 342Z"  horiz-adv-x="612" vert-adv-y="1000"  />

      
      <glyph glyph-name="unide" unicode="&#xde;" d="M231 580Q352 580 416.50 523.50Q481 467 481 356Q481 237 417.50 178Q354 119 241 119L195 119L195 0L53 0L53 692L195 692L195 580L231 580M228 222Q285 222 311.50 252Q338 282 338 355Q338 420 311 449Q284 478 227 478L195 478L195 222L228 222Z"  horiz-adv-x="494" vert-adv-y="1000"  />

      
      <glyph glyph-name="uni51" unicode="&#x51;" d="M408 43Q466 42 507 25.50Q548 9 586-26L499-133Q457-74 406-43Q355-12 281-12Q164-12 98 79Q32 170 32 346Q32 523 99 615.50Q166 708 290 708Q414 708 481 616.50Q548 525 548 346Q548 223 510.50 153.50Q473 84 408 43M179 346Q179 206 206 148Q233 90 290 90Q329 90 353 114Q377 138 389 194Q401 250 401 346Q401 487 374 544.50Q347 602 290 602Q233 602 206 544.50Q179 487 179 346Z"  horiz-adv-x="580" vert-adv-y="1000"  />

      
      <glyph glyph-name="uni024A" unicode="&#x024A;" d="M655-178Q605-219 534-219Q459-219 413-177.50Q367-136 367-55L367 1L368 1L368 30Q320-15 251-15Q188-15 138.50 23Q89 61 60.50 139Q32 217 32 333Q32 455 61 539.50Q90 624 140 666Q190 708 253 708Q328 708 377 654L383 692L509 692L509-63Q509-114 551-114Q568-114 579.50-110Q591-106 606-97L655-178M281 88Q331 88 368 128L368 560Q334 602 285 602Q233 602 206 542Q179 482 179 333Q179 194 204.50 141Q230 88 281 88Z"  horiz-adv-x="562" vert-adv-y="1000"  />

      
      <glyph glyph-name="uni52" unicode="&#x52;" d="M365 0L247 274L238 274L195 274L195 0L53 0L53 692L227 692Q480 692 480 486Q480 424 453.50 375.50Q427 327 372 301L516 0L365 0M232 373Q287 373 311 400Q335 427 335 486Q335 540 309.50 565.50Q284 591 226 591L195 591L195 373L232 373Z"  horiz-adv-x="514" vert-adv-y="1000"  />

      
      <glyph glyph-name="uni0154" unicode="&#x0154;" d="M365 0L247 274L238 274L195 274L195 0L53 0L53 692L227 692Q480 692 480 486Q480 424 453.50 375.50Q427 327 372 301L516 0L365 0M232 373Q287 373 311 400Q335 427 335 486Q335 540 309.50 565.50Q284 591 226 591L195 591L195 373L232 373M315 936L367 835L170 752L135 820L315 936Z"  horiz-adv-x="514" vert-adv-y="1000"  />

      
      <glyph glyph-name="uni0158" unicode="&#x0158;" d="M365 0L247 274L238 274L195 274L195 0L53 0L53 692L227 692Q480 692 480 486Q480 424 453.50 375.50Q427 327 372 301L516 0L365 0M232 373Q287 373 311 400Q335 427 335 486Q335 540 309.50 565.50Q284 591 226 591L195 591L195 373L232 373M362 928L410 878L293 751L211 751L95 878L143 928L252 846L362 928Z"  horiz-adv-x="514" vert-adv-y="1000"  />

      
      <glyph glyph-name="uni0156" unicode="&#x0156;" d="M365 0L247 274L238 274L195 274L195 0L53 0L53 692L227 692Q480 692 480 486Q480 424 453.50 375.50Q427 327 372 301L516 0L365 0M232 373Q287 373 311 400Q335 427 335 486Q335 540 309.50 565.50Q284 591 226 591L195 591L195 373L232 373M259-71Q289-71 307.50-91Q326-111 326-141Q326-158 321.50-174.50Q317-191 304-222L266-315L199-315L225-200Q192-179 192-141Q192-111 210.50-91Q229-71 259-71Z"  horiz-adv-x="514" vert-adv-y="1000"  />

      
      <glyph glyph-name="uni0210" unicode="&#x0210;" d="M365 0L247 274L238 274L195 274L195 0L53 0L53 692L227 692Q480 692 480 486Q480 424 453.50 375.50Q427 327 372 301L516 0L365 0M232 373Q287 373 311 400Q335 427 335 486Q335 540 309.50 565.50Q284 591 226 591L195 591L195 373L232 373M142 974L221 786L155 754L54 927L142 974M288 974L360 788L293 759L198 930L288 974Z"  horiz-adv-x="514" vert-adv-y="1000"  />

      
      <glyph glyph-name="uni1E5A" unicode="&#x1E5A;" d="M365 0L247 274L238 274L195 274L195 0L53 0L53 692L227 692Q480 692 480 486Q480 424 453.50 375.50Q427 327 372 301L516 0L365 0M232 373Q287 373 311 400Q335 427 335 486Q335 540 309.50 565.50Q284 591 226 591L195 591L195 373L232 373M258-226Q223-226 201-203Q179-180 179-145Q179-111 201-88.50Q223-66 258-66Q294-66 316-88.50Q338-111 338-145Q338-180 316-203Q294-226 258-226Z"  horiz-adv-x="514" vert-adv-y="1000"  />

      
      <glyph glyph-name="uni0212" unicode="&#x0212;" d="M365 0L247 274L238 274L195 274L195 0L53 0L53 692L227 692Q480 692 480 486Q480 424 453.50 375.50Q427 327 372 301L516 0L365 0M232 373Q287 373 311 400Q335 427 335 486Q335 540 309.50 565.50Q284 591 226 591L195 591L195 373L232 373M251 942Q317 942 353.50 900Q390 858 395 782L321 768Q305 848 251 848Q198 848 182 768L109 782Q114 858 150 900Q186 942 251 942Z"  horiz-adv-x="514" vert-adv-y="1000"  />

      
      <glyph glyph-name="uni024C" unicode="&#x024C;" d="M259 274L252 274L207 274L207 0L65 0L65 274L15 274L15 373L65 373L65 692L239 692Q492 692 492 486Q492 424 465.50 375.50Q439 327 384 301L528 0L377 0L259 274M244 373Q299 373 323 400Q347 427 347 486Q347 540 321.50 565.50Q296 591 238 591L207 591L207 373L244 373Z"  horiz-adv-x="525" vert-adv-y="1000"  />

      
      <glyph glyph-name="uni2C64" unicode="&#x2C64;" d="M195-63Q195-114 237-114Q254-114 265.50-110Q277-106 292-97L341-178Q291-219 220-219Q145-219 99-177.50Q53-136 53-55L53 692L227 692Q480 692 480 486Q480 424 453.50 375.50Q427 327 372 301L516 0L365 0L247 274L238 274L195 274L195-63M195 591L195 373L232 373Q287 373 311 400Q335 427 335 486Q335 540 309.50 565.50Q284 591 226 591L195 591Z"  horiz-adv-x="514" vert-adv-y="1000"  />

      
      <glyph glyph-name="uni53" unicode="&#x53;" d="M238 708Q300 708 348 686Q396 664 435 621L371 547Q313 602 251 602Q215 602 194 580.50Q173 559 173 523Q173 488 196 465Q219 442 283 416Q341 392 376.50 365Q412 338 431.50 298Q451 258 451 199Q451 138 423 89Q395 40 343 12Q291-16 222-16Q151-16 98.50 9.50Q46 35 4 80L73 156Q108 124 141.50 107.50Q175 91 213 91Q257 91 280.50 117.50Q304 144 304 189Q304 230 282 255.50Q260 281 202 305Q108 344 68 392Q28 440 28 513Q28 570 55 614Q82 658 130 683Q178 708 238 708Z"  horiz-adv-x="471" vert-adv-y="1000"  />

      
      <glyph glyph-name="uni015A" unicode="&#x015A;" d="M238 708Q300 708 348 686Q396 664 435 621L371 547Q313 602 251 602Q215 602 194 580.50Q173 559 173 523Q173 488 196 465Q219 442 283 416Q341 392 376.50 365Q412 338 431.50 298Q451 258 451 199Q451 138 423 89Q395 40 343 12Q291-16 222-16Q151-16 98.50 9.50Q46 35 4 80L73 156Q108 124 141.50 107.50Q175 91 213 91Q257 91 280.50 117.50Q304 144 304 189Q304 230 282 255.50Q260 281 202 305Q108 344 68 392Q28 440 28 513Q28 570 55 614Q82 658 130 683Q178 708 238 708M305 936L357 835L160 752L125 820L305 936Z"  horiz-adv-x="471" vert-adv-y="1000"  />

      
      <glyph glyph-name="uniA78B" unicode="&#xA78B;" d="M59 339L45 692L176 692L160 339L59 339Z"  horiz-adv-x="220" vert-adv-y="1000"  />

      
      <glyph glyph-name="uni0160" unicode="&#x0160;" d="M238 708Q300 708 348 686Q396 664 435 621L371 547Q313 602 251 602Q215 602 194 580.50Q173 559 173 523Q173 488 196 465Q219 442 283 416Q341 392 376.50 365Q412 338 431.50 298Q451 258 451 199Q451 138 423 89Q395 40 343 12Q291-16 222-16Q151-16 98.50 9.50Q46 35 4 80L73 156Q108 124 141.50 107.50Q175 91 213 91Q257 91 280.50 117.50Q304 144 304 189Q304 230 282 255.50Q260 281 202 305Q108 344 68 392Q28 440 28 513Q28 570 55 614Q82 658 130 683Q178 708 238 708M352 928L400 878L283 751L201 751L85 878L133 928L242 846L352 928Z"  horiz-adv-x="471" vert-adv-y="1000"  />

      
      <glyph glyph-name="uni015E" unicode="&#x015E;" d="M451 199Q451 117 402 59Q353 1 268-12L268-55Q354-69 354-147Q354-196 320.50-225.50Q287-255 230-255Q176-255 136-227L168-166Q195-178 220-178Q257-178 257-146Q257-126 239-117Q221-108 181-108L192-15Q132-9 87 15.50Q42 40 4 80L73 156Q108 124 141.50 107.50Q175 91 213 91Q257 91 280.50 117.50Q304 144 304 189Q304 230 282 255.50Q260 281 202 305Q108 344 68 392Q28 440 28 513Q28 570 55 614Q82 658 130 683Q178 708 238 708Q300 708 348 686Q396 664 435 621L371 547Q313 602 251 602Q215 602 194 580.50Q173 559 173 523Q173 488 196 465Q219 442 283 416Q341 392 376.50 365Q412 338 431.50 298Q451 258 451 199Z"  horiz-adv-x="471" vert-adv-y="1000"  />

      
      <glyph glyph-name="uni015C" unicode="&#x015C;" d="M238 708Q300 708 348 686Q396 664 435 621L371 547Q313 602 251 602Q215 602 194 580.50Q173 559 173 523Q173 488 196 465Q219 442 283 416Q341 392 376.50 365Q412 338 431.50 298Q451 258 451 199Q451 138 423 89Q395 40 343 12Q291-16 222-16Q151-16 98.50 9.50Q46 35 4 80L73 156Q108 124 141.50 107.50Q175 91 213 91Q257 91 280.50 117.50Q304 144 304 189Q304 230 282 255.50Q260 281 202 305Q108 344 68 392Q28 440 28 513Q28 570 55 614Q82 658 130 683Q178 708 238 708M132 760L84 810L201 937L283 937L399 810L351 760L241 842L132 760Z"  horiz-adv-x="471" vert-adv-y="1000"  />

      
      <glyph glyph-name="uni0218" unicode="&#x0218;" d="M238 708Q300 708 348 686Q396 664 435 621L371 547Q313 602 251 602Q215 602 194 580.50Q173 559 173 523Q173 488 196 465Q219 442 283 416Q341 392 376.50 365Q412 338 431.50 298Q451 258 451 199Q451 138 423 89Q395 40 343 12Q291-16 222-16Q151-16 98.50 9.50Q46 35 4 80L73 156Q108 124 141.50 107.50Q175 91 213 91Q257 91 280.50 117.50Q304 144 304 189Q304 230 282 255.50Q260 281 202 305Q108 344 68 392Q28 440 28 513Q28 570 55 614Q82 658 130 683Q178 708 238 708M232-71Q262-71 280.50-91Q299-111 299-141Q299-158 294.50-174.50Q290-191 277-222L239-315L172-315L198-200Q165-179 165-141Q165-111 183.50-91Q202-71 232-71Z"  horiz-adv-x="471" vert-adv-y="1000"  />

      
      <glyph glyph-name="uni1E60" unicode="&#x1E60;" d="M238 708Q300 708 348 686Q396 664 435 621L371 547Q313 602 251 602Q215 602 194 580.50Q173 559 173 523Q173 488 196 465Q219 442 283 416Q341 392 376.50 365Q412 338 431.50 298Q451 258 451 199Q451 138 423 89Q395 40 343 12Q291-16 222-16Q151-16 98.50 9.50Q46 35 4 80L73 156Q108 124 141.50 107.50Q175 91 213 91Q257 91 280.50 117.50Q304 144 304 189Q304 230 282 255.50Q260 281 202 305Q108 344 68 392Q28 440 28 513Q28 570 55 614Q82 658 130 683Q178 708 238 708M242 926Q277 926 299 903Q321 880 321 845Q321 811 299 788.50Q277 766 242 766Q206 766 184 788.50Q162 811 162 845Q162 880 184 903Q206 926 242 926Z"  horiz-adv-x="471" vert-adv-y="1000"  />

      
      <glyph glyph-name="uni1E62" unicode="&#x1E62;" d="M238 708Q300 708 348 686Q396 664 435 621L371 547Q313 602 251 602Q215 602 194 580.50Q173 559 173 523Q173 488 196 465Q219 442 283 416Q341 392 376.50 365Q412 338 431.50 298Q451 258 451 199Q451 138 423 89Q395 40 343 12Q291-16 222-16Q151-16 98.50 9.50Q46 35 4 80L73 156Q108 124 141.50 107.50Q175 91 213 91Q257 91 280.50 117.50Q304 144 304 189Q304 230 282 255.50Q260 281 202 305Q108 344 68 392Q28 440 28 513Q28 570 55 614Q82 658 130 683Q178 708 238 708M231-226Q196-226 174-203Q152-180 152-145Q152-111 174-88.50Q196-66 231-66Q267-66 289-88.50Q311-111 311-145Q311-180 289-203Q267-226 231-226Z"  horiz-adv-x="471" vert-adv-y="1000"  />

      
      <glyph glyph-name="uni1E9E" unicode="&#x1E9E;" d="M257 708Q321 708 378.50 690.50Q436 673 497 641L497 571L374 391Q534 359 534 195Q534 128 507.50 80.50Q481 33 436 8.50Q391-16 335-16Q269-16 228 10L268 102Q290 92 315 92Q388 92 388 196Q388 256 357 285Q326 314 257 319L257 400L380 583Q321 602 271 602Q195 602 195 509L195 0L53 0L53 507Q53 598 106 653Q159 708 257 708Z"  horiz-adv-x="554" vert-adv-y="1000"  />

      
      </font>
</defs>
</svg>
